<svg width="78" height="78" viewBox="0 0 78 78" fill="none" xmlns="http://www.w3.org/2000/svg">
<g clip-path="url(#clip0)">
<path d="M16.9125 13.689H12.978V23.8365H15.663V20.619H16.9125C19.0365 20.619 20.9715 19.542 20.9715 17.0595C20.9715 14.5005 19.098 13.689 16.9125 13.689ZM16.788 18.4965H15.663V15.8115H16.788C17.787 15.8115 18.3495 16.155 18.3495 17.0595C18.3495 17.964 17.85 18.4965 16.788 18.4965Z" fill="white"/>
<path d="M25.6155 13.689H22.6185V23.8365H25.7715C28.707 23.8365 30.8295 22.305 30.8295 18.7155C30.8295 15.126 28.7055 13.689 25.6155 13.689ZM25.4595 21.681H25.3035V15.843H25.4595C26.928 15.843 28.083 16.341 28.083 18.714C28.083 21.087 26.928 21.681 25.4595 21.681Z" fill="white"/>
<path d="M39.252 15.9375V13.689H32.634V23.8365H35.319V20.121H38.691V17.8725H35.319V15.9375H39.252Z" fill="white"/>
<path d="M77.5605 15.4395L62.5605 0.4395C62.28 0.1575 61.8975 0 61.5 0H60H22.5C18.3645 0 15 3.3645 15 7.5H7.5C3.3645 7.5 0 10.8645 0 15V22.5C0 26.6355 3.3645 30 7.5 30H15V64.5C15 68.6355 18.3645 72 22.5 72H27C27.828 72 28.5 71.3295 28.5 70.5C28.5 69.6705 27.828 69 27 69H22.5C20.019 69 18 66.981 18 64.5V30H46.5C50.6355 30 54 26.6355 54 22.5V15C54 10.8645 50.6355 7.5 46.5 7.5H18C18 5.019 20.019 3 22.5 3H58.5V12C58.5 16.1355 61.8645 19.5 66 19.5H75V64.5C75 66.981 72.981 69 70.5 69H66C65.172 69 64.5 69.6705 64.5 70.5C64.5 71.3295 65.172 72 66 72H70.5C74.6355 72 78 68.6355 78 64.5V18V16.5C78 16.101 77.8425 15.72 77.5605 15.4395ZM46.5 10.5C48.981 10.5 51 12.519 51 15V22.5C51 24.981 48.981 27 46.5 27H7.5C5.019 27 3 24.981 3 22.5V15C3 12.519 5.019 10.5 7.5 10.5H46.5ZM66 16.5C63.519 16.5 61.5 14.481 61.5 12V3.621L74.379 16.5H66Z" fill="white"/>
<path d="M55.5 48H37.5C33.3645 48 30 51.3645 30 55.5V70.5C30 74.6355 33.3645 78 37.5 78H55.5C59.6355 78 63 74.6355 63 70.5V55.5C63 51.3645 59.6355 48 55.5 48ZM60 70.5C60 72.981 57.981 75 55.5 75H37.5C35.019 75 33 72.981 33 70.5V55.5C33 53.019 35.019 51 37.5 51H55.5C57.981 51 60 53.019 60 55.5V70.5Z" fill="white"/>
<path d="M48.1875 55.7813C48.1875 54.8493 47.4319 54.0938 46.5 54.0938C45.568 54.0938 44.8125 54.8493 44.8125 55.7813H48.1875ZM44.8125 68.8125C44.8125 69.7445 45.568 70.5 46.5 70.5C47.4319 70.5 48.1875 69.7445 48.1875 68.8125H44.8125ZM40.3807 61.9943C39.7217 61.3353 38.6532 61.3353 37.9942 61.9943C37.3352 62.6533 37.3352 63.7218 37.9942 64.3808L40.3807 61.9943ZM46.5 70.5L45.3067 71.6933C45.9657 72.3523 47.0342 72.3523 47.6932 71.6933L46.5 70.5ZM55.0057 64.3808C55.6647 63.7218 55.6647 62.6533 55.0057 61.9943C54.3467 61.3353 53.2782 61.3353 52.6192 61.9943L55.0057 64.3808ZM44.8125 55.7813V68.8125H48.1875V55.7813H44.8125ZM37.9942 64.3808L45.3067 71.6933L47.6932 69.3068L40.3807 61.9943L37.9942 64.3808ZM47.6932 71.6933L55.0057 64.3808L52.6192 61.9943L45.3067 69.3068L47.6932 71.6933Z" fill="#F8F8F8"/>
</g>
<defs>
<clipPath id="clip0">
<rect width="78" height="78" fill="white"/>
</clipPath>
</defs>
</svg>
