<svg width="70" height="62" viewBox="0 0 70 62" fill="none" xmlns="http://www.w3.org/2000/svg">
<path d="M7.99132 10.7085C7.90267 10.7085 7.81241 10.6994 7.72483 10.6812C7.63724 10.6636 7.55126 10.6374 7.46902 10.6033C7.3857 10.5691 7.30666 10.5269 7.23296 10.4777C7.15766 10.4286 7.0877 10.3709 7.02468 10.3079C6.96219 10.2449 6.90451 10.1755 6.85378 10.1002C6.80465 10.0265 6.76352 9.94743 6.72934 9.86358C6.69516 9.78187 6.66793 9.69589 6.65191 9.6083C6.63375 9.52072 6.62467 9.43046 6.62467 9.34128C6.62467 9.25262 6.63375 9.16237 6.65191 9.07478C6.66793 8.9872 6.69516 8.90121 6.72934 8.8179C6.76352 8.73565 6.80465 8.65661 6.85378 8.58291C6.90451 8.50761 6.96219 8.43765 7.02468 8.37517C7.0877 8.31215 7.15766 8.25447 7.23296 8.20534C7.30666 8.1546 7.3857 8.11401 7.46902 8.07983C7.55126 8.04565 7.63724 8.01788 7.72483 8.00186C7.90107 7.96608 8.08158 7.96501 8.25782 8.00186C8.34541 8.01788 8.43192 8.04565 8.51363 8.07983C8.59695 8.11401 8.67652 8.1546 8.75022 8.20534C8.82552 8.25447 8.89495 8.31215 8.95797 8.37517C9.02099 8.43765 9.07813 8.50761 9.12727 8.58291C9.17694 8.65661 9.21913 8.73565 9.25331 8.8179C9.28749 8.90121 9.31472 8.9872 9.33128 9.07478C9.3489 9.16237 9.35851 9.25262 9.35851 9.34128C9.35851 9.43046 9.3489 9.52072 9.33128 9.6083C9.31472 9.69589 9.28749 9.78187 9.25331 9.86358C9.21913 9.94743 9.17694 10.0265 9.12727 10.1002C9.07813 10.1755 9.02099 10.2449 8.95797 10.3079C8.89495 10.3709 8.82552 10.4286 8.75022 10.4777C8.67652 10.5269 8.59695 10.5691 8.51363 10.6033C8.43139 10.6374 8.34541 10.6636 8.25782 10.6812C8.17023 10.6994 8.08051 10.7085 7.99132 10.7085Z" fill="#FCB415"/>
<path d="M43.4059 18.0807C43.3172 18.0807 43.2264 18.0726 43.1394 18.0545C43.0518 18.0369 42.9653 18.0107 42.8835 17.9765C42.8002 17.9423 42.7207 17.9001 42.647 17.851C42.5717 17.8003 42.5022 17.7431 42.4392 17.6801C42.3762 17.6171 42.319 17.5477 42.2699 17.4724C42.2208 17.3987 42.178 17.3191 42.1439 17.2368C42.1097 17.1535 42.0841 17.0691 42.0659 16.9816C42.0483 16.8924 42.0387 16.8037 42.0387 16.7135C42.0387 16.354 42.185 16.001 42.4392 15.7468C42.5022 15.6838 42.5722 15.6267 42.6475 15.5775C42.7212 15.5279 42.8002 15.4857 42.8835 15.4515C42.9658 15.4173 43.0518 15.3911 43.1394 15.3735C43.3156 15.3383 43.4977 15.3383 43.674 15.3735C43.7599 15.3911 43.8465 15.4173 43.9298 15.4515C44.0115 15.4857 44.091 15.5279 44.1647 15.5775C44.2401 15.6267 44.3095 15.6838 44.3725 15.7468C44.6267 16.001 44.773 16.354 44.773 16.7135C44.773 16.8037 44.765 16.8924 44.7474 16.9816C44.7298 17.0691 44.7036 17.1535 44.6694 17.2368C44.6353 17.3191 44.5931 17.3987 44.5434 17.4724C44.4932 17.5477 44.4355 17.6171 44.3725 17.6801C44.31 17.7431 44.2401 17.8003 44.1647 17.851C44.091 17.9001 44.012 17.9423 43.9298 17.9765C43.8465 18.0107 43.7599 18.0369 43.674 18.0545C43.5848 18.0726 43.4945 18.0807 43.4059 18.0807Z" fill="#FCB415"/>
<path d="M68.4835 4.63091H14.8614C13.4968 2.17638 10.8762 0.511719 7.87428 0.511719C5.74072 0.511719 3.66697 1.38918 2.1855 2.91872C0.716837 4.43598 -0.0575475 6.42427 0.00333516 8.52045V53.0219C-0.000937306 53.1741 -0.000937306 53.3269 0.00333516 53.4807C-0.0383214 55.5731 0.760629 57.5662 2.25439 59.0936C3.79461 60.6685 5.93886 61.5716 8.13811 61.5716H68.633C69.3881 61.5716 70.0002 60.9596 70.0002 60.2045V6.14763C70.0002 5.3113 69.3198 4.63091 68.4835 4.63091ZM4.14976 4.82103C5.1335 3.80525 6.45582 3.2461 7.87428 3.2461C10.771 3.2461 13.1278 5.60236 13.1278 8.49962V47.4495C12.0768 46.5299 10.7838 45.881 9.35843 45.6124V14.7727C9.35843 14.0175 8.7464 13.4055 7.99124 13.4055C7.23662 13.4055 6.62405 14.0175 6.62405 14.7727V45.5745C5.19491 45.8052 3.84268 46.4258 2.73771 47.3641V8.49962C2.73771 8.48467 2.73771 8.47025 2.73718 8.45583C2.69339 7.09772 3.19487 5.8069 4.14976 4.82103ZM67.2658 58.8373H8.13811C6.66998 58.8373 5.23817 58.2338 4.20958 57.1817C3.23011 56.1803 2.70727 54.882 2.73771 53.5245C2.73771 53.5095 2.73771 53.4945 2.73771 53.4791C2.73771 53.4737 2.73771 53.4678 2.73771 53.462V53.0716C2.78257 51.8416 3.27658 50.6849 4.14976 49.7834C5.1335 48.7676 6.45582 48.2084 7.87428 48.2084C10.771 48.2084 13.1278 50.5652 13.1278 53.462C13.1278 54.2171 13.7398 54.8292 14.495 54.8292C15.2502 54.8292 15.8622 54.2171 15.8622 53.462V8.49962C15.8622 8.11457 15.8349 7.73592 15.7821 7.36529H67.2658V58.8373Z" fill="#FCB415"/>
<path d="M23.235 35.6453H43.4058C44.161 35.6453 44.773 35.0332 44.773 34.2781C44.773 34.2124 44.7682 34.1478 44.7592 34.0842C44.7682 34.0207 44.773 33.956 44.773 33.8898V22.5924C44.773 21.8372 44.161 21.2252 43.4058 21.2252C42.6512 21.2252 42.0387 21.8372 42.0387 22.5924V32.9109H36.7526V28.8937C36.7526 28.1385 36.1405 27.5265 35.3854 27.5265C32.1874 27.5265 29.5241 29.8582 29.006 32.9109H24.6022V13.2287H34.0182V20.0609H28.3903C27.6351 20.0609 27.0231 20.6735 27.0231 21.4281C27.0231 22.1833 27.6351 22.7953 28.3903 22.7953H35.3854C36.1405 22.7953 36.7526 22.1833 36.7526 21.4281V13.2287H51.9577C52.5121 15.7943 54.5917 17.7992 57.1968 18.2414V22.3862H50.0591C49.304 22.3862 48.692 22.9988 48.692 23.7534C48.692 24.5086 49.304 25.1206 50.0591 25.1206H57.1968V32.9114H50.7427C49.9876 32.9114 49.3755 33.5235 49.3755 34.2786C49.3755 35.0332 49.9876 35.6458 50.7427 35.6458H58.564C59.3192 35.6458 59.9312 35.0332 59.9312 34.2786V11.8615C59.9312 11.1064 59.3192 10.4943 58.564 10.4943H23.235C22.4799 10.4943 21.8678 11.1064 21.8678 11.8615V34.2781C21.8678 35.0332 22.4799 35.6453 23.235 35.6453ZM34.0182 30.5199V32.9109H31.8098C32.1431 31.8182 32.964 30.9359 34.0182 30.5199ZM57.1968 13.2287V15.437C56.1041 15.1043 55.2219 14.2829 54.8059 13.2287H57.1968Z" fill="#FCB415"/>
<path d="M58.564 47.7368H23.235C22.4799 47.7368 21.8678 47.1248 21.8678 46.3696V41.0216C21.8678 40.2664 22.4799 39.6544 23.235 39.6544H58.564C59.3192 39.6544 59.9312 40.2664 59.9312 41.0216V46.3696C59.9312 47.1248 59.3192 47.7368 58.564 47.7368ZM24.6022 45.0025H57.1968V42.3888H24.6022V45.0025Z" fill="#FCB415"/>
<path d="M58.5639 54.1456C58.4747 54.1456 58.3844 54.1376 58.2969 54.12C58.2093 54.1018 58.1233 54.0762 58.0416 54.042C57.9583 54.0078 57.8787 53.9651 57.805 53.9159C57.7297 53.8652 57.6603 53.8081 57.5972 53.745C57.343 53.4908 57.1967 53.1384 57.1967 52.7784C57.1967 52.6898 57.2058 52.5995 57.2239 52.5119C57.2416 52.4243 57.2677 52.3383 57.3019 52.2561C57.3361 52.1728 57.3783 52.0937 57.4274 52.0195C57.4765 51.9447 57.5342 51.8748 57.5972 51.8118C57.6597 51.7493 57.7297 51.6916 57.805 51.6425C57.8787 51.5933 57.9577 51.5506 58.0416 51.5164C58.1233 51.4822 58.2093 51.4566 58.2969 51.4385C58.7412 51.3482 59.2128 51.4945 59.53 51.8118C59.7848 52.066 59.9311 52.419 59.9311 52.7784C59.9311 53.1384 59.7848 53.4908 59.53 53.745C59.2758 53.9993 58.9233 54.1456 58.5639 54.1456Z" fill="#FCB415"/>
<path d="M52.6851 54.1456H23.235C22.4799 54.1456 21.8678 53.5335 21.8678 52.7784C21.8678 52.0238 22.4799 51.4112 23.235 51.4112H52.6851C53.4403 51.4112 54.0523 52.0238 54.0523 52.7784C54.0523 53.5335 53.4403 54.1456 52.6851 54.1456Z" fill="#FCB415"/>
</svg>
