<svg width="67" height="61" viewBox="0 0 67 61" fill="none" xmlns="http://www.w3.org/2000/svg">
<path d="M65.4732 0H1.52685C0.683724 0 0 0.533393 0 1.19141V59.8086C0 60.4665 0.683724 61 1.52685 61H65.4732C66.3164 61 67 60.4665 67 59.8086V1.19141C67 0.533393 66.3163 0 65.4732 0ZM64.9463 58.6172H2.0537V2.38281H64.9463V58.6172Z" fill="#FCB415"/>
<path d="M6.99805 49.0621H31.4146C32.0726 49.0621 32.606 48.5286 32.606 47.8707V29.5707C32.606 28.9128 32.0726 28.3793 31.4146 28.3793H6.99805C6.34015 28.3793 5.80664 28.9128 5.80664 29.5707V47.8707C5.80664 48.5286 6.34015 49.0621 6.99805 49.0621ZM8.18945 30.7621H30.2232V46.6793H8.18945V30.7621Z" fill="#FCB415"/>
<path d="M25.5358 37.5234H24.0612C23.6208 35.7439 22.2174 34.3401 20.4381 33.8996V32.4244C20.4381 31.7665 19.9046 31.233 19.2467 31.233C18.5888 31.233 18.0553 31.7665 18.0553 32.4244V33.8996C16.2762 34.3401 14.8726 35.7439 14.4322 37.5234H12.9575C12.2996 37.5234 11.7661 38.0569 11.7661 38.7148C11.7661 39.3727 12.2996 39.9062 12.9575 39.9062H14.4322C14.8726 41.6857 16.2761 43.0894 18.0553 43.5299V45.0052C18.0553 45.6632 18.5888 46.1966 19.2467 46.1966C19.9046 46.1966 20.4381 45.6632 20.4381 45.0052V43.5299C22.2172 43.0894 23.6208 41.6857 24.0612 39.9062H25.5358C26.1938 39.9062 26.7272 39.3727 26.7272 38.7148C26.7272 38.0569 26.1938 37.5234 25.5358 37.5234ZM19.2467 41.2918C17.8261 41.2918 16.6704 40.1358 16.6704 38.7148C16.6704 37.2937 17.8261 36.1377 19.2467 36.1377C20.6673 36.1377 21.823 37.2937 21.823 38.7148C21.823 40.1358 20.6673 41.2918 19.2467 41.2918Z" fill="#FCB415"/>
<path d="M36.1914 49.0621H60.6079C61.2659 49.0621 61.7993 48.5286 61.7993 47.8707V29.5707C61.7993 28.9128 61.2659 28.3793 60.6079 28.3793H36.1914C35.5335 28.3793 35 28.9128 35 29.5707V47.8707C35 48.5286 35.5335 49.0621 36.1914 49.0621ZM37.3828 30.7621H59.4165V46.6793H37.3828V30.7621Z" fill="#FCB415"/>
<path d="M54.7292 37.5234H53.2545C52.8142 35.7439 51.4107 34.3401 49.6315 33.8996V32.4244C49.6315 31.7665 49.098 31.233 48.4401 31.233C47.7822 31.233 47.2487 31.7665 47.2487 32.4244V33.8996C45.4695 34.3401 44.0659 35.7439 43.6256 37.5234H42.1509C41.493 37.5234 40.9595 38.0569 40.9595 38.7148C40.9595 39.3727 41.493 39.9062 42.1509 39.9062H43.6256C44.0659 41.6857 45.4694 43.0894 47.2487 43.5299V45.0052C47.2487 45.6632 47.7822 46.1966 48.4401 46.1966C49.098 46.1966 49.6315 45.6632 49.6315 45.0052V43.5299C51.4106 43.0894 52.8142 41.6857 53.2545 39.9062H54.7292C55.3872 39.9062 55.9206 39.3727 55.9206 38.7148C55.9206 38.0569 55.3872 37.5234 54.7292 37.5234ZM48.4401 41.2918C47.0194 41.2918 45.8638 40.1358 45.8638 38.7148C45.8638 37.2937 47.0194 36.1377 48.4401 36.1377C49.8607 36.1377 51.0164 37.2937 51.0164 38.7148C51.0164 40.1358 49.8607 41.2918 48.4401 41.2918Z" fill="#FCB415"/>
<path d="M6.99805 25.6828H31.4146C32.0726 25.6828 32.606 25.1493 32.606 24.4914V6.19141C32.606 5.53351 32.0726 5 31.4146 5H6.99805C6.34015 5 5.80664 5.53351 5.80664 6.19141V24.4914C5.80664 25.1493 6.34015 25.6828 6.99805 25.6828ZM8.18945 7.38281H30.2232V23.3H8.18945V7.38281Z" fill="#FCB415"/>
<path d="M25.5358 14.1441H24.0612C23.6208 12.3647 22.2174 10.9608 20.4381 10.5204V9.04517C20.4381 8.38727 19.9046 7.85376 19.2467 7.85376C18.5888 7.85376 18.0553 8.38727 18.0553 9.04517V10.5204C16.2762 10.9608 14.8726 12.3647 14.4322 14.1441H12.9575C12.2996 14.1441 11.7661 14.6777 11.7661 15.3356C11.7661 15.9934 12.2996 16.527 12.9575 16.527H14.4322C14.8726 18.3064 16.2761 19.7102 18.0553 20.1506V21.6259C18.0553 22.284 18.5888 22.8173 19.2467 22.8173C19.9046 22.8173 20.4381 22.284 20.4381 21.6259V20.1506C22.2172 19.7102 23.6208 18.3064 24.0612 16.527H25.5358C26.1938 16.527 26.7272 15.9934 26.7272 15.3356C26.7272 14.6777 26.1938 14.1441 25.5358 14.1441ZM19.2467 17.9126C17.8261 17.9126 16.6704 16.7565 16.6704 15.3356C16.6704 13.9144 17.8261 12.7584 19.2467 12.7584C20.6673 12.7584 21.823 13.9144 21.823 15.3356C21.823 16.7565 20.6673 17.9126 19.2467 17.9126Z" fill="#FCB415"/>
<path d="M36.1914 25.6828H60.6079C61.2659 25.6828 61.7993 25.1493 61.7993 24.4914V6.19141C61.7993 5.53351 61.2659 5 60.6079 5H36.1914C35.5335 5 35 5.53351 35 6.19141V24.4914C35 25.1493 35.5335 25.6828 36.1914 25.6828ZM37.3828 7.38281H59.4165V23.3H37.3828V7.38281Z" fill="#FCB415"/>
<path d="M54.7292 14.1441H53.2545C52.8142 12.3647 51.4107 10.9608 49.6315 10.5204V9.04517C49.6315 8.38727 49.098 7.85376 48.4401 7.85376C47.7822 7.85376 47.2487 8.38727 47.2487 9.04517V10.5204C45.4695 10.9608 44.0659 12.3647 43.6256 14.1441H42.1509C41.493 14.1441 40.9595 14.6777 40.9595 15.3356C40.9595 15.9934 41.493 16.527 42.1509 16.527H43.6256C44.0659 18.3064 45.4694 19.7102 47.2487 20.1506V21.6259C47.2487 22.284 47.7822 22.8173 48.4401 22.8173C49.098 22.8173 49.6315 22.284 49.6315 21.6259V20.1506C51.4106 19.7102 52.8142 18.3064 53.2545 16.527H54.7292C55.3872 16.527 55.9206 15.9934 55.9206 15.3356C55.9206 14.6777 55.3872 14.1441 54.7292 14.1441ZM48.4401 17.9126C47.0194 17.9126 45.8638 16.7565 45.8638 15.3356C45.8638 13.9144 47.0194 12.7584 48.4401 12.7584C49.8607 12.7584 51.0164 13.9144 51.0164 15.3356C51.0164 16.7565 49.8607 17.9126 48.4401 17.9126Z" fill="#FCB415"/>
<path d="M40.9188 49.9655C38.7579 49.9655 37 51.7235 37 53.8847C37 56.0459 38.7579 57.8041 40.9188 57.8041C43.0796 57.8041 44.8375 56.0459 44.8375 53.8847C44.8375 51.7236 43.0796 49.9655 40.9188 49.9655ZM40.9188 55.4213C40.0718 55.4213 39.3828 54.7319 39.3828 53.8847C39.3828 53.0375 40.0719 52.3483 40.9188 52.3483C41.7656 52.3483 42.4547 53.0374 42.4547 53.8847C42.4547 54.732 41.7657 55.4213 40.9188 55.4213Z" fill="#FCB415"/>
<path d="M49.5745 49.9655C47.4137 49.9655 45.6558 51.7235 45.6558 53.8847C45.6558 56.0459 47.4137 57.8041 49.5745 57.8041C51.7354 57.8041 53.4933 56.0459 53.4933 53.8847C53.4933 51.7236 51.7354 49.9655 49.5745 49.9655ZM49.5745 55.4213C48.7276 55.4213 48.0386 54.7319 48.0386 53.8847C48.0386 53.0375 48.7277 52.3483 49.5745 52.3483C50.4215 52.3483 51.1105 53.0374 51.1105 53.8847C51.1105 54.732 50.4215 55.4213 49.5745 55.4213Z" fill="#FCB415"/>
<path d="M58.2313 49.9655C56.0704 49.9655 54.3125 51.7235 54.3125 53.8847C54.3125 56.0459 56.0704 57.8041 58.2313 57.8041C60.392 57.8041 62.1499 56.0459 62.1501 53.8847C62.1501 51.7236 60.3921 49.9655 58.2313 49.9655ZM58.2313 55.4213C57.3843 55.4213 56.6953 54.7319 56.6953 53.8847C56.6953 53.0375 57.3844 52.3483 58.2313 52.3483C59.0781 52.3483 59.7672 53.0374 59.7672 53.8847C59.7672 54.732 59.0781 55.4213 58.2313 55.4213Z" fill="#FCB415"/>
<path d="M23.0091 53.6514C22.9948 53.5764 22.9711 53.5013 22.9413 53.4288C22.9116 53.3572 22.8745 53.2881 22.8316 53.2237C22.7888 53.1582 22.7388 53.0974 22.684 53.0426C22.4076 52.7662 21.9966 52.6387 21.6094 52.7174C21.5331 52.7317 21.458 52.7555 21.3866 52.7853C21.314 52.8151 21.2449 52.852 21.1806 52.8949C21.115 52.9378 21.0542 52.9878 20.9994 53.0426C20.9445 53.0974 20.8945 53.1582 20.8504 53.2237C20.8077 53.2881 20.7706 53.3572 20.7408 53.4288C20.711 53.5013 20.6885 53.5764 20.673 53.6514C20.6575 53.7289 20.6504 53.8076 20.6504 53.8851C20.6504 53.9624 20.6574 54.041 20.673 54.1173C20.6885 54.1935 20.711 54.2686 20.7408 54.3401C20.7706 54.4127 20.8077 54.4818 20.8504 54.5462C20.8945 54.6117 20.9445 54.6725 20.9994 54.7273C21.0542 54.7821 21.115 54.8321 21.1806 54.875C21.2449 54.9179 21.314 54.9548 21.3866 54.9846C21.458 55.0144 21.5331 55.0382 21.6094 55.0525C21.6856 55.068 21.7642 55.0764 21.8417 55.0764C22.155 55.0764 22.4624 54.9489 22.684 54.7273C22.7388 54.6723 22.7888 54.6117 22.8316 54.5462C22.8745 54.4818 22.9116 54.4127 22.9413 54.3401C22.9711 54.2687 22.9948 54.1936 23.0091 54.1173C23.0246 54.0411 23.033 53.9624 23.033 53.8851C23.033 53.8076 23.0246 53.7289 23.0091 53.6514Z" fill="#FCB415"/>
<path d="M16.8619 52.6934H5.56299C4.90509 52.6934 4.37158 53.2269 4.37158 53.8848C4.37158 54.5427 4.90509 55.0762 5.56299 55.0762H16.8619C17.5198 55.0762 18.0533 54.5427 18.0533 53.8848C18.0533 53.2269 17.5198 52.6934 16.8619 52.6934Z" fill="#FCB415"/>
</svg>
