<svg width="70" height="62" viewBox="0 0 70 62" fill="none" xmlns="http://www.w3.org/2000/svg">
<path d="M68.6328 27.5705H66.7101V19.6134C66.7101 18.8584 66.0979 18.2462 65.3429 18.2462H58.7804C58.0255 18.2462 57.4133 18.8584 57.4133 19.6134V27.5705H17.8888C17.1339 27.5705 16.5216 28.1828 16.5216 28.9377C16.5216 29.6927 17.1339 30.3049 17.8888 30.3049H33.6808V46.2998C33.6808 46.7957 33.9441 47.2635 34.3678 47.521C34.7915 47.7785 35.328 47.7963 35.7671 47.5683L37.4556 46.6928C38.1709 46.3219 39.0245 46.3197 39.7417 46.6868C39.7458 46.689 39.7499 46.6912 39.754 46.6934C41.2616 47.4751 43.0616 47.475 44.5787 46.6885C45.2908 46.319 46.1404 46.3207 46.8512 46.6917C48.3558 47.4777 50.1534 47.4805 51.6548 46.7016L51.6701 46.6938C52.3895 46.3207 53.2485 46.3207 53.9679 46.6939L55.6574 47.5699C55.8623 47.676 56.088 47.7288 56.3138 47.7288C56.5724 47.7288 56.8308 47.6593 57.0571 47.5218C57.4804 47.2643 57.7434 46.7965 57.7434 46.301V30.3049H65.6816L61.9623 46.1376C60.9021 50.651 56.9237 53.803 52.2875 53.803H17.8084C13.1723 53.803 9.19393 50.6508 8.13381 46.1376L4.41451 30.3049H6.9043C7.65926 30.3049 8.27148 29.6927 8.27148 28.9377C8.27148 28.1828 7.65926 27.5705 6.9043 27.5705H2.73438V8.76464C2.73438 5.4477 5.43293 2.74915 8.75 2.74915H18.457C21.3038 2.74915 23.6932 4.73731 24.3141 7.39758H22.557C20.2954 7.39758 18.4554 9.23754 18.4554 11.4991C18.4554 13.7607 20.2954 15.6007 22.557 15.6007H29.1195C31.3811 15.6007 33.221 13.7607 33.221 11.4991C33.221 9.23754 31.3811 7.39758 29.1195 7.39758H27.0994C26.4411 3.22 22.8167 0.0147705 18.4569 0.0147705H8.75C3.9252 0.0147705 0 3.93997 0 8.76464V28.9376C0 29.6925 0.612227 30.3048 1.36719 30.3048H1.60549L5.47162 46.763C6.12227 49.5325 7.70861 52.0308 9.9385 53.7976C10.44 54.1949 10.9711 54.5497 11.5239 54.8647L7.67402 59.7746C7.35123 60.1863 7.29162 60.746 7.52049 61.2165C7.74949 61.6868 8.22678 61.9854 8.74986 61.9854H14.3553C14.6794 61.9854 14.9929 61.8703 15.2399 61.6607L21.2779 56.5374H48.7219L54.76 61.6607C55.007 61.8703 55.3205 61.9854 55.6445 61.9854H61.25C61.7731 61.9854 62.2504 61.6868 62.4794 61.2165C62.7082 60.7462 62.6486 60.1863 62.3258 59.7746L58.5148 54.9143C61.5215 53.2239 63.7868 50.327 64.6241 46.763L68.4902 30.3048H68.6328C69.3878 30.3048 70 29.6925 70 28.9376C70 28.1826 69.3878 27.5705 68.6328 27.5705ZM55.0089 44.1599C53.5482 43.4864 51.8474 43.5218 50.4165 44.2638L50.4012 44.2717C49.6855 44.6427 48.8318 44.6414 48.1172 44.2683C47.3655 43.8756 46.5408 43.679 45.7144 43.679C44.8909 43.679 44.0655 43.8744 43.3106 44.2659C42.5954 44.6369 41.742 44.6391 41.0249 44.2721C41.0207 44.2698 41.0163 44.2677 41.0121 44.2654C39.5765 43.5212 37.8757 43.4858 36.4152 44.1586V35.7734H45.0224C45.7774 35.7734 46.3896 35.1612 46.3896 34.4062C46.3896 33.6512 45.7774 33.039 45.0224 33.039H36.4152V30.305H55.0089V44.1599ZM63.9759 27.5705H60.1478V20.9806H63.9759V27.5705ZM29.1195 10.132C29.8733 10.132 30.4866 10.7454 30.4866 11.4991C30.4866 12.253 29.8733 12.8663 29.1195 12.8663H22.557C21.8031 12.8663 21.1898 12.253 21.1898 11.4991C21.1898 10.7453 21.8031 10.132 22.557 10.132H29.1195ZM13.8536 59.2511H11.5593L14.0834 56.032C14.0956 56.0165 14.1057 56.0001 14.117 55.9844C15.0773 56.2772 16.0727 56.455 17.0799 56.5138L13.8536 59.2511ZM56.1464 59.251L52.9278 56.5201C53.9547 56.4693 54.9522 56.2969 55.9053 56.0157C55.9094 56.0209 55.9125 56.0265 55.9166 56.0318L58.4407 59.251H56.1464Z" fill="#FCB415"/>
<path d="M13.4079 27.9706C13.1537 27.7165 12.801 27.57 12.4414 27.57C12.0818 27.57 11.7291 27.7163 11.4748 27.9706C11.2205 28.2249 11.0742 28.5777 11.0742 28.9372C11.0742 29.2982 11.2204 29.6495 11.4748 29.9038C11.7291 30.158 12.0818 30.3044 12.4414 30.3044C12.801 30.3044 13.1537 30.1581 13.4079 29.9038C13.6622 29.6495 13.8086 29.2968 13.8086 28.9372C13.8086 28.5777 13.6623 28.2251 13.4079 27.9706Z" fill="#FCB415"/>
<path d="M50.9017 33.0386C50.1466 33.0386 49.5345 33.6508 49.5345 34.4058C49.5345 35.1607 50.1466 35.773 50.9017 35.773H50.9145C51.6695 35.773 52.2753 35.1607 52.2753 34.4058C52.2753 33.651 51.6568 33.0386 50.9017 33.0386Z" fill="#FCB415"/>
<path d="M63.1903 8.12294C62.9356 7.75039 62.5133 7.52767 62.0618 7.52767C61.6104 7.52767 61.1881 7.75052 60.9334 8.12294C60.0932 9.35109 58.1396 12.3867 58.1396 14.0416C58.1396 16.2044 59.8991 17.9638 62.0618 17.9638C64.2245 17.9638 65.984 16.2044 65.984 14.0416C65.984 12.3865 64.0304 9.35095 63.1903 8.12294ZM62.0617 15.2296C61.4068 15.2296 60.8739 14.6968 60.8739 14.0466C60.8913 13.6691 61.3796 12.631 62.062 11.4564C62.743 12.6285 63.2308 13.6651 63.2495 14.0449C63.2477 14.6983 62.7156 15.2296 62.0617 15.2296Z" fill="#FCB415"/>
</svg>
