<svg width="70" height="56" viewBox="0 0 70 56" fill="none" xmlns="http://www.w3.org/2000/svg">
<path d="M24.3953 36.3772C25.0726 36.3772 25.6266 36.9295 25.6266 37.6046C25.6266 38.2796 25.0726 38.832 24.3953 38.832C23.7181 38.832 23.164 38.2796 23.164 37.6046C23.164 36.9295 23.7181 36.3772 24.3953 36.3772Z" fill="#FCB415"/>
<path d="M7.18778 46.1809C7.865 46.1809 8.41908 46.7332 8.41908 47.4083C8.41908 48.0834 7.865 48.6357 7.18778 48.6357C6.51055 48.6357 5.95646 48.0834 5.95646 47.4083C5.95646 46.7332 6.51055 46.1809 7.18778 46.1809Z" fill="#FCB415"/>
<path d="M32.9991 44.9535C33.6763 44.9535 34.2304 45.5059 34.2304 46.1809C34.2304 46.856 33.6763 47.4083 32.9991 47.4083C32.3219 47.4083 31.7678 46.856 31.7678 46.1809C31.7678 45.5059 32.3219 44.9535 32.9991 44.9535Z" fill="#FCB415"/>
<path d="M58.8105 47.4083C59.4877 47.4083 60.0418 47.9606 60.0418 48.6357C60.0418 49.3107 59.4877 49.8631 58.8105 49.8631C58.1332 49.8631 57.5792 49.3107 57.5792 48.6357C57.5945 47.9606 58.1332 47.4083 58.8105 47.4083Z" fill="#FCB415"/>
<path d="M19.4701 48.6357C20.1473 48.6357 20.7014 49.188 20.7014 49.8631C20.7014 50.5381 20.1473 51.0905 19.4701 51.0905C18.7929 51.0905 18.2388 50.5381 18.2388 49.8631C18.2542 49.1727 18.7929 48.6357 19.4701 48.6357Z" fill="#FCB415"/>
<path d="M57.5946 20.4519H60.0572C60.7344 20.4519 61.2885 21.0042 61.2885 21.6793C61.2885 22.3543 60.7344 22.9067 60.0572 22.9067H57.5946C56.9173 22.9067 56.3632 22.3543 56.3632 21.6793C56.3632 20.9889 56.9019 20.4519 57.5946 20.4519Z" fill="#FCB415"/>
<path d="M42.8342 29.0282H45.2968C45.9741 29.0282 46.5281 29.5806 46.5281 30.2556C46.5281 30.9307 45.9741 31.483 45.2968 31.483H42.8342C42.157 31.483 41.6029 30.9307 41.6029 30.2556C41.6029 29.5652 42.157 29.0282 42.8342 29.0282Z" fill="#FCB415"/>
<path d="M57.5946 30.2556H60.0572C60.7344 30.2556 61.2885 30.8079 61.2885 31.483C61.2885 32.1581 60.7344 32.7104 60.0572 32.7104H57.5946C56.9173 32.7104 56.3632 32.1581 56.3632 31.483C56.3632 30.7926 56.9019 30.2556 57.5946 30.2556Z" fill="#FCB415"/>
<path d="M55.1319 35.1498H57.5946C58.2718 35.1498 58.8259 35.7021 58.8259 36.3772C58.8259 37.0523 58.2718 37.6046 57.5946 37.6046H55.1319C54.4547 37.6046 53.9006 37.0523 53.9006 36.3772C53.9006 35.7021 54.4547 35.1498 55.1319 35.1498Z" fill="#FCB415"/>
<path fill-rule="evenodd" clip-rule="evenodd" d="M57.5946 20.4519H60.0572C60.7344 20.4519 61.2885 21.0042 61.2885 21.6793C61.2885 22.3543 60.7344 22.9067 60.0572 22.9067H57.5946C56.9173 22.9067 56.3632 22.3543 56.3632 21.6793C56.3632 20.9889 56.9019 20.4519 57.5946 20.4519ZM42.8342 29.0282H45.2968C45.9741 29.0282 46.5281 29.5806 46.5281 30.2556C46.5281 30.9307 45.9741 31.483 45.2968 31.483H42.8342C42.157 31.483 41.6029 30.9307 41.6029 30.2556C41.6029 29.5652 42.157 29.0282 42.8342 29.0282ZM57.5946 30.2556H60.0572C60.7344 30.2556 61.2885 30.8079 61.2885 31.483C61.2885 32.1581 60.7344 32.7104 60.0572 32.7104H57.5946C56.9173 32.7104 56.3632 32.1581 56.3632 31.483C56.3632 30.7926 56.9019 30.2556 57.5946 30.2556ZM55.1319 35.1498H57.5946C58.2718 35.1498 58.8259 35.7021 58.8259 36.3772C58.8259 37.0523 58.2718 37.6046 57.5946 37.6046H55.1319C54.4547 37.6046 53.9006 37.0523 53.9006 36.3772C53.9006 35.7021 54.4547 35.1498 55.1319 35.1498Z" fill="#FCB415"/>
<path fill-rule="evenodd" clip-rule="evenodd" d="M62.8584 0.844446H52.6693L50.2067 0.829102H40.0022C38.8786 0.829102 37.9398 1.68827 37.832 2.79292L36.5084 16.7544H30.5365C30.5365 15.4043 29.4283 14.2996 28.0739 14.2996H25.6113C24.2568 14.2996 23.1486 15.4043 23.1486 16.7544V31.4677C23.1486 32.8178 24.2568 33.9224 25.6113 33.9224H28.0739C29.4283 33.9224 30.5365 32.8178 30.5365 31.4677H35.1077L34.2458 40.5963C33.5994 40.2741 32.8144 40.044 31.737 40.044C29.7361 40.044 28.6587 40.8725 27.8122 41.5322C27.0888 42.0999 26.5501 42.4988 25.3804 42.4988C24.2294 42.4988 23.7042 42.0977 22.9985 41.5586L22.9639 41.5322L22.9381 41.5124C22.0808 40.856 21.0201 40.044 19.0391 40.044C17.0383 40.044 15.9609 40.8725 15.1143 41.5322C14.5295 41.9771 14.0677 42.3147 13.3289 42.4374V41.1026C13.3289 40.1667 13.8522 39.3229 14.6834 38.9087L15.5299 38.4944C17.2076 37.6659 18.2542 35.9783 18.2542 34.1065V31.483C18.2542 30.4244 18.9314 29.5192 19.8857 29.1817C20.3782 29.0129 20.7168 28.568 20.7168 28.0463V28.0003C20.7168 27.1718 19.9011 26.5888 19.1161 26.865C17.1922 27.5247 15.7916 29.3504 15.7916 31.4983V34.1219C15.7916 35.0578 15.2683 35.9016 14.4371 36.3158L13.5906 36.7301C11.9129 37.5585 10.8663 39.2462 10.8663 41.118V41.9771C10.6662 41.8544 10.4815 41.701 10.2814 41.5475C9.43492 40.8878 8.35752 40.0593 6.35664 40.0593C6.21812 40.0593 6.09499 40.0747 5.95646 40.0747V38.5865C5.95646 37.6199 6.44899 36.7147 7.24934 36.1777C8.7423 35.1805 9.635 33.5235 9.635 31.7285V31.5904C9.635 30.4858 10.2507 29.4885 11.2511 28.9976L11.5897 28.8288C13.4213 27.9236 14.5602 26.0825 14.5602 24.042V23.3669C14.5602 21.7713 15.8685 20.4672 17.4692 20.4672C17.9002 20.4672 18.2388 20.1144 18.2388 19.7001V18.7949C18.2388 18.3653 17.8848 18.0278 17.4692 18.0278C14.4987 18.0278 12.0976 20.4212 12.0976 23.3823V24.0573C12.0976 25.162 11.482 26.1592 10.4815 26.6502L10.1429 26.8189C8.31135 27.7241 7.17238 29.5652 7.17238 31.6057V31.7438C7.17238 32.7104 6.67986 33.6156 5.87951 34.1526C4.38654 35.1498 3.49384 36.8068 3.49384 38.6018V40.7958C3.07828 41.0259 2.73967 41.3021 2.41645 41.5475C1.69305 42.1152 1.15435 42.5141 0 42.5141V44.9689C2.00088 44.9689 3.07827 44.1404 3.9248 43.4807C4.6482 42.913 5.1715 42.5141 6.34125 42.5141C7.49228 42.5141 8.01739 42.9152 8.72313 43.4543L8.7577 43.4807C9.60422 44.1404 10.6816 44.9689 12.6825 44.9689C14.6834 44.9689 15.7608 44.1404 16.6073 43.4807C17.3307 42.913 17.8694 42.5141 19.0237 42.5141C20.1748 42.5141 20.6999 42.9152 21.4056 43.4543L21.4402 43.4807L21.466 43.5005C22.3234 44.1568 23.3841 44.9689 25.365 44.9689C27.3802 44.9689 28.4421 44.1413 29.2884 43.4817L29.2898 43.4807C30.0132 42.913 30.5519 42.5141 31.7062 42.5141C32.8573 42.5141 33.3824 42.9152 34.0881 43.4543L34.1227 43.4807L34.1485 43.5005C35.0059 44.1568 36.0665 44.9689 38.0475 44.9689C40.0627 44.9689 41.1246 44.1413 41.9709 43.4817L41.9723 43.4807C42.6957 42.913 43.2344 42.5141 44.3887 42.5141C45.5398 42.5141 46.0649 42.9152 46.7706 43.4543L46.8052 43.4807L46.831 43.5005C47.6884 44.1568 48.7491 44.9689 50.73 44.9689C52.7452 44.9689 53.8071 44.1413 54.6535 43.4817L54.6548 43.4807C55.3782 42.913 55.9169 42.5141 57.0712 42.5141C58.241 42.5141 58.7643 42.9284 59.5031 43.4807L59.5287 43.5003C60.3861 44.1567 61.4469 44.9689 63.4433 44.9689C64.7361 44.9689 65.6442 44.6313 66.3522 44.2018L67.2296 53.5452H0.202287V56H70L65.044 2.8236C64.9362 1.68827 63.9974 0.844446 62.8584 0.844446ZM60.0418 8.1934H63.0739L62.6121 3.28387H60.0418V8.1934ZM45.2968 3.28387V8.1934H47.7595V3.28387H45.2968ZM52.6693 3.28387H50.2067V8.1934H52.6693V3.28387ZM57.5946 3.28387H55.1319V8.1934H57.5946V3.28387ZM42.8342 8.1934V3.28387H40.2638L39.8021 8.1934H42.8342ZM25.6266 16.7544V31.4677H28.0893V16.7544H25.6266ZM30.5365 19.2245V29.0282H35.354L36.2775 19.2245H30.5365ZM63.5202 42.4988C64.69 42.4988 65.2287 42.0999 65.9521 41.5322C65.9656 41.5221 65.9798 41.5113 65.9948 41.4999L65.9973 41.498L65.9983 41.4972C66.0508 41.4572 66.1124 41.4103 66.1829 41.3634L63.9974 17.9818H57.5946C56.9173 17.9818 56.3632 17.4295 56.3632 16.7544C56.3632 16.0793 56.9173 15.527 57.5946 15.527H63.7665L63.3048 10.6175H39.5712L38.2938 24.1034H45.2814C45.9587 24.1034 46.5128 24.6557 46.5128 25.3307C46.5128 26.0058 45.9587 26.5581 45.2814 26.5581H38.0475L36.5699 42.1306C36.9701 42.3607 37.4318 42.4988 38.0937 42.4988C39.2634 42.4988 39.8021 42.0999 40.5255 41.5322C41.372 40.8725 42.4494 40.044 44.4503 40.044C46.4313 40.044 47.4919 40.8561 48.3493 41.5124L48.3751 41.5322L48.4097 41.5586C49.1154 42.0977 49.6405 42.4988 50.7916 42.4988C51.9613 42.4988 52.5 42.0999 53.2234 41.5322C54.0699 40.8725 55.1473 40.044 57.1482 40.044C59.1445 40.044 60.2054 40.8562 61.0628 41.5126L61.0884 41.5322L61.1438 41.5736C61.8539 42.1051 62.3799 42.4988 63.5202 42.4988Z" fill="#FCB415"/>
<path fill-rule="evenodd" clip-rule="evenodd" d="M57.5946 20.4519H60.0572C60.7344 20.4519 61.2885 21.0042 61.2885 21.6793C61.2885 22.3543 60.7344 22.9067 60.0572 22.9067H57.5946C56.9173 22.9067 56.3632 22.3543 56.3632 21.6793C56.3632 20.9889 56.9019 20.4519 57.5946 20.4519ZM42.8342 29.0282H45.2968C45.9741 29.0282 46.5281 29.5806 46.5281 30.2556C46.5281 30.9307 45.9741 31.483 45.2968 31.483H42.8342C42.157 31.483 41.6029 30.9307 41.6029 30.2556C41.6029 29.5652 42.157 29.0282 42.8342 29.0282ZM57.5946 30.2556H60.0572C60.7344 30.2556 61.2885 30.8079 61.2885 31.483C61.2885 32.1581 60.7344 32.7104 60.0572 32.7104H57.5946C56.9173 32.7104 56.3632 32.1581 56.3632 31.483C56.3632 30.7926 56.9019 30.2556 57.5946 30.2556ZM55.1319 35.1498H57.5946C58.2718 35.1498 58.8259 35.7021 58.8259 36.3772C58.8259 37.0523 58.2718 37.6046 57.5946 37.6046H55.1319C54.4547 37.6046 53.9006 37.0523 53.9006 36.3772C53.9006 35.7021 54.4547 35.1498 55.1319 35.1498Z" fill="#FCB415"/>
</svg>
