<svg width="32" height="61" viewBox="0 0 32 61" fill="none" xmlns="http://www.w3.org/2000/svg">
<path d="M31.2071 1.70711C31.5976 1.31658 31.5976 0.683417 31.2071 0.292893C30.8166 -0.0976311 30.1834 -0.0976311 29.7929 0.292893L31.2071 1.70711ZM1 30.5L0.292893 29.7929C-0.0976311 30.1834 -0.0976311 30.8166 0.292893 31.2071L1 30.5ZM29.7929 60.7071C30.1834 61.0976 30.8166 61.0976 31.2071 60.7071C31.5976 60.3166 31.5976 59.6834 31.2071 59.2929L29.7929 60.7071ZM29.7929 0.292893L0.292893 29.7929L1.70711 31.2071L31.2071 1.70711L29.7929 0.292893ZM0.292893 31.2071L29.7929 60.7071L31.2071 59.2929L1.70711 29.7929L0.292893 31.2071Z" fill="white"/>
</svg>
