<svg width="48" height="48" viewBox="0 0 48 48" fill="none" xmlns="http://www.w3.org/2000/svg">
<path d="M47.1865 41.3465H36.9469V36.491C39.1829 36.1903 41.1647 34.7938 42.3171 32.6766C43.8481 32.3266 45.239 31.4402 46.2679 30.1503C47.3848 28.75 48 26.9603 48 25.1109C48 22.2976 46.5594 19.6937 44.2929 18.3411C44.0567 13.6496 40.4401 9.90881 36.0355 9.90881C34.649 9.90881 33.2772 10.2862 32.0683 11.0001C31.6922 11.2221 31.5673 11.707 31.7894 12.0831C32.0116 12.4593 32.4966 12.5841 32.8725 12.362C33.838 11.7918 34.9317 11.4905 36.0355 11.4905C39.7164 11.4905 42.7165 14.7767 42.7235 18.816C42.724 19.1136 42.8916 19.3858 43.1572 19.5202C45.1383 20.5229 46.4183 22.7173 46.4183 25.1108C46.4183 28.1316 44.3725 30.747 41.6596 31.1945C41.4055 31.2365 41.1879 31.3994 41.076 31.6314C40.2276 33.3909 38.6946 34.5803 36.9469 34.8899V27.892L40.839 24.3129C41.1605 24.0172 41.1815 23.517 40.8858 23.1955C40.59 22.874 40.0899 22.8529 39.7684 23.1487L36.9469 25.7432V20.464C36.9469 20.0272 36.5928 19.6731 36.156 19.6731C35.7192 19.6731 35.3652 20.0272 35.3652 20.464V30.0359L32.5437 27.4413C32.2222 27.1456 31.7218 27.1666 31.4263 27.4881C31.1306 27.8096 31.1516 28.3098 31.473 28.6055L35.3652 32.1846V34.927C33.5004 34.6867 31.8557 33.4528 30.9733 31.5856C30.8678 31.3624 30.6641 31.2013 30.4227 31.1501C27.7984 30.5925 25.8938 28.0528 25.8938 25.1108C25.8938 22.7911 27.0636 20.6915 28.9467 19.6319C29.1987 19.49 29.3532 19.222 29.3496 18.933C29.3494 18.911 29.3487 18.8893 29.3479 18.8676C29.3474 18.8551 29.347 18.8426 29.347 18.8301C29.347 17.1827 29.8332 15.626 30.7529 14.3287C31.0056 13.9724 30.9215 13.4787 30.5653 13.2262C30.2089 12.9735 29.7152 13.0578 29.4628 13.4139C28.4149 14.8918 27.8333 16.6426 27.771 18.4963C25.6262 19.8949 24.3122 22.3862 24.3122 25.1109C24.3122 28.655 26.5622 31.7422 29.7158 32.6054C30.9028 34.8409 33.0022 36.2876 35.3654 36.5191V41.3465H34.8645C34.748 39.2768 33.3332 37.4762 31.3631 36.8683C30.7449 35.553 29.5441 34.5994 28.1322 34.2902C27.6692 32.186 25.775 30.6169 23.5677 30.6169C21.8656 30.6169 20.3221 31.5317 19.4994 32.9879C17.8791 33.0494 16.4223 33.915 15.5855 35.256C15.064 33.8213 13.7281 32.7766 12.1639 32.6643V30.585C14.2989 30.2882 16.1894 28.9529 17.2939 26.9327C18.7612 26.5937 20.0938 25.7425 21.0803 24.5058C22.1545 23.1592 22.746 21.4383 22.746 19.66C22.746 16.9611 21.3671 14.4624 19.1959 13.159C18.9603 8.658 15.4868 5.07207 11.2574 5.07207C9.63504 5.07207 8.07458 5.59528 6.74455 6.58538C6.3943 6.84609 6.32164 7.34166 6.58236 7.692C6.84308 8.04225 7.33855 8.11491 7.68899 7.85419C8.74386 7.06875 9.97779 6.65372 11.2574 6.65372C14.7628 6.65372 17.6201 9.78478 17.6267 13.6334C17.6273 13.9311 17.7948 14.2032 18.0604 14.3376C19.9459 15.2919 21.1641 17.3811 21.1641 19.66C21.1641 22.5358 19.2177 25.0255 16.6365 25.4512C16.3825 25.4932 16.1647 25.6561 16.0529 25.8881C15.2518 27.5493 13.81 28.677 12.1638 28.9826V22.3376L15.8793 18.9211C16.2007 18.6254 16.2216 18.1251 15.926 17.8037C15.6304 17.4821 15.1301 17.4611 14.8086 17.7569L12.1638 20.1889V15.2114C12.1638 14.7746 11.8097 14.4205 11.3729 14.4205C10.9361 14.4205 10.582 14.7746 10.582 15.2114V24.2987L7.93723 21.8666C7.61567 21.5708 7.11542 21.5919 6.81983 21.9134C6.52414 22.2348 6.54514 22.7352 6.86661 23.0308L10.5819 26.4473V29.0196C8.82355 28.7791 7.27517 27.609 6.44127 25.8448C6.3358 25.6216 6.13208 25.4604 5.89068 25.4092C3.39384 24.8785 1.58156 22.4608 1.58156 19.66C1.58156 17.4512 2.69484 15.4524 4.48705 14.4439C4.73887 14.3021 4.89337 14.0346 4.88999 13.7456C4.8898 13.7242 4.88915 13.7029 4.8884 13.6816C4.88812 13.6701 4.88755 13.6586 4.88755 13.6469C4.88755 12.6687 5.06783 11.7228 5.42333 10.8354C5.52908 10.5718 5.65086 10.3129 5.78558 10.0656C5.99446 9.68193 5.8529 9.20175 5.46927 8.99287C5.08565 8.78381 4.60537 8.92547 4.39659 9.30909C4.23243 9.61059 4.08393 9.92615 3.9553 10.2472C3.56568 11.2194 3.34977 12.2477 3.31199 13.3086C1.25784 14.6555 0 17.0461 0 19.66C0 23.0628 2.15793 26.0281 5.18399 26.8637C6.32193 28.997 8.32526 30.3811 10.582 30.6128V32.8749C9.71651 33.1773 8.97579 33.7753 8.49926 34.5784C6.57871 34.6876 5.02687 36.1061 4.72612 37.9768C3.30965 38.6058 2.25656 39.8534 1.86881 41.3463H0.790873C0.354093 41.3463 0 41.7004 0 42.1372C0 42.574 0.354093 42.9281 0.790873 42.9281H2.52337H20.3765H34.0495H47.1865C47.6233 42.9281 47.9774 42.574 47.9774 42.1372C47.9774 41.7004 47.6232 41.3465 47.1865 41.3465ZM3.52752 41.3465C3.90477 40.3851 4.69837 39.6193 5.70936 39.2918C6.02746 39.1888 6.24636 38.8969 6.25621 38.5628C6.29605 37.2118 7.38627 36.1534 8.73823 36.1534C8.79242 36.1534 8.85167 36.1559 8.92451 36.1613C9.26333 36.1858 9.58029 35.9923 9.71183 35.6789C10.0805 34.802 10.9331 34.2353 11.8841 34.2353C13.1053 34.2353 14.1362 35.188 14.231 36.4042C14.2614 36.7924 14.5698 37.1008 14.9581 37.1312C15.1737 37.148 15.3822 37.1953 15.5796 37.2675C15.5805 37.2678 15.5812 37.2683 15.5821 37.2686C15.6187 37.2821 15.6548 37.2966 15.6906 37.3118C15.6983 37.3151 15.7061 37.3183 15.7138 37.3217C15.7473 37.3363 15.7803 37.3515 15.8129 37.3676C15.8239 37.3731 15.8348 37.3788 15.8458 37.3844C15.8909 37.4075 15.935 37.4321 15.9783 37.4578C16.002 37.472 16.0258 37.4857 16.0488 37.5007C16.0664 37.5119 16.0833 37.524 16.1003 37.5356C16.1263 37.5533 16.1521 37.5713 16.1774 37.59C16.1917 37.6007 16.2059 37.6114 16.2198 37.6224C16.2504 37.6462 16.2806 37.6708 16.3099 37.6962C16.3181 37.7031 16.3263 37.7098 16.3343 37.7168C16.4122 37.7858 16.4856 37.8601 16.554 37.9391C16.5602 37.9464 16.5664 37.9537 16.5726 37.9611C16.6014 37.9951 16.6292 38.0301 16.6561 38.0658C16.6612 38.0727 16.6666 38.0794 16.6716 38.0863C16.733 38.17 16.789 38.2581 16.8392 38.3501C16.8459 38.3623 16.8522 38.3747 16.8587 38.3871C16.8766 38.4211 16.8935 38.4558 16.9097 38.491C16.9162 38.5048 16.9227 38.5187 16.9289 38.5327C16.9488 38.5783 16.9678 38.6245 16.9849 38.6714C16.9856 38.6731 16.9862 38.6746 16.9868 38.6763C17.0795 38.9324 17.2976 39.1228 17.5638 39.1802C17.6345 39.1954 17.7038 39.214 17.772 39.2349C17.7942 39.2417 17.8157 39.2501 17.8378 39.2575C17.8832 39.2727 17.9283 39.2881 17.9725 39.3057C17.998 39.316 18.0228 39.3275 18.0479 39.3385C18.0873 39.3557 18.1266 39.3732 18.1651 39.3924C18.1909 39.4052 18.2161 39.4191 18.2414 39.4328C18.2777 39.4524 18.3137 39.4726 18.3489 39.4939C18.3739 39.509 18.3986 39.5247 18.4231 39.5406C18.4572 39.5628 18.4908 39.586 18.5238 39.6098C18.5474 39.6268 18.5706 39.6437 18.5935 39.6614C18.6262 39.6867 18.6579 39.7131 18.6893 39.7398C18.7106 39.7579 18.7322 39.7759 18.7529 39.7947C18.785 39.8239 18.8158 39.8544 18.8464 39.885C18.8645 39.9031 18.8833 39.9208 18.9008 39.9396C18.9353 39.9762 18.9679 40.0145 19.0003 40.0529C19.0123 40.0673 19.025 40.0808 19.0367 40.0953C19.0799 40.1491 19.121 40.2044 19.1598 40.2615C19.168 40.2734 19.175 40.2862 19.1829 40.2982C19.2128 40.3437 19.242 40.3898 19.2691 40.4371C19.2812 40.4586 19.2922 40.4809 19.3038 40.5027C19.3248 40.5419 19.3455 40.5812 19.3645 40.6214C19.3763 40.6465 19.3868 40.6721 19.3978 40.6974C19.4145 40.7359 19.4306 40.7744 19.4454 40.8138C19.4555 40.8408 19.4648 40.8681 19.4741 40.8955C19.4873 40.9345 19.4997 40.9737 19.5111 41.0135C19.5192 41.0416 19.5267 41.0699 19.5339 41.0983C19.5439 41.1387 19.5527 41.1792 19.5609 41.2201C19.5666 41.2486 19.5721 41.2771 19.5769 41.306C19.5792 41.3194 19.5803 41.333 19.5823 41.3465H3.52752ZM21.177 41.3466V41.3465C21.1763 41.339 21.1747 41.3316 21.1741 41.3242C21.1651 41.2298 21.1533 41.1359 21.1379 41.0432C21.1369 41.0378 21.1357 41.0323 21.1348 41.0269C21.1186 40.9323 21.0994 40.8387 21.0769 40.746C21.076 40.742 21.0752 40.738 21.0742 40.7341C21.0516 40.6423 21.0255 40.5519 20.997 40.4624C20.9939 40.4529 20.9911 40.443 20.9879 40.4335C20.9597 40.3474 20.9284 40.2627 20.8948 40.1788C20.8899 40.1667 20.8852 40.1546 20.8802 40.1426C20.8465 40.0605 20.81 39.9799 20.7712 39.9005C20.7651 39.8879 20.759 39.8755 20.7527 39.863C20.7132 39.7841 20.6714 39.7064 20.6271 39.6303C20.6204 39.6188 20.6136 39.6074 20.6068 39.5959C20.5612 39.5191 20.5135 39.4437 20.4631 39.3702C20.4571 39.3612 20.4507 39.3524 20.4445 39.3436C20.392 39.2681 20.3375 39.1939 20.2803 39.122C20.2768 39.1175 20.2729 39.1132 20.2694 39.1086C20.2096 39.034 20.1475 38.9612 20.0827 38.8908C20.082 38.8901 20.0813 38.8892 20.0806 38.8885C20.0165 38.8189 19.9497 38.7517 19.881 38.6864C19.875 38.6807 19.8691 38.6748 19.8631 38.6692C19.7971 38.6072 19.7286 38.5476 19.6585 38.4898C19.6491 38.4822 19.6398 38.4743 19.6304 38.4665C19.5614 38.4107 19.4905 38.3572 19.4178 38.3057C19.4066 38.2978 19.3953 38.2898 19.3841 38.2819C19.3115 38.2315 19.2372 38.1833 19.1612 38.1374C19.1493 38.1303 19.1373 38.1232 19.1254 38.1162C19.0485 38.0707 18.9701 38.0275 18.8901 37.9869C18.8792 37.9813 18.868 37.9761 18.8569 37.9707C18.7744 37.9299 18.6906 37.8912 18.605 37.8557C18.5974 37.8525 18.5897 37.8498 18.5822 37.8467C18.4924 37.8103 18.4014 37.7762 18.3086 37.7459C18.3083 37.7458 18.3079 37.7457 18.3076 37.7455C18.3035 37.7373 18.2989 37.7297 18.2949 37.7217C18.2629 37.6576 18.2295 37.5947 18.1942 37.5328C18.1762 37.5013 18.157 37.4704 18.1382 37.4393C18.1155 37.4019 18.0925 37.3646 18.0686 37.3279C18.0456 37.2926 18.022 37.2579 17.9978 37.2234C17.9768 37.1935 17.9552 37.164 17.9335 37.1347C17.9061 37.0977 17.8787 37.0608 17.85 37.0248C17.8331 37.0037 17.8154 36.9835 17.7981 36.9628C17.7315 36.8827 17.6618 36.8053 17.589 36.7307C17.5764 36.7179 17.5644 36.7046 17.5517 36.6919C17.5156 36.6559 17.4782 36.6214 17.4407 36.5868C17.419 36.5669 17.3974 36.547 17.3753 36.5275C17.3395 36.496 17.3031 36.465 17.266 36.4347C17.239 36.4125 17.2115 36.3913 17.184 36.3698C17.1496 36.3433 17.1154 36.3164 17.0801 36.2909C17.0304 36.2549 16.9796 36.2206 16.9282 36.187C16.9145 36.178 16.9015 36.168 16.8876 36.1592C17.464 35.1855 18.5191 34.5665 19.6847 34.5665C19.7561 34.5665 19.8335 34.5698 19.9284 34.5767C20.2667 34.6019 20.5841 34.4076 20.7156 34.0944C21.1995 32.943 22.319 32.1989 23.5677 32.1989C25.1711 32.1989 26.5245 33.4499 26.649 35.0469C26.6793 35.4351 26.9878 35.7435 27.3761 35.7738C28.5824 35.8679 29.628 36.6643 30.0402 37.8028C30.1329 38.059 30.3509 38.2494 30.6172 38.3068C32.0763 38.6212 33.1587 39.8759 33.2803 41.3469H21.177V41.3466Z" fill="white"/>
</svg>
