<svg width="40" height="40" viewBox="0 0 40 40" fill="none" xmlns="http://www.w3.org/2000/svg">
<path d="M38.2578 37.5156H34.9922V31.6523C34.9922 31.2424 34.6599 30.9102 34.25 30.9102C33.8402 30.9102 33.5078 31.2424 33.5078 31.6523V37.5156H24.6016V23.4141C24.6016 23.0042 24.2693 22.6719 23.8594 22.6719H16.1407C15.7309 22.6719 15.3985 23.0042 15.3985 23.4141V37.5156H6.49227V20.7421H6.77786C6.97469 20.7421 7.16343 20.6639 7.30266 20.5247L20.0001 7.82735L32.6974 20.5247C32.8367 20.6639 33.0254 20.7421 33.2222 20.7421H33.5078V26.3085C33.5078 26.7184 33.8402 27.0507 34.25 27.0507C34.6599 27.0507 34.9922 26.7184 34.9922 26.3085V20.7421H38.2578C38.558 20.7421 38.8286 20.5613 38.9435 20.284C39.0584 20.0067 38.9948 19.6874 38.7826 19.4751L20.5249 1.21737C20.235 0.927544 19.7652 0.927544 19.4752 1.21737L12.4986 8.19392C12.2088 8.48374 12.2088 8.95369 12.4986 9.24352C12.7885 9.53342 13.2585 9.53342 13.5483 9.24352L20.0001 2.79177L36.466 19.2578H33.5297L20.5249 6.25295C20.235 5.96313 19.7652 5.96313 19.4752 6.25295L6.47038 19.2578H3.53407L9.39207 13.3998C9.68189 13.11 9.68189 12.6401 9.39207 12.3502C9.10224 12.0604 8.63229 12.0603 8.34239 12.3502L1.21741 19.4751C1.00522 19.6874 0.941612 20.0066 1.0565 20.284C1.17139 20.5613 1.44207 20.7421 1.74228 20.7421H5.0079V37.5155H1.74228C1.33245 37.5155 1.0001 37.8478 1.0001 38.2577C1.0001 38.6676 1.33245 38.9999 1.74228 38.9999H5.75009H16.1407H23.8594H34.25H38.2578C38.6677 38.9999 39 38.6676 39 38.2577C39 37.8478 38.6677 37.5156 38.2578 37.5156ZM23.1172 37.5156H16.8829V24.1563H23.1172V37.5156Z" fill="white" stroke="white" stroke-width="0.2"/>
<path d="M31.1328 22.6719H26.9766C26.5667 22.6719 26.2344 23.0042 26.2344 23.4141V30.8359C26.2344 31.2458 26.5667 31.5781 26.9766 31.5781H31.1328C31.5426 31.5781 31.875 31.2458 31.875 30.8359V23.4141C31.875 23.0042 31.5426 22.6719 31.1328 22.6719ZM30.3906 30.0937H27.7187V24.1562H30.3906V30.0937Z" fill="white" stroke="white" stroke-width="0.2"/>
<path d="M13.0235 22.6719H8.86725C8.45741 22.6719 8.12506 23.0042 8.12506 23.4141V30.8359C8.12506 31.2458 8.45741 31.5781 8.86725 31.5781H13.0235C13.4333 31.5781 13.7657 31.2458 13.7657 30.8359V23.4141C13.7657 23.0042 13.4333 22.6719 13.0235 22.6719ZM12.2813 30.0937H9.60943V24.1562H12.2813V30.0937Z" fill="white" stroke="white" stroke-width="0.2"/>
<path d="M20 13.1956C18.1175 13.1956 16.5859 14.7271 16.5859 16.6096C16.5859 18.4921 18.1175 20.0237 20 20.0237C21.8825 20.0237 23.414 18.4921 23.414 16.6096C23.414 14.7271 21.8825 13.1956 20 13.1956ZM20 18.5393C18.9359 18.5393 18.0703 17.6736 18.0703 16.6096C18.0703 15.5456 18.9359 14.6799 20 14.6799C21.0641 14.6799 21.9297 15.5456 21.9297 16.6096C21.9297 17.6736 21.0641 18.5393 20 18.5393Z" fill="white" stroke="white" stroke-width="0.2"/>
<path d="M19.1145 30.3111C18.9765 30.173 18.785 30.0936 18.5898 30.0936C18.3946 30.0936 18.2032 30.173 18.0651 30.3111C17.9271 30.4491 17.8477 30.6406 17.8477 30.8358C17.8477 31.031 17.927 31.2225 18.0651 31.3605C18.2032 31.4986 18.3946 31.578 18.5898 31.578C18.785 31.578 18.9765 31.4986 19.1145 31.3605C19.2525 31.2225 19.332 31.031 19.332 30.8358C19.332 30.6406 19.2526 30.4491 19.1145 30.3111Z" fill="white" stroke="white" stroke-width="0.2"/>
<path d="M11.3958 10.3464C11.2578 10.2083 11.0663 10.1289 10.8712 10.1289C10.676 10.1289 10.4845 10.2083 10.3464 10.3464C10.2084 10.4844 10.129 10.6759 10.129 10.8711C10.129 11.0663 10.2083 11.2578 10.3464 11.3958C10.4845 11.5339 10.676 11.6133 10.8712 11.6133C11.0663 11.6133 11.2578 11.5339 11.3958 11.3958C11.5338 11.2578 11.6133 11.0663 11.6133 10.8711C11.6133 10.6759 11.5339 10.4844 11.3958 10.3464Z" fill="white" stroke="white" stroke-width="0.2"/>
<path d="M34.7746 28.2574C34.6366 28.1194 34.4451 28.0399 34.2499 28.0399C34.0547 28.0399 33.8633 28.1193 33.7252 28.2574C33.5872 28.3962 33.5078 28.5869 33.5078 28.7821C33.5078 28.9773 33.5871 29.1688 33.7252 29.3076C33.8633 29.4456 34.0547 29.5243 34.2499 29.5243C34.4451 29.5243 34.6366 29.4456 34.7746 29.3076C34.9126 29.1688 34.9921 28.978 34.9921 28.7821C34.9921 28.5869 34.9127 28.3954 34.7746 28.2574Z" fill="white" stroke="white" stroke-width="0.2"/>
</svg>
