<svg width="170" height="94" viewBox="0 0 170 94" fill="none" xmlns="http://www.w3.org/2000/svg">
<g clip-path="url(#clip0)">
<path d="M40.6548 76.6966C40.1739 74.6066 36.8723 73.0004 33.4836 74.4389L33.5127 74.4066C33.5127 74.4066 29.9626 75.9257 29.3172 76.2999C26.5265 77.8728 23.5885 79.1691 20.5453 80.1702C16.8274 81.3732 12.5802 81.7022 11.0956 80.6346C8.61701 78.8543 9.39803 74.5582 11.7927 71.5781C14.8281 67.7151 19.2345 65.1674 24.0985 64.4632C26.0349 64.0762 27.5905 64.7857 27.0709 66.5951C26.6159 68.2529 23.8436 69.6688 23.8436 69.6688C23.4658 69.9297 23.1907 70.314 23.0658 70.7557C22.9109 71.4394 23.5305 73.0133 24.7117 73.3971C26.7643 72.994 33.6482 69.2624 30.3209 63.2989C29.13 61.4734 26.0027 61.1218 23.6015 61.5508C11.3732 63.744 6.00933 72.2715 5.14763 74.0777C4.33111 75.7871 2.35598 80.8507 5.4284 83.576C10.9149 88.4623 20.4549 83.9695 24.9861 81.2313C26.5213 80.3231 28.0069 79.3337 29.4366 78.2673C28.5232 80.2508 28.2037 82.9665 29.5786 83.9953C30.6888 84.8274 34.2195 85.3564 37.4145 82.9665C38.9572 81.8247 41.1647 79.0671 40.6548 76.6966ZM37.3113 79.1381C36.8272 79.9444 34.0613 82.3795 32.9221 81.2345C32.0991 80.4121 32.9576 78.8446 33.5676 78.1576C35.8138 75.6064 38.3731 77.319 37.3113 79.1381ZM67.1189 75.2678C63.6173 73.352 60.0382 76.4611 59.3733 77.461C59.3249 77.5319 59.2797 77.6061 59.2346 77.6803C58.1057 78.9425 56.6693 79.8914 55.0648 80.4346C51.1533 81.8699 49.6913 79.1123 49.5364 78.7994C49.3815 78.177 53.9095 77.5867 56.8947 75.629C58.8989 73.9616 56.7366 72.5457 55.6038 73.1165C55.1391 73.3036 53.7094 73.9874 52.1215 74.6389C50.6067 75.3054 49.0171 75.7873 47.387 76.0741C47.387 76.0741 51.1791 70.5138 50.5885 70.1396C49.6123 69.6917 48.5036 69.6249 47.4806 69.9526C46.4543 70.3557 40.0577 83.1245 40.2385 83.6212C40.4192 84.1179 43.6659 84.4049 44.1113 83.3987C44.5566 82.3924 45.6959 79.9799 45.6959 79.9799C45.6959 79.9799 48.5359 83.0471 51.1501 83.3245C52.5282 83.4728 55.223 83.0019 58.1728 80.2379C57.9565 81.3506 58.105 82.4053 59.0119 82.96C60.8741 84.0985 64.4596 83.7857 66.4348 82.044C70.4818 78.4801 68.4551 75.9838 67.1189 75.2581V75.2678ZM65.16 80.1669C64.1917 80.8475 62.3748 81.1797 61.9326 80.4604C61.6099 79.9379 62.3974 78.9575 63.372 78.2737C64.4822 77.49 65.7473 77.1836 66.3121 77.8157C66.8769 78.4479 66.2411 79.409 65.16 80.1605V80.1669ZM113.221 63.2182C110.362 63.1247 100.26 62.9731 100.26 62.9731C100.26 62.9731 98.9695 62.8409 97.1525 64.4922C95.087 66.3725 93.6025 71.978 92.8699 73.3778C92.1373 74.7776 88.939 81.7247 88.3064 82.8891C86.4055 86.3723 91.7919 85.9337 92.6246 84.2985C93.5928 82.0634 99.0793 69.3656 100.27 67.6852C101.819 65.5856 110.462 66.1822 109.023 68.685C107.996 71.1072 103.491 80.9765 103.336 83.1987C103.181 85.4209 106.241 86.3659 106.847 85.2177C107.361 84.2695 114.248 67.8013 114.806 66.6854C115.209 65.8823 116.081 63.3053 113.221 63.2118V63.2182ZM164.413 79.5832C163.513 79.1187 157.162 80.8733 151.991 80.8733C147.906 80.8733 145.834 78.664 145.86 78.5414C145.885 78.4189 151.072 77.4997 153.76 74.5228C154.512 73.6906 153.263 73.1552 152.175 72.6586C151.088 72.1619 150.239 73.5294 147.98 74.8356C145.721 76.1418 144.507 75.5742 144.507 75.5742C144.507 75.5742 147.583 69.8526 147.928 68.4077C148.274 66.9628 146.689 66.3371 145.688 66.5467C144.688 66.7563 137.882 80.6346 138.036 82.5246C138.191 84.4146 140.489 84.2662 141.235 83.7373C141.98 83.2084 143.4 79.7186 143.429 79.3381C143.504 79.7251 144.646 83.647 151.74 83.6115C160.16 83.5696 166.198 81.4054 166.227 80.9378C166.256 80.4701 165.314 80.0444 164.413 79.5767V79.5832ZM138.198 75.7903C137.743 74.5647 135.293 72.865 132.608 74.7517C132.821 73.9229 132.879 73.3939 132.727 73.2907C132.001 72.8005 129.978 72.8553 129.62 73.4197C128.299 75.6199 127.094 77.8871 126.008 80.2121C125.747 80.5346 124.036 82.4698 122.439 82.0699C121.677 81.8763 121.516 80.7249 121.826 80.1831C122.61 78.8123 123.933 77.5093 122.439 75.1807C121.887 74.3228 120.289 73.5165 117.859 73.5907C116.914 73.6493 115.979 73.8126 115.071 74.0777C114.445 74.2712 114.377 74.8936 114.57 75.5226C114.764 76.1515 115.19 76.5418 115.819 76.3482C116.449 76.1547 119.002 75.2001 119.615 76.2321C119.723 76.4351 119.769 76.6649 119.749 76.8939C119.729 77.1228 119.643 77.3411 119.502 77.5222C118.734 77.3625 117.949 77.3007 117.165 77.3384C113.538 77.4803 111.398 79.2735 110.801 80.5636C110.204 81.8537 110.801 83.347 112.205 84.1598C113.864 85.1274 117.065 85.4499 119.883 82.9923C120.496 84.1663 121.429 84.4727 122.787 84.3275C123.403 84.2627 124 84.0752 124.543 83.776C123.252 87.3593 122.258 91.1199 122.164 92.6132C122.061 94.2871 125.276 94.3484 125.643 93.3034C126.134 91.9198 128.038 87.3044 129.758 82.8504C131.508 83.976 134.428 83.6309 136.184 81.9215C137.723 80.4346 138.811 77.4803 138.198 75.7903ZM114.774 80.6927C114.967 80.125 115.497 79.5735 117.407 79.4929C117.91 79.468 118.414 79.4961 118.911 79.5767C118.263 81.6119 114.312 82.0473 114.771 80.6927H114.774ZM130.646 80.1541C131.291 78.4156 131.785 77.4545 132.198 76.1612C132.937 75.7484 133.686 75.5161 134.135 75.7096C136.074 76.5385 133.557 80.6507 130.646 80.1541ZM78.5695 73.0585H78.5534C77.7111 73.1004 77.1011 73.4326 76.2233 74.1712C75.5229 74.7582 71.166 79.8476 69.4943 80.9668C69.4265 81.012 68.8907 81.3667 68.5454 81.5796C68.2001 81.7925 67.2061 82.3666 67.1254 82.8213C67.1198 82.9947 67.1509 83.1673 67.2165 83.3279C67.2821 83.4885 67.3808 83.6335 67.5062 83.7534C67.6376 83.8931 67.7984 84.0017 67.9771 84.0714C68.1557 84.1412 68.3477 84.1703 68.539 84.1566C71.1822 83.9437 73.7576 81.815 76.7493 77.519C76.7493 77.519 76.8946 77.3094 76.9881 77.1965L77.0236 77.1513C77.2108 76.9223 77.4206 76.9094 77.4755 77.0223C77.4884 77.1692 77.4786 77.3171 77.4464 77.461C77.0946 79.1865 76.0942 80.7862 75.339 82.1086C75.1841 82.3827 75.0356 82.6407 74.9033 82.8794C74.843 82.9709 74.8061 83.0758 74.796 83.185C74.7858 83.2941 74.8027 83.404 74.8452 83.5051C74.8989 83.5995 74.9743 83.6797 75.0653 83.7392C75.1562 83.7986 75.26 83.8355 75.368 83.847C76.42 84.0112 77.4957 83.9306 78.5114 83.6115C78.8183 83.444 79.0544 83.1714 79.1763 82.8439C80.5382 79.6187 80.6092 78.1834 80.6415 75.6419C80.6415 74.842 80.493 74.068 79.9605 73.5745C79.7768 73.3965 79.5587 73.2577 79.3196 73.1668C79.0804 73.0758 78.8252 73.0346 78.5695 73.0456V73.0585Z" fill="black"/>
<path d="M6.51922 18.842C6.58376 19.6192 5.49938 20.8997 5.55101 21.677C5.55101 21.7447 5.70915 24.1217 5.17987 25.2828L72.8475 25.0667L84.9145 23.6702H159.382C159.873 22.7542 160.131 21.7544 160.086 20.0611C160.075 19.7241 160.036 19.3886 159.969 19.0581C159.654 19.0137 159.363 18.8622 159.146 18.6291C158.824 18.2098 159.034 17.6164 159.205 17.1197C159.376 16.623 159.456 15.9618 159.021 15.6683C158.862 15.5619 158.656 15.5232 158.533 15.3748C158.211 14.9813 158.83 14.4976 159.327 14.3847C159.824 14.2718 160.483 13.9105 160.26 13.4526C160.079 13.0784 159.466 13.1526 159.221 12.8075C159.137 12.659 159.115 12.4833 159.161 12.319C159.206 12.1546 159.315 12.0148 159.463 11.9302C159.76 11.7662 160.091 11.6713 160.431 11.6529C160.702 11.6117 160.97 11.5491 161.231 11.4658C161.485 10.592 161.624 9.68884 161.644 8.77917C161.612 6.55053 157.875 4.50571 155.267 3.88969C153.999 3.58974 152.653 3.61877 151.33 3.65424L132.837 4.15094C125.892 4.3251 119.182 5.99255 112.279 5.31848C106.76 4.77986 101.074 2.21256 95.5905 1.44817C68.3389 -2.32537 48.4004 2.47058 20.7647 2.65764C19.6093 2.65764 13.7259 2.1545 13.5354 2.1545C13.1546 2.28674 12.8319 2.72537 13.0094 3.10273C13.1094 3.31237 13.3321 3.42526 13.4806 3.58975C13.629 3.75423 13.7355 4.05418 13.5709 4.21222C13.4781 4.28083 13.3632 4.31296 13.2482 4.30252C12.8179 4.31542 12.3876 4.31542 11.9573 4.30252C9.16886 4.85404 7.97152 7.52778 7.64878 7.52778C7.3264 7.46454 6.99208 7.53182 6.71931 7.71484C6.33849 8.03736 6.4224 9.063 6.76449 9.44358C7.10659 9.82416 7.28732 11.2046 6.71286 11.5206C6.59022 11.5884 6.44821 11.6658 6.40949 11.8109C6.35785 12.0206 6.55794 12.1979 6.73222 12.3076C6.96782 12.456 7.20341 12.285 7.43901 12.4334C7.55968 12.4966 7.66196 12.5899 7.73592 12.7043C7.89729 13.0075 7.6391 13.3945 7.33896 13.5235C7.03882 13.6525 6.69349 13.63 6.37076 13.7364C6.20682 13.7812 6.0653 13.8851 5.97351 14.028C5.88173 14.171 5.84619 14.3428 5.87375 14.5104C5.91206 14.6169 5.97773 14.7115 6.06416 14.7846C6.66445 15.3329 7.67783 15.1781 8.18452 15.8199C8.31094 15.9868 8.39145 16.1839 8.41806 16.3916C8.44467 16.5992 8.41645 16.8102 8.33621 17.0036C8.17807 17.3745 6.99686 17.8034 6.51922 18.842Z" fill="#B8E4FA"/>
<path d="M159.856 23.825L85.8827 23.6702L73.5574 24.7926H5.40577C4.80549 26.1085 3.69206 26.9632 1.88475 28.8241C1.59106 29.1273 6.53857 33.5814 7.47772 37.1034C8.9978 42.7959 8.31683 52.0588 8.01669 52.691C6.91294 55.0164 7.91019 56.0775 10.2758 58.0675C12.6802 59.535 22.4235 56.3484 28.8685 56.6968C38.1342 57.1935 39.7963 59.006 49.0781 59.277C53.9869 59.4189 60.348 58.7512 65.2535 58.919C71.9632 59.1479 74.4062 56.8709 81.0029 58.0675C91.4175 59.9543 106.176 54.7519 116.504 56.2162C120.98 56.8612 125.45 54.4165 130.026 54.1198C138.285 53.5812 146.689 55.955 154.793 54.5358C155.719 54.3746 156.694 54.1295 157.291 53.5263C157.888 52.9232 157.978 51.9718 157.994 51.1364C158.059 47.9305 158.833 39.6965 158.64 35.8229C158.398 31.2366 154.551 31.8462 157.565 27.2212C158.54 25.7021 159.334 24.8216 159.856 23.825Z" fill="#6DCEF5"/>
<path d="M119.934 25.4376C118.937 25.8182 118.505 27.3211 116.801 27.734C116.304 27.8533 113.935 28.1565 113.573 28.1919C113.212 28.2274 107.151 27.9307 106.686 27.8855C106.221 27.8404 73.6253 28.9563 73.6253 28.9563L45.7701 29.8755L36.2817 30.3335L21.5877 29.5691C21.5877 29.5691 9.19793 29.3917 3.36936 30.0142C3.43437 30.267 3.44754 30.5303 3.40809 30.7883C3.27899 31.2172 3.1499 31.9945 2.92399 32.1493C2.69807 32.3041 2.82717 33.2008 3.31127 34.1329C3.3564 34.3298 3.38127 34.5308 3.3855 34.7328C3.29656 34.6733 3.19233 34.6408 3.08535 34.6392C2.90335 34.6725 2.73879 34.7685 2.62031 34.9105C2.50184 35.0526 2.43695 35.2316 2.43695 35.4165C2.43695 35.6014 2.50184 35.7805 2.62031 35.9225C2.73879 36.0645 2.90335 36.1605 3.08535 36.1938C3.25281 36.1825 3.41049 36.1109 3.52917 35.9923C3.64785 35.8737 3.71949 35.7161 3.73082 35.5487C4.06272 35.9232 4.45961 36.2346 4.90234 36.4679C5.0153 36.5228 6.83875 36.5744 7.0453 36.8453C7.1518 37.0969 6.60961 38.6643 6.54829 39.1514C6.48697 39.6384 5.64463 40.7059 5.25735 42.4572C4.87007 44.2085 7.22603 45.0374 7.35512 46.3469C7.30026 47.4112 6.49342 48.4175 6.06419 49.6109C6.32936 49.8358 6.63046 50.0146 6.95493 50.1398C7.6004 50.3043 8.29427 50.1204 8.94297 49.9366C10.2049 49.5786 11.8476 49.3367 13.4257 49.069C14.3552 49.856 15.0685 50.3591 15.3621 50.4365C17.1501 50.9332 17.4986 51.9105 22.7011 51.3009C27.9036 50.6913 31.2116 50.2204 31.2116 50.2204L28.023 49.4109C28.023 49.4109 29.2655 49.169 32.3121 48.382C35.3587 47.5951 42.6912 46.2437 44.6793 45.3277C46.6673 44.4117 50.0367 43.3377 50.6499 42.5733C51.263 41.809 51.4147 41.351 52.6411 40.7382C53.8675 40.1254 54.442 40.4834 54.6324 39.9738C54.7389 39.69 51.4438 38.5998 50.5014 37.9838C49.2105 37.1485 49.1362 36.726 48.5263 36.268C47.9163 35.81 47.7485 35.5391 48.5263 35.5391C49.3041 35.5391 53.6319 35.9713 54.1902 36.3035C54.7486 36.6357 57.253 37.6806 58.3212 38.1386C59.3895 38.5966 61.384 39.5158 63.372 39.9738C65.3601 40.4318 72.4086 40.2802 74.0868 39.8222C75.765 39.3642 77.6078 39.5158 78.5244 38.2934C79.4409 37.0711 79.4442 36.9163 81.1256 36.3035C82.807 35.6907 83.5751 35.3843 84.7983 35.2327C86.0215 35.0811 88.3193 34.6199 87.2479 34.1619C86.1764 33.7039 83.5751 32.4783 81.5839 32.4783C79.5926 32.4783 74.3901 32.1945 73.9319 31.7139C73.6091 31.3624 76.5331 30.4916 78.2178 30.4916H87.0962C90.6172 30.4916 97.0461 31.4107 99.0373 30.9495C102.118 30.358 105.239 30 108.374 29.8787C110.517 29.8787 111.982 29.6401 111.895 29.8787C111.808 30.1174 108.529 30.4915 107.457 30.7979C106.014 31.2059 104.52 31.4122 103.02 31.4107C101.183 31.4107 97.059 31.6204 96.8879 31.7171C96.7169 31.8139 97.1945 32.4815 98.4177 32.4815C99.6408 32.4815 103.162 32.3299 104.692 32.3299C106.221 32.3299 109.21 32.2622 110.114 32.3493C110.547 32.3782 110.965 32.518 111.328 32.7553C111.692 32.9925 111.988 33.3192 112.189 33.7039C112.189 33.7039 112.347 34.1458 110.83 34.1458C109.313 34.1458 106.338 32.8041 102.871 34.2973C102.365 34.5167 102.107 35.0617 102.871 35.0617C103.636 35.0617 107.002 36.2841 106.392 36.5905C105.782 36.8969 102.871 37.6613 101.648 37.8129C100.425 37.9645 85.1178 40.106 81.4451 41.0381C77.7724 41.9702 71.3403 43.0894 69.2006 43.9409C67.929 44.4472 63.6915 46.3888 61.8552 46.8436C60.0188 47.2983 54.5097 49.2915 52.3668 49.4431C50.2238 49.5947 46.0928 50.9719 42.8784 51.7363C39.664 52.5007 36.5238 53.7101 39.4316 53.7101C42.3395 53.7101 56.1944 52.0395 57.8791 51.4299C59.5638 50.8203 76.4008 46.8404 79.612 46.2308C82.8232 45.6212 96.1424 42.254 98.7436 41.6412C101.345 41.0284 109 38.8869 112.673 38.416C116.346 37.9451 124.614 35.5133 126.754 34.8972C128.893 34.2812 131.243 33.3072 132.727 32.7137C133.541 32.3912 135.793 30.2432 132.521 30.1626C130.226 30.1045 127.212 29.6981 127.06 29.0886C126.909 28.479 127.367 28.3242 128.897 28.3242C130.426 28.3242 131.04 27.8662 131.801 27.5598C132.563 27.2534 136.284 26.3858 136.339 26.1729C136.574 25.215 121.687 24.7635 119.934 25.4376Z" fill="#006140"/>
<path d="M109.533 39.0159C109.533 39.0159 66.0572 48.1756 61.768 48.1756C60.887 48.1756 59.5283 47.9756 58.9829 47.7112C57.3239 48.2776 55.6073 48.6584 53.8643 48.8464C51.7213 48.998 46.8836 50.7203 43.6691 51.4847C40.4547 52.2491 42.3976 51.5847 39.4736 52.1975C36.5496 52.8103 28.0488 56.0065 33.7128 55.1002C39.3768 54.1939 37.7405 54.1423 40.6484 54.1423C43.5562 54.1423 57.6371 51.8492 59.3217 51.2396C61.0064 50.63 77.8434 46.65 81.0546 46.0405C84.2658 45.4309 97.585 42.0637 100.186 41.4509C101.929 41.0413 105.954 39.8383 109.513 39.0223L109.533 39.0159Z" fill="#FCB415"/>
<path d="M5.84473 49.5883C5.78189 49.774 5.73123 49.9637 5.69305 50.156C5.46714 51.3235 7.33899 51.7492 7.694 52.4136C8.04901 53.078 7.56491 53.4651 7.56491 54.2423C7.56491 54.294 7.56491 54.3359 7.56491 54.3843C11.5829 53.6908 21.465 52.0234 22.8076 51.8653C28.0101 51.2525 31.0115 50.4882 31.2891 50.2108C31.5666 49.9334 28.6652 49.9108 29.1913 49.4045C29.9658 48.6562 34.0323 48.682 37.1047 47.7628C40.1771 46.8436 42.7687 46.234 44.7567 45.3149C44.9536 45.2245 45.1634 45.131 45.3861 45.0375C37.1725 46.8339 17.7697 47.8854 5.98028 49.5528C5.93381 49.5591 5.88829 49.571 5.84473 49.5883Z" fill="#FCB415"/>
<path d="M158.82 25.0408C152.166 24.7183 140.16 26.0955 139.027 26.4922C138.437 26.6986 138.569 28.2919 139.64 28.5983C140.712 28.9047 145.914 29.2111 146.986 29.5175C148.057 29.8239 148.516 30.8946 149.587 31.0462C150.924 31.1739 152.253 31.3785 153.566 31.659C156.742 32.4395 158.033 33.9683 159.166 34.4327C159.665 34.5687 160.184 34.6124 160.699 34.5618C160.688 34.6258 160.682 34.6904 160.679 34.7553C160.679 35.6003 161.412 36.0454 162.225 35.797C163.093 35.5487 163.048 34.852 162.951 34.2554C162.89 34.2302 162.826 34.2119 162.761 34.2005C162.529 33.7522 162.287 33.3878 162.287 33.3878C162.287 33.3878 161.544 32.5911 160.931 32.4718C160.318 32.3525 160.221 32.4718 160.221 32.4718C160.221 32.4718 159.156 32.3525 159.511 32.4718C159.866 32.5911 158.543 32.2718 158.317 31.7526C158.26 31.6386 158.242 31.5094 158.266 31.3843C158.289 31.2592 158.352 31.1451 158.446 31.0591L158.608 31.0333L158.572 30.9559L157.604 28.9627C157.626 28.2914 157.768 27.6295 158.023 27.0082C158.233 26.3309 158.499 25.6727 158.82 25.0408Z" fill="#006140"/>
<path d="M159.608 25.4021C159.716 25.4088 159.824 25.388 159.923 25.3418C160.021 25.2956 160.106 25.2254 160.17 25.1377C159.805 25.1022 159.418 25.0699 159.004 25.0474C159.055 25.1625 159.14 25.2587 159.249 25.3224C159.357 25.3861 159.483 25.414 159.608 25.4021Z" fill="#006140"/>
<path d="M161.941 19.932C161.865 19.8474 161.777 19.7745 161.68 19.7159C160.015 19.6805 147.728 20.6835 147.728 20.6835C147.292 21.0238 146.882 21.3969 146.502 21.7994C145.953 22.3993 145.534 22.4445 145.534 22.4445L134.302 22.767L103.933 23.2863C103.933 23.2863 88.3677 23.4346 87.5383 23.4282H87.5093C86.4475 23.4282 85.6632 23.4088 85.2985 23.3895C83.0394 23.2734 78.5211 24.1668 76.4556 24.1281C74.3902 24.0894 72.6474 24.1281 71.5824 23.8056C70.5173 23.483 66.935 23.454 66.1604 23.3766C65.3859 23.2992 63.0622 22.5219 62.3522 22.0542C61.7648 21.6479 60.2544 20.2804 59.4476 19.8224C57.5499 19.7321 55.6393 19.6676 53.6803 19.6772C52.5346 19.6772 51.3502 19.6353 50.1302 19.5482C42.7881 19.5031 33.6321 19.4869 33.6321 19.4869C33.6321 19.4869 24.9183 18.9419 23.3692 18.3968C21.82 17.8517 18.3991 17.1906 17.915 17.1067C17.4309 17.0229 16.0431 16.9132 15.559 17.1067C15.0749 17.3002 15.0426 17.5744 14.2358 18.1968C13.429 18.8193 12.9449 17.8453 12.7835 17.8066C11.6217 17.6518 9.42707 18.3904 9.03979 18.9741C8.65251 19.5579 8.68478 20.2965 8.23295 20.5674C7.78113 20.8383 7.52294 20.7996 6.97429 20.9577C6.42564 21.1157 4.58606 21.6962 4.19878 21.8511C3.9567 21.9508 3.72883 22.082 3.52104 22.2413C3.52104 22.2413 3.10149 23.3314 3.19831 23.7185C3.23839 23.956 3.25246 24.1971 3.24026 24.4377C3.16281 24.9021 3.07567 25.5762 3.00789 26.1697C2.74997 26.1725 2.50158 26.2675 2.30756 26.4374C2.32222 26.3489 2.32977 26.2594 2.33015 26.1697C2.33015 25.3956 1.81055 24.7699 1.16831 24.7699C0.526071 24.7699 0.00646973 25.3956 0.00646973 26.1697C0.00646973 26.9437 0.526071 27.5694 1.16831 27.5694C1.40424 27.5679 1.63235 27.4847 1.81378 27.334C1.79426 27.4404 1.78454 27.5483 1.78473 27.6565C1.78349 27.9739 1.87307 28.285 2.04292 28.5531C3.69854 28.3854 7.76822 27.9371 8.12968 28.0855C8.72351 28.3274 11.3377 27.4598 11.9767 27.4404C34.3098 26.4728 49.091 27.3727 70.8175 25.6375C77.1334 25.1344 89.5619 25.015 89.7942 24.8473C89.8523 24.8054 89.4715 24.5248 88.797 24.1345C93.7251 24.1894 117.64 24.0958 127.286 24.0474C126.892 24.1474 126.596 24.2281 126.496 24.2571C126.086 24.3893 122.442 24.8376 122.442 24.8376C122.442 24.8376 120.383 25.1602 120.451 25.2956C120.518 25.4311 128.019 25.6181 128.377 25.602C128.735 25.5859 137.562 25.602 138.02 25.602C138.259 25.602 151.795 25.773 158.775 25.8375C158.908 25.5149 159.05 25.2214 159.198 24.9247C159.239 24.937 159.281 24.9446 159.324 24.9473C159.324 25.1892 159.598 25.3859 159.937 25.3859C160.276 25.3859 160.55 25.1892 160.55 24.9473C160.55 24.7054 160.276 24.5087 159.937 24.5087H159.915C159.946 24.4033 159.947 24.2913 159.918 24.1853C159.889 24.0793 159.831 23.9835 159.75 23.9088C159.858 23.7217 159.965 23.5432 160.073 23.3734C160.127 23.4819 160.21 23.5738 160.312 23.6396C160.414 23.7053 160.532 23.7426 160.654 23.7475C160.863 23.7231 161.055 23.6176 161.188 23.4536C161.321 23.2897 161.384 23.0802 161.364 22.8702C161.371 22.7086 161.334 22.5481 161.257 22.4057C161.18 22.2632 161.067 22.144 160.928 22.0607C161.028 21.9156 161.102 21.8059 161.138 21.7382C161.396 21.3802 161.622 21.6188 161.912 21.1802C162.048 20.7766 162.058 20.3415 161.941 19.932Z" fill="#4C7229"/>
<path d="M165.998 51.0912C166.141 51.0912 166.256 50.9483 166.256 50.7719C166.256 50.5956 166.141 50.4526 165.998 50.4526C165.855 50.4526 165.74 50.5956 165.74 50.7719C165.74 50.9483 165.855 51.0912 165.998 51.0912Z" fill="#003428"/>
<path d="M156.597 57.5547C157.726 57.7547 158.64 57.1935 159.931 57.3934C161.222 57.5934 161.964 57.0709 162.674 56.4775C163.384 55.884 163.384 55.4002 163.545 54.881C163.678 54.4552 164.423 52.4878 164.898 51.3622C164.93 51.4111 164.974 51.452 165.025 51.4816C165.076 51.5112 165.133 51.5288 165.191 51.5331C165.495 51.5331 165.74 51.0494 165.74 50.4559C165.74 50.2961 165.721 50.1368 165.682 49.9818C166.279 49.24 167.241 48.4111 168.354 48.1821C169.903 47.8596 170 45.947 170 45.947C169.942 45.7238 169.806 45.5287 169.617 45.3968C169.427 45.2649 169.197 45.205 168.967 45.2278C168.064 45.2278 168.064 45.2278 167.483 44.5085C166.902 43.7893 167.257 42.2734 166.676 41.6058C166.286 41.1804 165.782 40.8759 165.224 40.7286C165.224 40.7286 164.255 39.9319 163.513 39.332C163.057 38.9113 162.772 38.3371 162.713 37.7194C162.705 37.4439 162.713 37.1682 162.739 36.8937C162.741 36.7407 162.774 36.5898 162.835 36.4497C162.897 36.3096 162.986 36.1831 163.097 36.0777C163.309 36.0277 163.498 35.9075 163.634 35.7366C163.769 35.5656 163.843 35.354 163.843 35.136C163.843 34.9179 163.769 34.7063 163.634 34.5354C163.498 34.3644 163.309 34.2442 163.097 34.1942C162.864 33.7459 162.622 33.3814 162.622 33.3814C162.622 33.3814 161.88 32.5848 161.267 32.4655H161.173C159.575 33.1439 158.027 33.9361 156.542 34.836C154.809 35.1295 153.134 35.4553 152.776 35.6198C151.23 36.3196 151.617 37.0195 150.329 37.2517C149.042 37.4839 148.529 37.6 147.499 37.7194C146.47 37.8387 145.692 38.0645 145.075 38.7837C142.626 41.6445 138.563 42.696 137.459 42.9766C136.086 43.1229 134.705 43.1897 133.325 43.1765C131.908 43.1765 126.718 43.8861 125.689 44.2376C124.659 44.5892 121.17 47.2049 116.591 48.0757C113.802 48.6078 109.236 52.404 102.558 53.507C100.225 53.894 98.6662 55.3422 96.9912 55.8098C95.3162 56.2775 90.9948 56.8484 89.6103 56.9064C86.9187 57.0193 81.9776 57.7127 83.6494 59.4608C84.3142 60.1575 85.4179 60.2736 86.8477 60.1704C87.0445 60.1704 87.5738 60.1155 87.8772 60.0704C89.8975 59.8317 92.4116 59.3641 95.1774 59.4253C100.583 59.5415 110.736 55.8292 115.832 56.4775C118.288 56.8 121.829 57.7095 124.591 57.5289C130.201 57.5966 133.647 55.5131 140.034 56.3065C141.028 56.4291 142.9 58.1127 144.117 57.6547C147.431 56.0421 151.298 56.7968 155.057 57.7321C155.555 57.5779 156.077 57.5178 156.597 57.5547Z" fill="#11604E"/>
</g>
<defs>
<clipPath id="clip0">
<rect width="170" height="94" fill="white"/>
</clipPath>
</defs>
</svg>
