<svg width="32" height="61" viewBox="0 0 32 61" fill="none" xmlns="http://www.w3.org/2000/svg">
<path d="M0.292892 59.2929C-0.0976315 59.6834 -0.0976314 60.3166 0.292893 60.7071C0.683418 61.0976 1.31658 61.0976 1.70711 60.7071L0.292892 59.2929ZM30.5 30.5L31.2071 31.2071C31.5976 30.8166 31.5976 30.1834 31.2071 29.7929L30.5 30.5ZM1.7071 0.292895C1.31658 -0.097627 0.683413 -0.0976269 0.292887 0.292895C-0.0976366 0.683421 -0.0976366 1.31658 0.292887 1.70711L1.7071 0.292895ZM1.70711 60.7071L31.2071 31.2071L29.7929 29.7929L0.292892 59.2929L1.70711 60.7071ZM31.2071 29.7929L1.7071 0.292895L0.292887 1.70711L29.7929 31.2071L31.2071 29.7929Z" fill="white"/>
</svg>
