<svg width="42" height="42" viewBox="0 0 42 42" fill="none" xmlns="http://www.w3.org/2000/svg">
<path d="M41.2995 33.2498H40.5218C42.4553 31.3682 42.4974 28.2752 40.6158 26.3417C40.3172 26.0349 39.9797 25.7688 39.6118 25.5499C41.0905 24.6669 41.997 23.0723 41.9995 21.35C41.996 18.6453 39.8042 16.4535 37.0995 16.45H30.7996V11.5501C30.7994 11.1635 30.4859 10.8502 30.0994 10.8504C30.0638 10.8504 30.0283 10.8531 29.9932 10.8585L21.6997 12.1339V11.4801C23.3282 11.1452 24.4976 9.7127 24.4997 8.05013C24.4997 4.99537 21.6178 2.07781 21.4946 1.95531C21.2213 1.68205 20.7782 1.68205 20.5048 1.95531C20.3816 2.07781 17.4998 4.99537 17.4998 8.05013C17.5019 9.7127 18.6713 11.1452 20.2997 11.4801V12.3502L11.7935 13.6592C11.4523 13.7117 11.2003 14.0049 11.1999 14.3501V22.1487C10.6886 21.5972 10.0989 21.124 9.44988 20.7445C9.23332 20.6194 8.96645 20.6194 8.74989 20.7445C6.68282 21.9456 5.28738 24.0351 4.96994 26.4046C4.48616 26.3054 3.9938 26.2536 3.49996 26.2499C3.191 26.2513 2.88248 26.2713 2.57597 26.3101C2.32765 26.34 2.11424 26.5002 2.01597 26.7301C0.589568 30.0761 1.70124 33.9637 4.68084 36.0498H0V37.4498H1.66738L2.87346 39.8626C2.99203 40.0999 3.23466 40.2498 3.49996 40.2497H30.0996C30.4862 40.2497 30.7996 39.9363 30.7996 39.5497V37.4498H35.267L36.473 39.8626C36.5916 40.0999 36.8342 40.2498 37.0995 40.2497H39.8995C40.2861 40.2497 40.5995 39.9363 40.5995 39.5497V37.4498H41.2995C41.6861 37.4498 41.9995 37.1363 41.9995 36.7498V33.9498C41.9995 33.5632 41.6861 33.2498 41.2995 33.2498ZM40.5995 29.7499C40.5972 31.6818 39.0315 33.2475 37.0995 33.2498H24.4997C22.5668 33.2498 20.9997 31.6828 20.9997 29.7499C20.9997 27.8169 22.5668 26.2499 24.4997 26.2499H33.5996C34.7594 26.2499 35.6996 27.1901 35.6996 28.3499C35.6996 29.5097 34.7594 30.4499 33.5996 30.4499H26.5997C26.2131 30.4499 25.8997 30.1364 25.8997 29.7499C25.8997 29.3633 26.2131 29.0499 26.5997 29.0499H31.4996V27.6499H26.5997C25.4399 27.6499 24.4997 28.5901 24.4997 29.7499C24.4997 30.9097 25.4399 31.8498 26.5997 31.8498H33.5996C35.5316 31.8476 37.0973 30.2819 37.0995 28.3499C37.097 27.59 36.8446 26.8522 36.3813 26.2499H37.0995C39.0315 26.2522 40.5972 27.8179 40.5995 29.7499ZM34.9996 17.85C36.1594 17.85 37.0995 18.7902 37.0995 19.95C37.0995 21.1098 36.1594 22.05 34.9996 22.05H27.9997C27.6131 22.05 27.2997 21.7365 27.2997 21.35C27.2997 20.9634 27.6131 20.65 27.9997 20.65H32.8996V19.25H27.9997C26.8399 19.25 25.8997 20.1902 25.8997 21.35C25.8997 22.5098 26.8399 23.4499 27.9997 23.4499H34.9996C36.9315 23.4477 38.4972 21.882 38.4995 19.95C38.4988 19.2279 38.2727 18.5242 37.8527 17.9368C39.7378 18.3645 40.9193 20.2393 40.4916 22.1244C40.1317 23.7109 38.7262 24.8401 37.0995 24.8499H33.5996H27.2997C25.3667 24.8499 23.7997 23.2829 23.7997 21.35C23.7997 19.417 25.3667 17.85 27.2997 17.85H34.9996ZM18.8998 8.05013C18.8998 6.26026 20.2472 4.39898 20.9997 3.50019C21.7529 4.39828 23.0997 6.25606 23.0997 8.05013C23.096 8.93685 22.5358 9.72574 21.6997 10.0213V8.75012H20.2997V10.0213C19.4637 9.72574 18.9034 8.93685 18.8998 8.05013ZM9.09989 22.1746C10.6638 23.2271 11.6764 24.9227 11.8614 26.7987C10.8173 27.2156 9.87705 27.8557 9.10619 28.674C8.32972 27.8588 7.385 27.2227 6.33772 26.8099C6.51946 24.9296 7.53269 23.2293 9.09989 22.1746ZM12.6112 28.006C13.2823 27.7703 13.9885 27.6499 14.6998 27.6499C14.8097 27.6499 14.9245 27.6541 15.0442 27.6618C16.1974 30.9445 14.4712 34.5404 11.1885 35.6937C10.5174 35.9294 9.81117 36.0498 9.09989 36.0498C8.98999 36.0498 8.87519 36.0456 8.75549 36.0379C7.60226 32.7552 9.32852 29.1592 12.6112 28.006ZM2.79997 29.7499C2.79909 29.0387 2.91931 28.3326 3.15556 27.6618C3.27526 27.6541 3.39006 27.6499 3.49996 27.6499C5.31258 27.6445 7.0378 28.4281 8.2263 29.7968C7.0784 31.5611 6.7158 33.7233 7.22531 35.7656C4.59256 34.945 2.79944 32.5076 2.79997 29.7499ZM14.2672 38.8498H3.93255L3.23256 37.4498H14.9672L14.2672 38.8498ZM20.9997 38.8498H15.8324L16.5324 37.4498H18.1998V36.0498H13.5133C16.4963 33.9666 17.6107 30.0777 16.1838 26.7308C16.0855 26.5009 15.8721 26.3407 15.6238 26.3108C14.8273 26.2084 14.0193 26.2368 13.2319 26.3948C13.1227 25.6162 12.8945 24.8591 12.555 24.1499H12.5998V14.9506L29.3996 12.3663V16.45H27.2997C24.597 16.4464 22.4031 18.6345 22.3995 21.3372C22.3978 22.6789 22.9469 23.9625 23.9187 24.8877C21.2354 25.2043 19.3169 27.6362 19.6334 30.3196C19.7648 31.4329 20.2745 32.4674 21.0774 33.2498H20.2997C19.9132 33.2498 19.5998 33.5632 19.5998 33.9498V36.7498C19.5998 37.1363 19.9132 37.4498 20.2997 37.4498H20.9997V38.8498ZM24.0671 38.8498H22.3997V37.4498H24.7671L24.0671 38.8498ZM29.3996 38.8498H25.6323L26.3323 37.4498H29.3996V38.8498ZM39.1995 38.8498H37.5321L36.8321 37.4498H39.1995V38.8498ZM40.5995 36.0498H20.9997V34.6498H40.5995V36.0498Z" fill="white"/>
<path d="M15.3997 19.9501H13.9998V25.5501H15.3997V19.9501Z" fill="white"/>
<path d="M15.3997 17.1501H13.9998V18.5501H15.3997V17.1501Z" fill="white"/>
</svg>
