<svg width="84" height="46" viewBox="0 0 84 46" fill="none" xmlns="http://www.w3.org/2000/svg">
<g clip-path="url(#clip0)">
<path d="M20.0882 37.5323C19.8506 36.5096 18.2193 35.7236 16.5448 36.4275L16.5592 36.4117C16.5592 36.4117 14.8051 37.1551 14.4861 37.3382C13.1072 38.1079 11.6555 38.7423 10.1518 39.2322C8.31469 39.8209 6.21608 39.9819 5.48253 39.4595C4.25781 38.5882 4.64372 36.4859 5.82698 35.0275C7.32682 33.1371 9.5041 31.8904 11.9075 31.5458C12.8643 31.3564 13.633 31.7036 13.3762 32.589C13.1514 33.4003 11.7815 34.0932 11.7815 34.0932C11.5948 34.2209 11.4589 34.409 11.3972 34.6251C11.3207 34.9597 11.6268 35.7299 12.2105 35.9177C13.2247 35.7204 16.6262 33.8943 14.9821 30.976C14.3936 30.0827 12.8484 29.9106 11.6619 30.1206C5.61967 31.1938 2.96931 35.3669 2.54353 36.2507C2.14007 37.0873 1.16412 39.5652 2.68226 40.8989C5.39323 43.29 10.1071 41.0914 12.346 39.7514C13.1046 39.307 13.8387 38.8229 14.5451 38.301C14.0938 39.2716 13.9359 40.6006 14.6153 41.1041C15.1639 41.5113 16.9084 41.7701 18.4872 40.6006C19.2494 40.0419 20.3402 38.6924 20.0882 37.5323ZM18.4361 38.7271C18.1969 39.1217 16.8303 40.3133 16.2674 39.753C15.8607 39.3506 16.2849 38.5835 16.5863 38.2473C17.6962 36.9989 18.9608 37.837 18.4361 38.7271ZM33.1646 36.8331C31.4344 35.8956 29.6659 37.4171 29.3374 37.9064C29.3135 37.9411 29.2912 37.9774 29.2688 38.0137C28.711 38.6314 28.0013 39.0958 27.2085 39.3616C25.2757 40.064 24.5534 38.7145 24.4768 38.5614C24.4003 38.2568 26.6376 37.9679 28.1127 37.0099C29.103 36.1939 28.0345 35.501 27.4748 35.7804C27.2452 35.8719 26.5387 36.2065 25.7542 36.5254C25.0057 36.8516 24.2202 37.0874 23.4147 37.2277C23.4147 37.2277 25.2885 34.5067 24.9967 34.3236C24.5143 34.1044 23.9665 34.0718 23.461 34.2321C22.9539 34.4294 19.7932 40.6779 19.8825 40.921C19.9718 41.164 21.5761 41.3045 21.7961 40.8121C22.0162 40.3196 22.5791 39.1391 22.5791 39.1391C22.5791 39.1391 23.9825 40.64 25.2742 40.7758C25.9551 40.8484 27.2866 40.6179 28.7442 39.2653C28.6373 39.8098 28.7107 40.326 29.1588 40.5974C30.0789 41.1546 31.8506 41.0015 32.8266 40.1492C34.8263 38.4051 33.8248 37.1835 33.1646 36.8284V36.8331ZM32.1967 39.2306C31.7183 39.5636 30.8205 39.7262 30.602 39.3742C30.4425 39.1185 30.8316 38.6387 31.3132 38.3041C31.8618 37.9206 32.4869 37.7707 32.766 38.08C33.045 38.3894 32.7309 38.8597 32.1967 39.2274V39.2306ZM55.9447 30.9366C54.5318 30.8908 49.5405 30.8166 49.5405 30.8166C49.5405 30.8166 48.9026 30.7519 48.0048 31.56C46.9842 32.4801 46.2506 35.2233 45.8886 35.9083C45.5266 36.5932 43.9463 39.9929 43.6337 40.5627C42.6945 42.2673 45.356 42.0526 45.7674 41.2524C46.2458 40.1587 48.9568 33.9448 49.5452 33.1225C50.3107 32.095 54.5813 32.387 53.87 33.6118C53.3629 34.7971 51.1367 39.6268 51.0602 40.7142C50.9836 41.8017 52.4954 42.2641 52.7952 41.7022C53.0488 41.2382 56.4518 33.1793 56.7277 32.6332C56.927 32.2402 57.3576 30.9792 55.9447 30.9334V30.9366ZM81.2396 38.9449C80.7947 38.7177 77.6563 39.5763 75.1016 39.5763C73.0828 39.5763 72.059 38.4951 72.0717 38.4351C72.0845 38.3752 74.6472 37.9253 75.9755 36.4686C76.3471 36.0613 75.7299 35.7993 75.1925 35.5563C74.6551 35.3132 74.2357 35.9824 73.1195 36.6216C72.0032 37.2609 71.4036 36.9831 71.4036 36.9831C71.4036 36.9831 72.9233 34.1832 73.0939 33.4761C73.2646 32.769 72.4816 32.4628 71.9872 32.5654C71.4929 32.668 68.1297 39.4595 68.2062 40.3844C68.2828 41.3092 69.4182 41.2366 69.7866 40.9778C70.1549 40.719 70.8566 39.0112 70.8709 38.825C70.9076 39.0144 71.4721 40.9336 74.9773 40.9162C79.1378 40.8957 82.1214 39.8367 82.1358 39.6078C82.1502 39.379 81.6845 39.1706 81.2396 38.9418V38.9449ZM68.286 37.0888C68.0611 36.4891 66.8508 35.6573 65.524 36.5806C65.6292 36.175 65.6579 35.9161 65.583 35.8656C65.2242 35.6257 64.2243 35.6526 64.0473 35.9288C63.3948 37.0054 62.7992 38.1149 62.2628 39.2527C62.1337 39.4105 61.2885 40.3575 60.4991 40.1618C60.1228 40.0671 60.043 39.5036 60.1961 39.2385C60.5836 38.5677 61.2375 37.9301 60.4991 36.7905C60.2264 36.3707 59.4371 35.9761 58.2363 36.0124C57.7695 36.0411 57.3074 36.1211 56.8585 36.2507C56.5491 36.3454 56.5156 36.6501 56.6113 36.9578C56.707 37.2656 56.9175 37.4566 57.2284 37.3619C57.5394 37.2672 58.8008 36.8 59.1038 37.3051C59.157 37.4044 59.1801 37.5169 59.1702 37.6289C59.1603 37.7409 59.1179 37.8477 59.048 37.9364C58.6685 37.8582 58.2806 37.828 57.8934 37.8464C56.101 37.9159 55.0437 38.7934 54.7487 39.4247C54.4537 40.0561 54.7487 40.7868 55.4424 41.1846C56.262 41.6581 57.844 41.8159 59.2361 40.6132C59.5391 41.1877 60 41.3377 60.6714 41.2666C60.9758 41.2349 61.2708 41.1432 61.5389 40.9967C60.901 42.7502 60.4098 44.5906 60.3636 45.3213C60.3125 46.1405 61.9008 46.1705 62.0826 45.6591C62.325 44.982 63.2659 42.7234 64.1159 40.5438C64.9802 41.0946 66.4234 40.9257 67.2909 40.0892C68.0515 39.3616 68.589 37.9159 68.286 37.0888ZM56.7117 39.4879C56.8074 39.2101 57.069 38.9402 58.013 38.9007C58.2615 38.8886 58.5106 38.9023 58.7561 38.9418C58.4356 39.9377 56.4837 40.1508 56.7102 39.4879H56.7117ZM64.5544 39.2243C64.8733 38.3736 65.1173 37.9032 65.3215 37.2703C65.6866 37.0683 66.0566 36.9547 66.2783 37.0494C67.2367 37.455 65.9928 39.4674 64.5544 39.2243ZM38.8226 35.752H38.8146C38.3984 35.7725 38.097 35.9351 37.6633 36.2965C37.3172 36.5838 35.1644 39.0743 34.3383 39.622C34.3048 39.6441 34.0401 39.8177 33.8695 39.9219C33.6989 40.0261 33.2077 40.307 33.1678 40.5296C33.1651 40.6144 33.1804 40.6989 33.2128 40.7775C33.2453 40.856 33.294 40.927 33.356 40.9857C33.4209 41.054 33.5004 41.1072 33.5887 41.1413C33.6769 41.1754 33.7718 41.1897 33.8663 41.183C35.1724 41.0788 36.4449 40.0371 37.9232 37.9348C37.9232 37.9348 37.9949 37.8322 38.0412 37.777L38.0587 37.7549C38.1512 37.6428 38.2549 37.6365 38.282 37.6917C38.2884 37.7636 38.2835 37.836 38.2676 37.9064C38.0938 38.7508 37.5995 39.5336 37.2263 40.1808C37.1498 40.3149 37.0764 40.4412 37.011 40.558C36.9812 40.6027 36.963 40.6541 36.958 40.7075C36.953 40.7609 36.9613 40.8147 36.9823 40.8642C37.0089 40.9103 37.0461 40.9496 37.0911 40.9787C37.136 41.0078 37.1873 41.0259 37.2407 41.0315C37.7605 41.1118 38.292 41.0724 38.7939 40.9162C38.9455 40.8343 39.0621 40.7009 39.1224 40.5406C39.7953 38.9623 39.8304 38.2599 39.8464 37.0162C39.8464 36.6248 39.773 36.246 39.5099 36.0045C39.4191 35.9174 39.3114 35.8495 39.1932 35.805C39.075 35.7605 38.9489 35.7403 38.8226 35.7457V35.752Z" fill="#003428"/>
<path d="M3.22126 9.22046C3.25315 9.60083 2.71734 10.2274 2.74285 10.6078C2.74285 10.6409 2.82099 11.8042 2.55946 12.3724L35.9952 12.2666L41.9577 11.5832H78.7535C78.9959 11.135 79.1235 10.6457 79.1011 9.81706C79.0957 9.65216 79.0765 9.48798 79.0437 9.32621C78.8878 9.30451 78.7443 9.23039 78.6371 9.1163C78.4776 8.91112 78.5813 8.6207 78.6658 8.37764C78.7503 8.13458 78.7902 7.81103 78.5749 7.6674C78.4967 7.61531 78.3947 7.59637 78.3341 7.52377C78.1746 7.33122 78.4808 7.09447 78.7264 7.03923C78.972 6.98399 79.2973 6.80722 79.1872 6.5831C79.0979 6.40001 78.7949 6.43631 78.6738 6.26743C78.6323 6.19476 78.6216 6.1088 78.644 6.02835C78.6664 5.9479 78.7201 5.87951 78.7934 5.83813C78.9405 5.75783 79.104 5.71144 79.2718 5.7024C79.4058 5.68224 79.538 5.65163 79.6672 5.61085C79.7926 5.18323 79.8612 4.74127 79.8714 4.29612C79.8554 3.2055 78.0088 2.20485 76.7203 1.90339C76.0936 1.75661 75.4286 1.77081 74.7748 1.78817L65.6372 2.03124C62.2054 2.11647 58.8901 2.93245 55.4791 2.60259C52.7522 2.33901 49.9423 1.08267 47.233 0.708608C33.7674 -1.13802 23.9155 1.20893 10.2602 1.30048C9.6893 1.30048 6.78219 1.05426 6.6881 1.05426C6.49993 1.11897 6.34046 1.33362 6.42817 1.51828C6.4776 1.62087 6.58764 1.67612 6.66099 1.75661C6.73435 1.83711 6.78697 1.98389 6.70565 2.06123C6.65976 2.0948 6.60301 2.11053 6.54618 2.10542C6.33355 2.11173 6.12093 2.11173 5.9083 2.10542C4.5305 2.37531 3.93887 3.68373 3.7794 3.68373C3.6201 3.65279 3.45491 3.68571 3.32013 3.77527C3.13196 3.9331 3.17342 4.43501 3.34245 4.62125C3.51149 4.80749 3.60079 5.48301 3.31694 5.63769C3.25634 5.67083 3.18618 5.70871 3.16704 5.77974C3.14152 5.88233 3.2404 5.96913 3.32651 6.0228C3.44292 6.0954 3.55933 6.01175 3.67574 6.08435C3.73537 6.11529 3.78591 6.16096 3.82246 6.21693C3.90219 6.36529 3.77461 6.55469 3.62631 6.61782C3.478 6.68095 3.30737 6.66991 3.1479 6.72199C3.0669 6.74391 2.99697 6.79476 2.95162 6.86471C2.90627 6.93467 2.8887 7.01877 2.90232 7.10078C2.92125 7.1529 2.9537 7.19917 2.99641 7.23494C3.29302 7.50326 3.79375 7.4275 4.04412 7.74158C4.10658 7.82327 4.14636 7.91971 4.15951 8.02133C4.17266 8.12294 4.15872 8.22619 4.11907 8.32082C4.04093 8.50233 3.45727 8.71224 3.22126 9.22046Z" fill="#B8E4FA"/>
<path d="M78.9879 11.659L42.4361 11.5833L36.346 12.1325H2.6711C2.37448 12.7765 1.82432 13.1947 0.931295 14.1054C0.786178 14.2538 3.23083 16.4334 3.69488 18.1569C4.44598 20.9427 4.1095 25.4756 3.96119 25.7849C3.41581 26.9229 3.90857 27.4422 5.07747 28.416C6.26551 29.1341 11.0799 27.5747 14.2644 27.7452C18.8428 27.9883 19.6641 28.8753 24.2504 29.0079C26.6759 29.0773 29.819 28.7506 32.2429 28.8327C35.5583 28.9447 36.7654 27.8304 40.025 28.416C45.171 29.3393 52.4635 26.7935 57.5665 27.51C59.7783 27.8257 61.987 26.6293 64.2482 26.4841C68.329 26.2205 72.4816 27.3822 76.4858 26.6877C76.9435 26.6088 77.4251 26.4889 77.7201 26.1937C78.0151 25.8986 78.0598 25.433 78.0678 25.0242C78.0997 23.4553 78.4824 19.4259 78.3867 17.5303C78.2671 15.286 76.3662 15.5843 77.8557 13.321C78.3373 12.5776 78.7296 12.1467 78.9879 11.659Z" fill="#6DCEF5"/>
<path d="M59.2616 12.4482C58.7689 12.6344 58.5552 13.3699 57.7132 13.5719C57.4676 13.6303 56.2971 13.7787 56.1185 13.796C55.9399 13.8134 52.9451 13.6682 52.7155 13.6461C52.4858 13.624 36.3795 14.1701 36.3795 14.1701L22.6158 14.6199L17.9274 14.844L10.6668 14.47C10.6668 14.47 4.54484 14.3832 1.66484 14.6878C1.69696 14.8115 1.70347 14.9403 1.68397 15.0666C1.62019 15.2765 1.5564 15.6569 1.44477 15.7326C1.33314 15.8084 1.39693 16.2472 1.63613 16.7033C1.65844 16.7997 1.67072 16.898 1.67281 16.9969C1.62887 16.9678 1.57736 16.9519 1.52451 16.9511C1.43457 16.9674 1.35326 17.0144 1.29472 17.0839C1.23618 17.1534 1.20412 17.241 1.20412 17.3315C1.20412 17.4219 1.23618 17.5096 1.29472 17.5791C1.35326 17.6486 1.43457 17.6956 1.52451 17.7118C1.60725 17.7063 1.68516 17.6713 1.7438 17.6132C1.80245 17.5552 1.83785 17.4781 1.84344 17.3962C2.00744 17.5794 2.20355 17.7318 2.42231 17.846C2.47813 17.8728 3.37912 17.8981 3.48118 18.0307C3.53381 18.1538 3.2659 18.9208 3.2356 19.1591C3.2053 19.3975 2.78909 19.9199 2.59773 20.7769C2.40637 21.6339 3.57048 22.0396 3.63427 22.6804C3.60716 23.2012 3.20849 23.6937 2.9964 24.2776C3.12742 24.3877 3.27621 24.4752 3.43653 24.5365C3.75547 24.617 4.09833 24.527 4.41886 24.437C5.04238 24.2618 5.85407 24.1435 6.63387 24.0125C7.09314 24.3976 7.44557 24.6438 7.59068 24.6817C8.47414 24.9247 8.64637 25.403 11.217 25.1047C13.7876 24.8064 15.4222 24.5759 15.4222 24.5759L13.8466 24.1798C13.8466 24.1798 14.4606 24.0614 15.966 23.6763C17.4713 23.2912 21.0945 22.6299 22.0768 22.1816C23.0591 21.7334 24.724 21.2078 25.027 20.8337C25.33 20.4597 25.4049 20.2356 26.0109 19.9357C26.6169 19.6358 26.9007 19.811 26.9948 19.5616C27.0474 19.4227 25.4193 18.8893 24.9536 18.5878C24.3157 18.179 24.2791 17.9723 23.9777 17.7481C23.6763 17.524 23.5933 17.3914 23.9777 17.3914C24.362 17.3914 26.5005 17.6029 26.7763 17.7655C27.0522 17.9281 28.2897 18.4394 28.8175 18.6636C29.3454 18.8877 30.3309 19.3375 31.3132 19.5616C32.2955 19.7857 35.7783 19.7116 36.6076 19.4874C37.4368 19.2633 38.3474 19.3375 38.8003 18.7393C39.2531 18.1411 39.2547 18.0654 40.0856 17.7655C40.9164 17.4656 41.2959 17.3157 41.9003 17.2415C42.5047 17.1673 43.6401 16.9416 43.1107 16.7175C42.5812 16.4934 41.2959 15.8936 40.312 15.8936C39.3281 15.8936 36.7575 15.7547 36.531 15.5196C36.3715 15.3475 37.8163 14.9214 38.6488 14.9214H43.0357C44.7755 14.9214 47.9521 15.3712 48.9361 15.1455C50.4583 14.856 52.0005 14.6808 53.5495 14.6215C54.6084 14.6215 55.3323 14.5047 55.2893 14.6215C55.2462 14.7383 53.626 14.9214 53.0966 15.0713C52.3832 15.271 51.6453 15.3719 50.9039 15.3712C49.9965 15.3712 47.9585 15.4738 47.874 15.5211C47.7895 15.5685 48.0255 15.8952 48.6299 15.8952C49.2343 15.8952 50.9741 15.821 51.7299 15.821C52.4858 15.821 53.9625 15.7879 54.409 15.8305C54.623 15.8446 54.8298 15.9131 55.0093 16.0291C55.1889 16.1452 55.3353 16.3051 55.4344 16.4934C55.4344 16.4934 55.5125 16.7096 54.763 16.7096C54.0135 16.7096 52.5432 16.053 50.8305 16.7838C50.5802 16.8911 50.4526 17.1578 50.8305 17.1578C51.2085 17.1578 52.8717 17.756 52.5703 17.906C52.2689 18.0559 50.8305 18.43 50.2262 18.5041C49.6218 18.5783 42.0582 19.6263 40.2434 20.0825C38.4287 20.5386 35.2505 21.0863 34.1932 21.5029C33.5649 21.7507 31.4711 22.7009 30.5637 22.9234C29.6563 23.146 26.9342 24.1214 25.8753 24.1956C24.8165 24.2697 22.7753 24.9437 21.187 25.3177C19.5987 25.6918 18.047 26.2837 19.4838 26.2837C20.9207 26.2837 27.7666 25.4661 28.5991 25.1678C29.4315 24.8695 37.751 22.9219 39.3377 22.6236C40.9244 22.3253 47.5056 20.6775 48.7909 20.3776C50.0763 20.0777 53.8589 19.0297 55.6736 18.7993C57.4884 18.5689 61.5739 17.3788 62.6312 17.0774C63.6885 16.7759 64.8494 16.2992 65.583 16.0088C65.9848 15.851 67.0979 14.7998 65.4809 14.7604C64.3471 14.732 62.8577 14.5331 62.7827 14.2348C62.7078 13.9365 62.9342 13.8607 63.6901 13.8607C64.446 13.8607 64.749 13.6366 65.1253 13.4867C65.5016 13.3367 67.3403 12.9122 67.3674 12.808C67.4838 12.3392 60.1276 12.1183 59.2616 12.4482Z" fill="#006140"/>
<path d="M54.122 19.0929C54.122 19.0929 32.64 23.5753 30.5207 23.5753C30.0853 23.5753 29.4139 23.4775 29.1444 23.348C28.3247 23.6253 27.4765 23.8116 26.6153 23.9036C25.5564 23.9778 23.166 24.8206 21.5777 25.1947C19.9894 25.5687 20.9494 25.2436 19.5046 25.5435C18.0598 25.8434 13.8594 27.4075 16.6581 26.964C19.4567 26.5204 18.6482 26.4952 20.085 26.4952C21.5218 26.4952 28.4795 25.373 29.3119 25.0747C30.1443 24.7764 38.4638 22.8288 40.0505 22.5305C41.6372 22.2322 48.2185 20.5844 49.5038 20.2845C50.3649 20.0841 52.3535 19.4954 54.1124 19.0961L54.122 19.0929Z" fill="#FCB415"/>
<path d="M2.88798 24.2666C2.85693 24.3574 2.8319 24.4502 2.81303 24.5443C2.7014 25.1157 3.62632 25.324 3.80174 25.6492C3.97715 25.9743 3.73795 26.1637 3.73795 26.5441C3.73795 26.5693 3.73795 26.5898 3.73795 26.6135C5.72333 26.2742 10.6063 25.4582 11.2696 25.3808C13.8403 25.081 15.3233 24.7069 15.4605 24.5712C15.5976 24.4354 14.164 24.4244 14.4239 24.1766C14.8066 23.8104 16.816 23.823 18.3341 23.3732C19.8522 22.9234 21.1328 22.6251 22.1151 22.1753C22.2124 22.1311 22.316 22.0853 22.4261 22.0396C18.3676 22.9187 8.78034 23.4332 2.95496 24.2492C2.932 24.2522 2.9095 24.2581 2.88798 24.2666Z" fill="#FCB415"/>
<path d="M78.476 12.2541C75.1878 12.0962 69.2555 12.7702 68.6958 12.9643C68.404 13.0653 68.4694 13.845 68.9988 13.995C69.5282 14.1449 72.0989 14.2948 72.6283 14.4448C73.1577 14.5947 73.3842 15.1187 73.9136 15.1929C74.5743 15.2554 75.2308 15.3555 75.8799 15.4928C77.449 15.8747 78.0869 16.6229 78.6466 16.8501C78.8931 16.9166 79.1499 16.938 79.4041 16.9133C79.3989 16.9446 79.3957 16.9762 79.3946 17.008C79.3946 17.4215 79.7565 17.6393 80.1584 17.5178C80.5874 17.3962 80.565 17.0553 80.5172 16.7633C80.4869 16.751 80.4554 16.742 80.4231 16.7365C80.3083 16.5171 80.1887 16.3388 80.1887 16.3388C80.1887 16.3388 79.8219 15.9489 79.5189 15.8905C79.2159 15.8321 79.1681 15.8905 79.1681 15.8905C79.1681 15.8905 78.6419 15.8321 78.8173 15.8905C78.9927 15.9489 78.3389 15.7927 78.2272 15.5386C78.1993 15.4828 78.1904 15.4195 78.2019 15.3583C78.2134 15.2971 78.2447 15.2413 78.291 15.1992L78.3708 15.1866L78.3532 15.1487L77.8748 14.1733C77.8857 13.8448 77.9559 13.5209 78.0821 13.2169C78.1855 12.8854 78.3173 12.5633 78.476 12.2541Z" fill="#006140"/>
<path d="M78.8651 12.4308C78.9186 12.4341 78.9721 12.4239 79.0206 12.4013C79.0691 12.3787 79.1111 12.3443 79.1426 12.3014C78.9624 12.284 78.771 12.2683 78.5669 12.2572C78.5918 12.3135 78.6341 12.3606 78.6876 12.3918C78.7412 12.423 78.8033 12.4366 78.8651 12.4308Z" fill="#006140"/>
<path d="M80.0181 9.75396C79.9806 9.71253 79.937 9.67689 79.8889 9.64822C79.066 9.63086 72.9951 10.1217 72.9951 10.1217C72.7794 10.2883 72.5768 10.4708 72.3891 10.6678C72.118 10.9614 71.9107 10.9835 71.9107 10.9835L66.3612 11.1413L51.3552 11.3954C51.3552 11.3954 43.664 11.468 43.2542 11.4649H43.2398C42.7152 11.4649 42.3277 11.4554 42.1475 11.4459C41.0312 11.3891 38.7987 11.8263 37.7781 11.8074C36.7575 11.7884 35.8963 11.8074 35.3701 11.6495C34.8438 11.4917 33.0737 11.4775 32.691 11.4396C32.3083 11.4017 31.1601 11.0214 30.8093 10.7925C30.519 10.5936 29.7727 9.92442 29.3741 9.7003C28.4364 9.65611 27.4923 9.62454 26.5244 9.62928C25.9583 9.62928 25.373 9.60876 24.7702 9.56614C21.1423 9.54404 16.6182 9.53615 16.6182 9.53615C16.6182 9.53615 12.3125 9.26942 11.5471 9.00269C10.7816 8.73595 9.09128 8.4124 8.85207 8.37136C8.61287 8.33032 7.92715 8.27666 7.68795 8.37136C7.44875 8.46606 7.4328 8.60021 7.03413 8.90483C6.63546 9.20944 6.39626 8.73279 6.31652 8.71385C5.74244 8.63809 4.65805 8.99953 4.46669 9.2852C4.27533 9.57088 4.29127 9.93231 4.06802 10.0649C3.84476 10.1975 3.71719 10.1785 3.44609 10.2559C3.175 10.3332 2.26603 10.6173 2.07466 10.6931C1.95505 10.7419 1.84245 10.8061 1.73978 10.884C1.73978 10.884 1.53247 11.4175 1.58031 11.6069C1.60012 11.7231 1.60707 11.8411 1.60104 11.9589C1.56277 12.1861 1.51971 12.516 1.48622 12.8064C1.35878 12.8078 1.23605 12.8543 1.14018 12.9374C1.14742 12.8941 1.15115 12.8503 1.15134 12.8064C1.15134 12.4276 0.894596 12.1214 0.577254 12.1214C0.259912 12.1214 0.00316805 12.4276 0.00316805 12.8064C0.00316805 13.1852 0.259912 13.4914 0.577254 13.4914C0.693832 13.4907 0.806545 13.45 0.896191 13.3762C0.886546 13.4283 0.881742 13.4811 0.881839 13.534C0.881224 13.6893 0.925489 13.8416 1.00941 13.9728C1.82749 13.8907 3.83838 13.6713 4.01699 13.7439C4.31041 13.8623 5.60211 13.4377 5.91785 13.4283C16.9531 12.9548 24.2567 13.3951 34.9921 12.546C38.1129 12.2998 44.2541 12.2414 44.3689 12.1593C44.3976 12.1388 44.2094 12.0015 43.8761 11.8105C46.3112 11.8373 58.1278 11.7916 62.8943 11.7679C62.6998 11.8168 62.5531 11.8563 62.5036 11.8705C62.3011 11.9352 60.5007 12.1546 60.5007 12.1546C60.5007 12.1546 59.4833 12.3124 59.5168 12.3787C59.5503 12.445 63.2563 12.5365 63.4333 12.5286C63.6103 12.5208 67.9718 12.5286 68.1983 12.5286C68.3163 12.5286 75.0044 12.6123 78.4537 12.6439C78.519 12.486 78.5892 12.3424 78.6626 12.1972C78.6828 12.2032 78.7037 12.2069 78.7248 12.2082C78.7248 12.3266 78.8603 12.4229 79.0278 12.4229C79.1952 12.4229 79.3307 12.3266 79.3307 12.2082C79.3307 12.0899 79.1952 11.9936 79.0278 11.9936H79.0166C79.032 11.942 79.0325 11.8872 79.0182 11.8353C79.0038 11.7835 78.9751 11.7366 78.9353 11.7C78.9884 11.6085 79.0416 11.5212 79.0947 11.438C79.1217 11.4911 79.1626 11.5361 79.213 11.5683C79.2635 11.6005 79.3218 11.6187 79.3818 11.6211C79.4854 11.6092 79.5801 11.5576 79.6457 11.4773C79.7113 11.3971 79.7425 11.2946 79.7326 11.1918C79.736 11.1127 79.7178 11.0342 79.6799 10.9645C79.642 10.8948 79.5859 10.8364 79.5173 10.7957C79.5668 10.7246 79.6034 10.671 79.621 10.6378C79.7486 10.4626 79.8602 10.5794 80.0037 10.3648C80.0707 10.1673 80.0757 9.95433 80.0181 9.75396Z" fill="#4C7229"/>
<path d="M82.0226 25.0021C82.093 25.0021 82.1502 24.9321 82.1502 24.8458C82.1502 24.7595 82.093 24.6896 82.0226 24.6896C81.9521 24.6896 81.895 24.7595 81.895 24.8458C81.895 24.9321 81.9521 25.0021 82.0226 25.0021Z" fill="#003428"/>
<path d="M77.3773 28.165C77.9354 28.2629 78.3867 27.9883 79.0246 28.0861C79.6625 28.184 80.0292 27.9283 80.3801 27.6379C80.7309 27.3475 80.7309 27.1107 80.8106 26.8566C80.876 26.6483 81.2444 25.6855 81.4788 25.1347C81.495 25.1586 81.5165 25.1786 81.5416 25.1931C81.5667 25.2076 81.5949 25.2162 81.6239 25.2183C81.7738 25.2183 81.895 24.9816 81.895 24.6912C81.8952 24.613 81.8855 24.535 81.8663 24.4592C82.1613 24.0961 82.6365 23.6905 83.1867 23.5785C83.9522 23.4206 84 22.4847 84 22.4847C83.9713 22.3754 83.9041 22.28 83.8105 22.2154C83.717 22.1509 83.6032 22.1216 83.4897 22.1327C83.0432 22.1327 83.0432 22.1327 82.7562 21.7808C82.4691 21.4288 82.6445 20.687 82.3575 20.3603C82.1648 20.1521 81.9157 20.0031 81.6399 19.931C81.6399 19.931 81.1615 19.5411 80.7947 19.2476C80.5691 19.0417 80.4283 18.7607 80.3992 18.4584C80.3953 18.3236 80.3996 18.1887 80.412 18.0544C80.4132 17.9795 80.4295 17.9056 80.4599 17.8371C80.4903 17.7685 80.5341 17.7066 80.589 17.655C80.6939 17.6306 80.7874 17.5717 80.8543 17.4881C80.9212 17.4044 80.9576 17.3009 80.9576 17.1942C80.9576 17.0875 80.9212 16.9839 80.8543 16.9003C80.7874 16.8166 80.6939 16.7578 80.589 16.7333C80.4742 16.5139 80.3546 16.3356 80.3546 16.3356C80.3546 16.3356 79.9878 15.9457 79.6848 15.8873H79.6385C78.8487 16.2193 78.0839 16.607 77.3502 17.0474C76.4938 17.191 75.6662 17.3504 75.4892 17.4309C74.7253 17.7734 74.9167 18.1159 74.2804 18.2295C73.6441 18.3432 73.3906 18.4 72.8819 18.4584C72.3732 18.5168 71.9888 18.6273 71.6843 18.9792C70.4739 20.3792 68.4662 20.8937 67.9208 21.0311C67.2423 21.1027 66.5603 21.1354 65.878 21.1289C65.1779 21.1289 62.6137 21.4761 62.105 21.6482C61.5963 21.8202 59.8724 23.1002 57.6096 23.5264C56.2318 23.7868 53.9753 25.6445 50.6759 26.1843C49.5229 26.3737 48.7527 27.0823 47.9251 27.3112C47.0974 27.54 44.9621 27.8194 44.278 27.8478C42.948 27.903 40.5066 28.2424 41.3326 29.0978C41.6611 29.4387 42.2065 29.4956 42.913 29.4451C43.0102 29.4451 43.2718 29.4182 43.4217 29.3961C44.4199 29.2793 45.6622 29.0505 47.0288 29.0805C49.6999 29.1373 54.7168 27.3206 57.2348 27.6379C58.4484 27.7957 60.1977 28.2408 61.5628 28.1524C64.3344 28.1856 66.0375 27.166 69.1934 27.5542C69.6845 27.6142 70.6094 28.4381 71.2106 28.214C72.8484 27.4248 74.7588 27.7941 76.6166 28.2519C76.8625 28.1764 77.1205 28.147 77.3773 28.165Z" fill="#003428"/>
</g>
<defs>
<clipPath id="clip0">
<rect width="84" height="46" fill="white"/>
</clipPath>
</defs>
</svg>
