<svg width="103" height="103" viewBox="0 0 103 103" fill="none" xmlns="http://www.w3.org/2000/svg">
<path d="M103 69.4129C103 66.479 100.613 64.0923 97.6794 64.0923H80.3917V38.0168C80.3917 18.8942 64.8345 3.33679 45.7119 3.33679C39.5679 3.33679 33.5271 4.97212 28.2419 8.06614C23.1159 11.0672 18.8138 15.3596 15.801 20.4793C15.3784 21.1972 15.618 22.1222 16.3362 22.5449C17.0539 22.9677 17.9793 22.7279 18.4018 22.0098C21.154 17.3329 25.0839 13.4119 29.7668 10.6705C34.5897 7.84707 40.1034 6.35457 45.7121 6.35457C63.1706 6.35457 77.3743 20.5581 77.3743 38.017V60.5947H70.3768V38.0168C70.3768 24.4168 59.3123 13.3523 45.7121 13.3523C32.6188 13.3523 21.8772 23.6081 21.0947 36.508H14.0865C14.2188 33.7019 14.7187 30.9404 15.5808 28.2799C15.8375 27.4873 15.4031 26.6363 14.6105 26.3796C13.8183 26.1233 12.9669 26.5573 12.7102 27.3499C11.7509 30.3113 11.2 33.3852 11.0657 36.508H10.9218C8.87027 36.508 7.06375 37.8913 6.52883 39.872L3.90193 49.6027C1.69588 49.9375 0 51.8466 0 54.1446C0 56.6779 2.06101 58.7387 4.59436 58.7387H30.5025C33.0358 58.7387 35.0968 56.6779 35.0968 54.1446C35.0968 51.8466 33.401 49.9375 31.1951 49.6025L28.568 39.8718C28.0333 37.8911 26.2268 36.5078 24.1752 36.5078H24.1179C24.8954 25.273 34.2829 16.3697 45.7119 16.3697C57.648 16.3697 67.359 26.0805 67.359 38.0166V83.4829H54.8314C52.0007 83.4829 49.6977 85.7857 49.6977 88.6166V94.5294C49.6977 97.3601 52.0005 99.6631 54.8314 99.6631H80.988C81.8214 99.6631 82.4968 98.9878 82.4968 98.1543C82.4968 97.3209 81.8214 96.6455 80.988 96.6455H54.8314C53.6646 96.6455 52.7153 95.6962 52.7153 94.5294V88.6166C52.7153 87.4498 53.6646 86.5004 54.8314 86.5004H92.9195C94.0863 86.5004 95.0356 87.4498 95.0356 88.6166V94.5294C95.0356 95.6962 94.0863 96.6455 92.9195 96.6455H88.0813C87.2478 96.6455 86.5725 97.3209 86.5725 98.1543C86.5725 98.9878 87.2478 99.6631 88.0813 99.6631H92.9195C95.7502 99.6631 98.0532 97.3603 98.0532 94.5294V88.6166C98.0532 85.7859 95.7504 83.4829 92.9195 83.4829H91.0013V75.919C91.0013 75.5072 90.9391 75.1101 90.8283 74.7337H97.6794C100.613 74.7339 103 72.347 103 69.4129ZM30.0197 52.5678C30.0213 52.5678 30.0229 52.5682 30.0245 52.5682C30.0265 52.5682 30.0285 52.5678 30.0305 52.5678H30.5025C31.3719 52.5678 32.0793 53.2751 32.0793 54.1446C32.0793 55.0138 31.3719 55.7211 30.5025 55.7211H4.59436C3.7249 55.7211 3.01758 55.0138 3.01758 54.1446C3.01758 53.2751 3.7249 52.5678 4.59436 52.5678H30.0197ZM24.1754 39.5256C24.8665 39.5256 25.475 39.9915 25.6548 40.6586L28.0552 49.5504H7.04142L9.4416 40.6586C9.62185 39.9917 10.2304 39.5256 10.9212 39.5256H24.1754ZM72.3668 75.919V83.4829H70.3766V70.9593H72.5965C72.8156 71.6791 73.1837 72.3339 73.6643 72.8894C72.8665 73.6546 72.3668 74.7287 72.3668 75.919ZM72.5752 67.9417H70.3766V63.6121H77.3741V64.1024C75.0888 64.2357 73.1873 65.818 72.5752 67.9417ZM87.9837 83.4829H75.3841V75.919C75.3841 75.2654 75.9158 74.7337 76.5694 74.7337H86.7984C87.452 74.7337 87.9837 75.2652 87.9837 75.919V83.4829ZM77.6873 71.7163C76.4174 71.7163 75.3843 70.6831 75.3843 69.4131C75.3843 68.1431 76.4176 67.1101 77.6873 67.1101H97.6794C98.9494 67.1101 99.9824 68.1433 99.9824 69.4131C99.9824 70.6833 98.9492 71.7163 97.6794 71.7163H77.6873Z" fill="#FCB415"/>
<path d="M103 69.4129C103 66.479 100.613 64.0923 97.6794 64.0923H80.3917V38.0168C80.3917 18.8942 64.8345 3.33679 45.7119 3.33679C39.5679 3.33679 33.5271 4.97212 28.2419 8.06614C23.1159 11.0672 18.8138 15.3596 15.801 20.4793C15.3784 21.1972 15.618 22.1222 16.3362 22.5449C17.0539 22.9677 17.9793 22.7279 18.4018 22.0098C21.154 17.3329 25.0839 13.4119 29.7668 10.6705C34.5897 7.84707 40.1034 6.35457 45.7121 6.35457C63.1706 6.35457 77.3743 20.5581 77.3743 38.017V60.5947H70.3768V38.0168C70.3768 24.4168 59.3123 13.3523 45.7121 13.3523C32.6188 13.3523 21.8772 23.6081 21.0947 36.508H14.0865C14.2188 33.7019 14.7187 30.9404 15.5808 28.2799C15.8375 27.4873 15.4031 26.6363 14.6105 26.3796C13.8183 26.1233 12.9669 26.5573 12.7102 27.3499C11.7509 30.3113 11.2 33.3852 11.0657 36.508H10.9218C8.87027 36.508 7.06375 37.8913 6.52883 39.872L3.90193 49.6027C1.69588 49.9375 0 51.8466 0 54.1446C0 56.6779 2.06101 58.7387 4.59436 58.7387H30.5025C33.0358 58.7387 35.0968 56.6779 35.0968 54.1446C35.0968 51.8466 33.401 49.9375 31.1951 49.6025L28.568 39.8718C28.0333 37.8911 26.2268 36.5078 24.1752 36.5078H24.1179C24.8954 25.273 34.2829 16.3697 45.7119 16.3697C57.648 16.3697 67.359 26.0805 67.359 38.0166V83.4829H54.8314C52.0007 83.4829 49.6977 85.7857 49.6977 88.6166V94.5294C49.6977 97.3601 52.0005 99.6631 54.8314 99.6631H80.988C81.8214 99.6631 82.4968 98.9878 82.4968 98.1543C82.4968 97.3209 81.8214 96.6455 80.988 96.6455H54.8314C53.6646 96.6455 52.7153 95.6962 52.7153 94.5294V88.6166C52.7153 87.4498 53.6646 86.5004 54.8314 86.5004H92.9195C94.0863 86.5004 95.0356 87.4498 95.0356 88.6166V94.5294C95.0356 95.6962 94.0863 96.6455 92.9195 96.6455H88.0813C87.2478 96.6455 86.5725 97.3209 86.5725 98.1543C86.5725 98.9878 87.2478 99.6631 88.0813 99.6631H92.9195C95.7502 99.6631 98.0532 97.3603 98.0532 94.5294V88.6166C98.0532 85.7859 95.7504 83.4829 92.9195 83.4829H91.0013V75.919C91.0013 75.5072 90.9391 75.1101 90.8283 74.7337H97.6794C100.613 74.7339 103 72.347 103 69.4129ZM30.0197 52.5678C30.0213 52.5678 30.0229 52.5682 30.0245 52.5682C30.0265 52.5682 30.0285 52.5678 30.0305 52.5678H30.5025C31.3719 52.5678 32.0793 53.2751 32.0793 54.1446C32.0793 55.0138 31.3719 55.7211 30.5025 55.7211H4.59436C3.7249 55.7211 3.01758 55.0138 3.01758 54.1446C3.01758 53.2751 3.7249 52.5678 4.59436 52.5678H30.0197ZM24.1754 39.5256C24.8665 39.5256 25.475 39.9915 25.6548 40.6586L28.0552 49.5504H7.04142L9.4416 40.6586C9.62185 39.9917 10.2304 39.5256 10.9212 39.5256H24.1754ZM72.3668 75.919V83.4829H70.3766V70.9593H72.5965C72.8156 71.6791 73.1837 72.3339 73.6643 72.8894C72.8665 73.6546 72.3668 74.7287 72.3668 75.919ZM72.5752 67.9417H70.3766V63.6121H77.3741V64.1024C75.0888 64.2357 73.1873 65.818 72.5752 67.9417ZM87.9837 83.4829H75.3841V75.919C75.3841 75.2654 75.9158 74.7337 76.5694 74.7337H86.7984C87.452 74.7337 87.9837 75.2652 87.9837 75.919V83.4829ZM77.6873 71.7163C76.4174 71.7163 75.3843 70.6831 75.3843 69.4131C75.3843 68.1431 76.4176 67.1101 77.6873 67.1101H97.6794C98.9494 67.1101 99.9824 68.1433 99.9824 69.4131C99.9824 70.6833 98.9492 71.7163 97.6794 71.7163H77.6873Z" fill="#FCB415"/>
<path d="M19.8927 61.629C19.292 60.9716 18.4378 60.5944 17.5486 60.5944C17.5484 60.5944 17.5484 60.5944 17.5482 60.5944C16.6592 60.5944 15.8047 60.9714 15.2042 61.629C13.0452 63.993 9.42328 68.6595 9.42328 73.3521C9.42328 77.8324 13.0681 81.4772 17.5484 81.4772C22.0287 81.4772 25.6737 77.8324 25.6737 73.3521C25.6737 68.6591 22.0516 63.9928 19.8927 61.629ZM17.5482 78.4596C14.732 78.4596 12.4407 76.1683 12.4407 73.3521C12.4407 69.5409 15.9314 65.3072 17.4319 63.664C17.4635 63.6294 17.5027 63.6119 17.548 63.6119C17.5937 63.6119 17.6325 63.6294 17.6639 63.6638C19.1648 65.3072 22.6556 69.5407 22.6556 73.3521C22.656 76.1685 20.3646 78.4596 17.5482 78.4596Z" fill="#FCB415"/>
</svg>
