<svg width="119" height="95" viewBox="0 0 119 95" fill="none" xmlns="http://www.w3.org/2000/svg">
<path d="M116.983 90.5046H91.5975V78.467C97.141 77.7214 102.054 74.2592 104.911 69.0105C108.707 68.1428 112.155 65.9453 114.706 62.7474C117.475 59.2757 119 54.8388 119 50.2538C119 43.2791 115.429 36.8236 109.809 33.4704C109.224 21.8394 100.258 12.5653 89.3379 12.5653C85.9006 12.5653 82.4996 13.5008 79.5028 15.2707C78.5703 15.8213 78.2607 17.0234 78.8113 17.9556C79.3622 18.8883 80.5645 19.1977 81.4965 18.6471C83.89 17.2335 86.6014 16.4865 89.3379 16.4865C98.4635 16.4865 105.901 24.6336 105.919 34.6477C105.92 35.3856 106.335 36.0603 106.994 36.3936C111.905 38.8794 115.079 44.3196 115.079 50.2536C115.079 57.7427 110.007 64.2268 103.281 65.3361C102.651 65.4402 102.112 65.844 101.834 66.4192C99.7309 70.7813 95.9303 73.73 91.5975 74.4977V57.1486L101.247 48.2755C102.044 47.5424 102.096 46.3022 101.363 45.5052C100.629 44.7083 99.3894 44.656 98.5925 45.3893L91.5975 51.8215V38.7334C91.5975 37.6505 90.7197 36.7727 89.6368 36.7727C88.554 36.7727 87.6761 37.6505 87.6761 38.7334V62.4636L80.6811 56.0314C79.8842 55.2981 78.6437 55.3504 77.9109 56.1473C77.1779 56.9443 77.2299 58.1845 78.0269 58.9176L87.6763 67.7907V74.5895C83.053 73.9938 78.9756 70.9347 76.7879 66.3058C76.5264 65.7524 76.0213 65.3529 75.4228 65.226C68.9169 63.8437 64.195 57.5472 64.195 50.2536C64.195 44.5026 67.0952 39.2975 71.7636 36.6704C72.3884 36.3188 72.7714 35.6543 72.7626 34.9377C72.7621 34.8833 72.7602 34.8294 72.7584 34.7757C72.7572 34.7446 72.756 34.7137 72.756 34.6828C72.756 30.5984 73.9614 26.7393 76.2417 23.523C76.868 22.6396 76.6596 21.4157 75.7764 20.7898C74.8929 20.1632 73.669 20.3721 73.0431 21.2551C70.4453 24.919 69.0034 29.2594 68.849 33.8551C63.5317 37.3226 60.2741 43.4987 60.2741 50.2538C60.2741 59.0403 65.8522 66.6939 73.6704 68.8341C76.6131 74.3761 81.8179 77.9626 87.6768 78.5367V90.5046H86.435C86.1461 85.3734 82.6386 80.9095 77.7543 79.4023C76.2217 76.1416 73.2448 73.7774 69.7443 73.0109C68.5966 67.7942 63.9006 63.9042 58.4282 63.9042C54.2083 63.9042 50.382 66.1721 48.3423 69.7821C44.3253 69.9348 40.7137 72.0808 38.6391 75.4053C37.3462 71.8483 34.0342 69.2585 30.1564 68.98V63.8251C35.4494 63.0893 40.1362 59.7787 42.8745 54.7705C46.5122 53.93 49.8158 51.8197 52.2616 48.7536C54.9247 45.4153 56.3913 41.1487 56.3913 36.7402C56.3913 30.0492 52.9726 23.8545 47.5899 20.6231C47.0058 9.46434 38.3944 0.574219 27.9089 0.574219C23.8869 0.574219 20.0182 1.87136 16.7209 4.32596C15.8525 4.97233 15.6724 6.20091 16.3188 7.06947C16.9651 7.93779 18.1935 8.11792 19.0623 7.47156C21.6775 5.52433 24.7366 4.4954 27.9089 4.4954C36.5994 4.4954 43.6831 12.2578 43.6996 21.7992C43.701 22.5371 44.1164 23.2118 44.7748 23.5451C49.4493 25.9109 52.4694 31.0905 52.4694 36.7402C52.4694 43.8697 47.6438 50.0421 41.2446 51.0975C40.6149 51.2016 40.075 51.6054 39.7978 52.1806C37.8117 56.2991 34.2373 59.0947 30.156 59.8524V43.3783L39.3673 34.9082C40.1643 34.1752 40.2161 32.9349 39.4833 32.138C38.7505 31.3408 37.51 31.2887 36.7131 32.022L30.156 38.0515V25.7113C30.156 24.6284 29.2781 23.7506 28.1953 23.7506C27.1124 23.7506 26.2346 24.6284 26.2346 25.7113V48.2401L19.6777 42.2107C18.8805 41.4774 17.6403 41.5297 16.9075 42.3266C16.1744 43.1236 16.2265 44.364 17.0235 45.0969L26.2343 53.567V59.9442C21.875 59.3478 18.0364 56.4469 15.969 52.0732C15.7075 51.5198 15.2025 51.1203 14.604 50.9934C8.41389 49.6777 3.92095 43.6837 3.92095 36.7402C3.92095 31.2641 6.68095 26.3088 11.1242 23.8085C11.7484 23.457 12.1315 22.7937 12.1231 22.0774C12.1226 22.0244 12.121 21.9714 12.1192 21.9186C12.1185 21.8901 12.1171 21.8617 12.1171 21.8326C12.1171 19.4076 12.564 17.0624 13.4453 14.8626C13.7075 14.209 14.0094 13.567 14.3434 12.9539C14.8613 12.0028 14.5103 10.8124 13.5592 10.2945C12.6082 9.77625 11.4175 10.1274 10.8999 11.0785C10.4929 11.826 10.1247 12.6083 9.80586 13.4041C8.83992 15.8146 8.30465 18.3638 8.21098 20.9938C3.1184 24.333 0 30.2598 0 36.7402C0 45.1764 5.34988 52.5276 12.852 54.5994C15.6731 59.8882 20.6397 63.3196 26.2346 63.8939V69.502C24.0889 70.2518 22.2525 71.7342 21.0711 73.7254C16.3097 73.9961 12.4624 77.5127 11.7168 82.1504C8.20517 83.71 5.59438 86.803 4.63309 90.5041H1.96071C0.877856 90.5041 0 91.382 0 92.4648C0 93.5477 0.877856 94.4255 1.96071 94.4255H6.25586H50.5168H84.4143H116.983C118.066 94.4255 118.944 93.5477 118.944 92.4648C118.944 91.382 118.066 90.5046 116.983 90.5046ZM8.74532 90.5046C9.68058 88.1211 11.648 86.2224 14.1545 85.4106C14.9431 85.1552 15.4858 84.4316 15.5102 83.6033C15.609 80.2539 18.3118 77.63 21.6635 77.63C21.7979 77.63 21.9448 77.6363 22.1254 77.6496C22.9653 77.7102 23.7511 77.2305 24.0772 76.4538C24.9911 74.2797 27.105 72.8747 29.4627 72.8747C32.4902 72.8747 35.0459 75.2366 35.2811 78.2518C35.3564 79.2142 36.1208 79.9789 37.0835 80.0542C37.6181 80.0958 38.135 80.2132 38.6245 80.3921C38.6266 80.3928 38.6284 80.394 38.6305 80.3947C38.7214 80.4282 38.8109 80.4642 38.8997 80.5018C38.9187 80.51 38.938 80.5181 38.9571 80.5265C39.0401 80.5625 39.1221 80.6004 39.2028 80.6401C39.2302 80.6539 39.2571 80.668 39.2843 80.682C39.3961 80.7392 39.5056 80.8 39.613 80.864C39.6716 80.8991 39.7306 80.933 39.7878 80.9702C39.8312 80.9981 39.8731 81.028 39.9154 81.0566C39.9797 81.1006 40.0437 81.1452 40.1064 81.1917C40.142 81.2182 40.1771 81.2447 40.2117 81.2719C40.2875 81.3309 40.3623 81.3918 40.4351 81.4548C40.4553 81.472 40.4755 81.4885 40.4955 81.5059C40.6886 81.677 40.8706 81.8613 41.04 82.057C41.0556 82.0751 41.071 82.0932 41.0863 82.1116C41.1576 82.196 41.2264 82.2827 41.2932 82.3712C41.3059 82.3882 41.3192 82.4049 41.3317 82.4221C41.484 82.6294 41.6227 82.8479 41.7473 83.0759C41.7638 83.1061 41.7794 83.137 41.7956 83.1677C41.8398 83.2521 41.8819 83.3381 41.9221 83.4252C41.9381 83.4596 41.9542 83.494 41.9695 83.5287C42.019 83.6416 42.066 83.7562 42.1085 83.8727C42.1101 83.8768 42.1115 83.8806 42.1131 83.8847C42.343 84.5197 42.8836 84.9918 43.5437 85.134C43.7189 85.1717 43.8907 85.2177 44.0597 85.2695C44.1147 85.2865 44.1682 85.3072 44.2228 85.3255C44.3353 85.3632 44.4473 85.4015 44.5568 85.4452C44.62 85.4706 44.6816 85.4991 44.7437 85.5263C44.8415 85.5691 44.9389 85.6126 45.0342 85.66C45.0984 85.6918 45.1606 85.7262 45.2234 85.7601C45.3136 85.8087 45.4028 85.8589 45.49 85.9117C45.552 85.9491 45.6132 85.9879 45.6738 86.0274C45.7584 86.0825 45.8419 86.1399 45.9237 86.199C45.982 86.241 46.0397 86.2831 46.0964 86.327C46.1775 86.3898 46.256 86.4551 46.3339 86.5213C46.3867 86.5662 46.4401 86.6108 46.4915 86.6573C46.5712 86.7298 46.6474 86.8054 46.7234 86.8813C46.7683 86.9262 46.8148 86.9701 46.8582 87.0166C46.9438 87.1075 47.0247 87.2023 47.1049 87.2976C47.1346 87.3332 47.1662 87.3667 47.1953 87.4027C47.3022 87.5361 47.4042 87.6732 47.5004 87.8148C47.5207 87.8443 47.5381 87.8759 47.5576 87.9056C47.6317 88.0186 47.704 88.1327 47.7712 88.2501C47.8014 88.3033 47.8286 88.3586 47.8574 88.4128C47.9095 88.5099 47.9606 88.6073 48.0078 88.707C48.0371 88.7691 48.0631 88.8325 48.0903 88.8953C48.1317 88.9908 48.1717 89.0863 48.2084 89.1839C48.2335 89.2509 48.2565 89.3185 48.2795 89.3864C48.3123 89.4831 48.343 89.5805 48.3713 89.679C48.3913 89.7487 48.4099 89.8189 48.4278 89.8893C48.4527 89.9893 48.4745 90.0899 48.4947 90.1913C48.5089 90.2619 48.5226 90.3326 48.5345 90.4042C48.5401 90.4374 48.5428 90.4711 48.5477 90.5046H8.74532ZM52.5012 90.5048V90.5046C52.4996 90.486 52.4956 90.4676 52.4942 90.4492C52.4717 90.2152 52.4426 89.9826 52.4043 89.7527C52.402 89.7392 52.3989 89.7257 52.3966 89.7122C52.3566 89.4777 52.309 89.2455 52.2532 89.0159C52.2509 89.0059 52.249 88.9959 52.2465 88.9864C52.1905 88.7589 52.1256 88.5346 52.055 88.3128C52.0473 88.2891 52.0403 88.2647 52.0324 88.241C51.9627 88.0277 51.8851 87.8175 51.8016 87.6098C51.7895 87.5798 51.7779 87.5496 51.7656 87.5198C51.6819 87.3164 51.5915 87.1166 51.4953 86.9197C51.4802 86.8886 51.4651 86.8576 51.4495 86.8267C51.3514 86.631 51.2478 86.4386 51.1381 86.2499C51.1213 86.2213 51.1046 86.1931 51.0876 86.1646C50.9747 85.9742 50.8564 85.7873 50.7316 85.6049C50.7164 85.5826 50.7006 85.561 50.6853 85.5391C50.5551 85.3518 50.4201 85.1679 50.2783 84.9897C50.2695 84.9785 50.26 84.9678 50.2511 84.9564C50.1029 84.7714 49.949 84.5911 49.7884 84.4165C49.7865 84.4147 49.7849 84.4126 49.7833 84.4107C49.6243 84.2383 49.4586 84.0716 49.2882 83.9098C49.2733 83.8957 49.2589 83.881 49.2441 83.8671C49.0802 83.7134 48.9105 83.5656 48.7367 83.4225C48.7134 83.4034 48.6904 83.3839 48.667 83.3646C48.4959 83.2263 48.3202 83.0936 48.1401 82.966C48.1122 82.9462 48.0843 82.9265 48.0564 82.9069C47.8765 82.7819 47.6922 82.6624 47.5039 82.5488C47.4744 82.5311 47.4447 82.5135 47.4151 82.496C47.2243 82.3833 47.03 82.2762 46.8318 82.1755C46.8046 82.1616 46.7769 82.1488 46.7495 82.1353C46.5449 82.0342 46.3372 81.9382 46.125 81.8504C46.1061 81.8425 46.0871 81.8357 46.0683 81.828C45.8458 81.7376 45.6201 81.6533 45.39 81.5782C45.3894 81.578 45.3884 81.5775 45.3875 81.577C45.3775 81.5568 45.3661 81.538 45.3561 81.518C45.2769 81.3593 45.1939 81.2033 45.1065 81.0499C45.0619 80.9716 45.0142 80.8951 44.9677 80.8179C44.9113 80.7252 44.8543 80.6327 44.795 80.5418C44.7381 80.4542 44.6795 80.3682 44.6196 80.2827C44.5675 80.2085 44.514 80.1356 44.4601 80.0628C44.3923 79.971 44.3242 79.8797 44.253 79.7904C44.2112 79.7381 44.1673 79.6879 44.1245 79.6368C43.9593 79.438 43.7866 79.2463 43.606 79.0613C43.5748 79.0295 43.5451 78.9965 43.5137 78.9651C43.424 78.8758 43.3313 78.7903 43.2383 78.7045C43.1846 78.655 43.1311 78.6058 43.0763 78.5574C42.9875 78.4793 42.8973 78.4026 42.8053 78.3273C42.7383 78.2725 42.6702 78.2197 42.6019 78.1665C42.5166 78.1007 42.432 78.0342 42.3444 77.971C42.2212 77.8818 42.0952 77.7967 41.9679 77.7132C41.9339 77.6909 41.9016 77.6663 41.8672 77.6445C43.2962 75.2305 45.9118 73.6959 48.8018 73.6959C48.9786 73.6959 49.1706 73.704 49.4058 73.7212C50.2446 73.7837 51.0314 73.3019 51.3575 72.5254C52.557 69.6708 55.3326 67.8263 58.4282 67.8263C62.4033 67.8263 65.7588 70.9277 66.0674 74.8868C66.1425 75.8492 66.9072 76.6139 67.8698 76.689C70.8604 76.9221 73.4528 78.8965 74.4746 81.7193C74.7044 82.3542 75.245 82.8263 75.9051 82.9685C79.5225 83.7481 82.2061 86.8588 82.5075 90.5055H52.5012V90.5048Z" fill="#FCB415"/>
</svg>
