<svg width="113" height="113" viewBox="0 0 113 113" fill="none" xmlns="http://www.w3.org/2000/svg">
<g clip-path="url(#clip0)">
<path d="M111.322 107.511C106.199 107.511 103.696 106.387 101.045 105.197C98.188 103.915 95.2339 102.589 89.391 102.589C89.1513 102.589 88.916 102.591 88.6874 102.596C83.3057 102.699 80.4763 103.969 77.7396 105.197C75.0887 106.387 72.5853 107.511 67.4621 107.511C62.3394 107.511 59.8359 106.387 57.1853 105.197C54.3287 103.915 51.3751 102.588 45.5337 102.588C39.6917 102.588 36.7378 103.915 33.8815 105.197C31.3412 106.338 28.9417 107.415 24.2442 107.505C24.0361 107.509 23.8218 107.511 23.6051 107.511C18.4837 107.511 15.9807 106.387 13.3307 105.197C10.4744 103.915 7.52047 102.588 1.6789 102.588C0.751945 102.588 0.000671387 103.34 0.000671387 104.267C0.000671387 105.193 0.751945 105.945 1.6789 105.945C6.80186 105.945 9.30529 107.069 11.9559 108.259C14.8118 109.541 17.7651 110.868 23.6053 110.868C23.8452 110.868 24.0829 110.865 24.3109 110.861C29.6912 110.758 32.5204 109.488 35.2567 108.259C37.9073 107.069 40.4108 105.945 45.5339 105.945C50.6567 105.945 53.1601 107.069 55.8108 108.259C58.6673 109.542 61.621 110.868 67.4623 110.868C73.3041 110.868 76.258 109.542 79.1144 108.26C81.6551 107.119 84.0552 106.042 88.7538 105.952C88.9621 105.948 89.1742 105.945 89.3907 105.945C94.5146 105.945 97.0189 107.07 99.6698 108.26C102.526 109.542 105.48 110.868 111.321 110.868C112.248 110.868 112.999 110.117 112.999 109.19C113 108.263 112.249 107.511 111.322 107.511Z" fill="#FCB415"/>
<path d="M12.1065 85.0412C12.0581 84.1154 11.2645 83.4049 10.3433 83.4526L1.59107 83.9079C1.07484 83.9348 0.59989 84.1979 0.303265 84.6212C0.00708164 85.0445 -0.0778891 85.581 0.073734 86.0752L4.13533 99.3333C4.3567 100.056 5.02124 100.521 5.73918 100.52C5.90206 100.52 6.06759 100.496 6.23113 100.446C7.11747 100.175 7.61582 99.2362 7.34436 98.3498L3.91264 87.1476L10.5174 86.804C11.4433 86.7563 12.1544 85.9668 12.1065 85.0412Z" fill="#FCB415"/>
<path d="M112.683 78.8967C112.349 78.4338 111.801 78.173 111.234 78.2019L16.6143 83.126C15.6887 83.1741 14.9776 83.9636 15.0255 84.8892C15.0738 85.8148 15.8657 86.5268 16.7887 86.4778L108.808 81.689L101.075 101.397C100.736 102.26 101.161 103.234 102.024 103.572C102.225 103.651 102.433 103.688 102.636 103.688C103.306 103.688 103.94 103.284 104.199 102.623L112.883 80.4906C113.092 79.9598 113.016 79.3595 112.683 78.8967Z" fill="#FCB415"/>
<path d="M90.0705 58.0619H86.5428L67.6091 33.0141C67.0501 32.2745 65.9975 32.1284 65.2582 32.6875C64.5186 33.2465 64.3725 34.2988 64.9313 35.0382L82.3353 58.0622H55.1656V22.1191L61.0986 29.968C61.4288 30.4045 61.9309 30.6343 62.4387 30.6343C62.7912 30.6343 63.1465 30.5235 63.4495 30.2946C64.1891 29.7356 64.3352 28.6833 63.7764 27.9439L55.1659 16.5527V3.81067C55.1659 2.88394 54.4146 2.13245 53.4876 2.13245C52.5607 2.13245 51.8094 2.88394 51.8094 3.81067V7.99852L14.6576 64.4389H10.6278C9.7008 64.4389 8.94952 65.1904 8.94952 66.1172C8.94952 67.0439 9.70102 67.7954 10.6278 67.7954H51.8092V72.1582H26.3019C25.5698 72.1582 24.9218 72.633 24.7015 73.3315L23.2619 77.8939C22.9832 78.7778 23.4733 79.7204 24.3575 79.9992C24.5254 80.0521 24.6956 80.0775 24.8629 80.0775C25.5758 80.0775 26.237 79.6198 26.4628 78.9038L27.5321 75.5147H75.4736L77.5566 78.2775C78.1146 79.0175 79.1671 79.1651 79.9069 78.6072C80.6472 78.049 80.7948 76.9969 80.2366 76.2567L77.6502 72.8261C77.3331 72.4057 76.8372 72.1582 76.3103 72.1582H55.1661V61.4184H90.0707C90.9977 61.4184 91.749 60.6669 91.749 59.7402C91.7487 58.8132 90.9977 58.0619 90.0705 58.0619ZM51.8092 64.4389H18.6759L51.8092 14.1029V64.4389Z" fill="#FCB415"/>
<path d="M92.4199 85.9188C89.6439 85.9188 87.3854 88.1773 87.3854 90.9533C87.3854 93.7293 89.6439 95.988 92.4199 95.988C95.1959 95.988 97.4544 93.7295 97.4544 90.9533C97.4544 88.1773 95.1959 85.9188 92.4199 85.9188ZM92.4199 92.6313C91.4947 92.6313 90.7419 91.8785 90.7419 90.9531C90.7419 90.0279 91.4947 89.2751 92.4199 89.2751C93.3451 89.2751 94.0979 90.0279 94.0979 90.9531C94.0979 91.8782 93.3451 92.6313 92.4199 92.6313Z" fill="#FCB415"/>
</g>
<defs>
<clipPath id="clip0">
<rect width="113" height="113" fill="white"/>
</clipPath>
</defs>
</svg>
