<svg width="93" height="93" viewBox="0 0 93 93" fill="none" xmlns="http://www.w3.org/2000/svg">
<path d="M47.7798 0.533306C47.442 0.195454 46.9734 0.00109863 46.4956 0.00109863C46.0179 0.00109863 45.5493 0.195454 45.2114 0.533306C44.8738 0.871157 44.6792 1.33979 44.6792 1.8175C44.6792 2.29522 44.8736 2.76385 45.2114 3.1017C45.5493 3.43956 46.0181 3.63391 46.4956 3.63391C46.9734 3.63391 47.442 3.43956 47.7798 3.1017C48.1175 2.76385 48.3121 2.29522 48.3121 1.8175C48.3121 1.33979 48.1177 0.871157 47.7798 0.533306Z" fill="#FCB415"/>
<path d="M35.643 24.9797C35.3033 24.6419 34.8367 24.4475 34.3588 24.4475C33.881 24.4475 33.4124 24.6419 33.0727 24.9797C32.7351 25.3176 32.5424 25.7862 32.5424 26.2639C32.5424 26.7416 32.7351 27.2103 33.0727 27.5499C33.4124 27.8878 33.8792 28.0803 34.3588 28.0803C34.8367 28.0803 35.3051 27.8878 35.643 27.5499C35.9808 27.2103 36.1752 26.7416 36.1752 26.2639C36.1752 25.7862 35.981 25.3176 35.643 24.9797Z" fill="#FCB415"/>
<path d="M30.6248 29.998C29.9153 29.2885 28.7655 29.2885 28.056 29.998L11.8677 46.1863C11.1584 46.8957 11.1584 48.0458 11.8677 48.7553C12.2224 49.1099 12.6872 49.2873 13.1521 49.2873C13.6169 49.2873 14.0817 49.1099 14.4364 48.7553L30.6248 32.5669C31.3341 31.8576 31.3341 30.7075 30.6248 29.998Z" fill="#FCB415"/>
<path d="M85.7346 85.7223H91.1836C92.1866 85.7223 93 84.9089 93 83.9059V11.9894C93 11.9729 92.998 11.9567 92.9975 11.9402V1.81775C92.9975 0.814548 92.1841 0.00134277 91.1811 0.00134277H55.7593C54.7563 0.00134277 53.9429 0.814548 53.9429 1.81775C53.9429 2.82095 54.7563 3.63416 55.7593 3.63416H89.3646V10.173H3.63263V3.63416H37.8935C38.8965 3.63416 39.7099 2.82095 39.7099 1.81775C39.7099 0.814548 38.8965 0.00134277 37.8935 0.00134277H1.81641C0.813387 0.00134277 0 0.814548 0 1.81775V11.9893V83.9057C0 84.9087 0.813387 85.7221 1.81641 85.7221H63.2118V89.0485C63.2118 89.1556 63.2173 89.2614 63.2258 89.3663H26.264C25.2609 89.3663 24.4476 90.1797 24.4476 91.1828C24.4476 92.1858 25.2609 92.9992 26.264 92.9992H91.1836C92.1866 92.9992 93 92.1858 93 91.1828C93 90.1797 92.1866 89.3663 91.1836 89.3663H85.7206C85.7289 89.2614 85.7346 89.1556 85.7346 89.0485V85.7223ZM44.6849 82.0895H3.63263V77.5334L37.473 43.693C38.1823 42.9837 38.1823 41.8335 37.473 41.1241C36.7635 40.4147 35.6137 40.4147 34.9041 41.1241L3.63263 72.3957V13.8057H44.6849V82.0895ZM82.1019 89.0483C82.1019 89.2236 81.9593 89.3662 81.7841 89.3662H67.1623C66.9871 89.3662 66.8445 89.2236 66.8445 89.0483V71.2027H82.1019V89.0483ZM71.1821 67.5698H69.5567C69.0678 65.1962 68.3966 62.8775 67.5603 60.6775C69.4834 62.4289 70.7946 64.9019 71.1821 67.5698ZM69.0338 49.9558C72.441 52.4003 74.5667 56.3728 74.6325 60.6323C74.3462 61.6941 74.1179 62.7742 73.9506 63.8676C73.4876 62.6408 72.8724 61.4787 72.1251 60.4174C71.4781 56.8143 70.4444 53.3125 69.0338 49.9558ZM77.675 53.3485C77.4519 53.7308 77.2398 54.1193 77.034 54.5111C76.7751 53.8696 76.4776 53.2453 76.1441 52.6412C76.1485 52.6001 76.1537 52.5592 76.1554 52.5173C76.1619 52.3536 76.3129 49.3146 78.3552 46.9785C77.8899 48.9742 77.6503 51.0236 77.6503 53.0633C77.6505 53.1605 77.6603 53.2553 77.675 53.3485ZM81.729 53.7181C80.4185 58.1879 79.5588 63.1276 79.384 67.5698H77.2572C77.4036 62.5827 78.9872 57.7785 81.729 53.7181ZM83.9182 67.5698H83.0199C83.3291 60.4495 85.57 51.7542 88.475 46.6899C88.4997 46.647 88.528 46.5914 88.5491 46.5466C88.9015 45.796 88.7009 44.9018 88.0616 44.3738C87.422 43.8456 86.5062 43.8176 85.8359 44.3057C84.4184 45.3376 83.1071 46.4868 81.9108 47.7338C82.2647 46.2376 82.7633 44.7761 83.4032 43.3864C83.7256 42.6858 83.5705 41.8577 83.0161 41.3213C82.4616 40.7851 81.6291 40.6572 80.9392 41.0029L78.9886 41.9805C75.6401 43.6603 74.0267 46.4979 73.2482 48.7895C71.9119 47.4535 70.3471 46.3291 68.596 45.4921L65.7566 44.1351C65.0446 43.7947 64.1945 43.9531 63.6527 44.5267C63.111 45.1003 63.0015 45.9582 63.3819 46.6496L63.5715 46.9941C65.1683 49.8962 66.4385 52.9447 67.374 56.1012C67.1389 55.9706 66.9011 55.8451 66.6581 55.729L64.277 54.5911C63.565 54.251 62.7145 54.4092 62.173 54.983C61.6314 55.5569 61.522 56.4147 61.9028 57.1061L62.0615 57.3945C63.7297 60.427 65.0204 63.9118 65.8411 67.5695H65.0275C64.0245 67.5695 63.2111 68.3829 63.2111 69.3859V82.0891H48.3169V13.8057H89.3666V82.0895H85.734V69.3862C85.7346 68.3832 84.9212 67.5698 83.9182 67.5698Z" fill="#FCB415"/>
<path d="M19.1106 89.8981C18.7709 89.5601 18.3039 89.3659 17.8264 89.3659C17.3487 89.3659 16.88 89.5601 16.5422 89.8981C16.2025 90.236 16.01 90.7046 16.01 91.1823C16.01 91.66 16.2025 92.1287 16.5422 92.4663C16.88 92.8042 17.3487 92.9987 17.8264 92.9987C18.3041 92.9987 18.7727 92.8044 19.1106 92.4663C19.4483 92.1287 19.6428 91.66 19.6428 91.1823C19.6428 90.7046 19.4484 90.236 19.1106 89.8981Z" fill="#FCB415"/>
</svg>
