<svg width="93" height="93" viewBox="0 0 93 93" fill="none" xmlns="http://www.w3.org/2000/svg">
<g clip-path="url(#clip0)">
<path d="M92.7689 61.4072V31.5717C92.7686 31.2534 92.6655 30.9436 92.475 30.6885C92.2844 30.4335 92.0166 30.2468 91.7114 30.1563L77.9031 26.06C78.9722 23.4461 79.6372 20.853 79.6372 18.4401C79.6372 13.6097 77.7184 8.97725 74.3028 5.56169C70.8873 2.14613 66.2548 0.227295 61.4245 0.227295C56.5942 0.227295 51.9617 2.14613 48.5461 5.56169C45.1305 8.97725 43.2117 13.6097 43.2117 18.4401C43.2117 20.8484 43.8767 23.4438 44.9458 26.06L31.5532 30.0316L2.12647 21.2941C1.90566 21.229 1.6727 21.2163 1.44615 21.2572C1.21961 21.2981 1.00574 21.3913 0.821604 21.5295C0.637468 21.6676 0.488155 21.8469 0.385567 22.053C0.28298 22.2591 0.229955 22.4863 0.230721 22.7165V82.4312C0.230636 82.7497 0.333591 83.0596 0.524203 83.3148C0.714815 83.5699 0.982853 83.7565 1.28827 83.8467L31.126 92.6997H31.1491H31.163C31.2184 92.7153 31.2747 92.7277 31.3316 92.7366H31.3777C31.5041 92.7547 31.6324 92.7547 31.7587 92.7366H31.8049C31.8618 92.7275 31.918 92.7152 31.9735 92.6997H31.9873H32.0012L60.8322 84.1561C61.0204 84.24 61.2242 84.2834 61.4302 84.2834C61.6363 84.2834 61.8401 84.24 62.0283 84.1561L90.8709 92.7135C91.0911 92.7785 91.3234 92.7912 91.5495 92.7507C91.7755 92.7102 91.989 92.6176 92.1729 92.4802C92.3569 92.3428 92.5064 92.1645 92.6094 91.9593C92.7125 91.7541 92.7663 91.5277 92.7666 91.2981V61.4187C92.7666 61.4187 92.7666 61.4187 92.7666 61.4072H92.7689ZM89.8156 32.6732V59.4583L62.9081 51.469V47.2688C64.8338 45.2853 72.396 37.2289 76.6655 28.7708L89.8272 32.6732H89.8156ZM61.4302 3.18406C65.4755 3.18894 69.3537 4.79808 72.2141 7.65851C75.0745 10.5189 76.6837 14.3971 76.6886 18.4424C76.6886 20.8415 75.8873 23.5223 74.6381 26.217C74.5754 26.3176 74.525 26.4253 74.488 26.538C70.9297 34.0494 64.0464 41.7478 61.4302 44.5325C58.8141 41.7616 51.9377 34.0632 48.3771 26.5541C48.3381 26.4304 48.283 26.3124 48.2131 26.2031C46.9709 23.5038 46.1719 20.8369 46.1719 18.4424C46.1768 14.3971 47.786 10.5189 50.6464 7.65851C53.5068 4.79808 57.385 3.18894 61.4302 3.18406ZM59.9524 47.2688V51.469L33.0449 59.4537V32.6685L46.2066 28.7662C50.4668 37.2289 58.029 45.2853 59.9524 47.2688ZM3.18402 54.5493L13.3855 57.5834C13.5714 57.6386 13.7663 57.6566 13.9591 57.6364C14.152 57.6163 14.339 57.5584 14.5094 57.466C14.6799 57.3735 14.8305 57.2485 14.9526 57.0978C15.0747 56.9472 15.166 56.774 15.2212 56.5882C15.2764 56.4023 15.2944 56.2073 15.2743 56.0145C15.2541 55.8216 15.1962 55.6347 15.1038 55.4642C15.0114 55.2937 14.8863 55.1431 14.7357 55.021C14.5851 54.8989 14.4119 54.8076 14.226 54.7525L3.18402 51.469V24.6838L30.0916 32.6685V59.4537L19.8901 56.4288C19.5147 56.3174 19.1104 56.3596 18.7662 56.5463C18.4219 56.7329 18.1659 57.0486 18.0544 57.424C17.943 57.7994 17.9852 58.2038 18.1718 58.548C18.3585 58.8923 18.6742 59.1483 19.0496 59.2598L30.0916 62.5363V89.3215L3.18402 81.3298V54.5446V54.5493ZM62.9081 81.3344V70.6435C62.9159 70.4446 62.8835 70.2463 62.8129 70.0602C62.7422 69.8742 62.6347 69.7044 62.4968 69.5609C62.3589 69.4175 62.1935 69.3034 62.0104 69.2254C61.8273 69.1474 61.6304 69.1072 61.4314 69.1072C61.2324 69.1072 61.0355 69.1474 60.8524 69.2254C60.6693 69.3034 60.5039 69.4175 60.366 69.5609C60.2281 69.7044 60.1206 69.8742 60.0499 70.0602C59.9793 70.2463 59.9469 70.4446 59.9548 70.6435V81.3344L33.0449 89.3146V62.5294L59.9548 54.5446V64.7415C59.9469 64.9403 59.9793 65.1387 60.0499 65.3247C60.1206 65.5107 60.2281 65.6805 60.366 65.824C60.5039 65.9674 60.6693 66.0816 60.8524 66.1595C61.0355 66.2375 61.2324 66.2777 61.4314 66.2777C61.6304 66.2777 61.8273 66.2375 62.0104 66.1595C62.1935 66.0816 62.3589 65.9674 62.4968 65.824C62.6347 65.6805 62.7422 65.5107 62.8129 65.3247C62.8835 65.1387 62.9159 64.9403 62.9081 64.7415V54.5585L89.8179 62.5432V89.3284L62.9081 81.3344Z" fill="#FCB415" stroke="#FCB415" stroke-width="0.620717" stroke-miterlimit="10"/>
<path d="M61.4304 28.7801C63.475 28.7801 65.4737 28.1738 67.1737 27.0379C68.8737 25.902 70.1987 24.2875 70.9812 22.3985C71.7636 20.5095 71.9683 18.431 71.5694 16.4257C71.1706 14.4203 70.186 12.5783 68.7402 11.1326C67.2945 9.68683 65.4525 8.70226 63.4472 8.30338C61.4419 7.90449 59.3633 8.10922 57.4743 8.89165C55.5854 9.67409 53.9708 10.9991 52.8349 12.6991C51.699 14.3991 51.0927 16.3978 51.0927 18.4424C51.0957 21.1832 52.1859 23.8109 54.1239 25.7489C56.0619 27.6869 58.6896 28.7771 61.4304 28.7801ZM61.4304 11.0603C62.8918 11.0603 64.3204 11.4937 65.5355 12.3056C66.7506 13.1175 67.6977 14.2715 68.2569 15.6217C68.8162 16.9719 68.9625 18.4576 68.6774 19.8909C68.3923 21.3242 67.6886 22.6408 66.6552 23.6742C65.6218 24.7076 64.3052 25.4113 62.8719 25.6964C61.4386 25.9815 59.9529 25.8352 58.6027 25.2759C57.2526 24.7167 56.0986 23.7696 55.2866 22.5545C54.4747 21.3394 54.0414 19.9108 54.0414 18.4494C54.0414 16.4897 54.8199 14.6102 56.2056 13.2245C57.5913 11.8388 59.4707 11.0603 61.4304 11.0603Z" fill="#FCB415" stroke="#FCB415" stroke-width="0.620717" stroke-miterlimit="10"/>
</g>
<defs>
<clipPath id="clip0">
<rect width="93" height="93" fill="white"/>
</clipPath>
</defs>
</svg>
