<svg width="93" height="93" viewBox="0 0 93 93" fill="none" xmlns="http://www.w3.org/2000/svg">
<g clip-path="url(#clip0)">
<path d="M89.1855 47.6995V38.9646C89.1855 31.4026 83.8155 25.0717 76.6887 23.5838L80.3128 19.9598H86.9726C87.9758 19.9598 88.789 19.1465 88.789 18.1433C88.789 17.1401 87.9758 16.3269 86.9726 16.3269H79.5604C79.0787 16.3269 78.6166 16.5184 78.276 16.859L73.6702 21.4646C72.2944 18.438 69.2445 16.3269 65.7089 16.3269H63.1737C58.976 16.3269 55.4611 19.3011 54.6226 23.2525H53.8564H40.1684L43.5888 19.8322L43.8853 20.1287C44.24 20.4834 44.7048 20.6607 45.1697 20.6607C45.6345 20.6607 46.0995 20.4834 46.454 20.1287C47.1633 19.4194 47.1633 18.2692 46.454 17.5597L43.1126 14.2183C42.4033 13.509 41.2531 13.509 40.5436 14.2183C39.8343 14.9276 39.8343 16.0777 40.5436 16.7872L41.0199 17.2635L35.0307 23.2525H32.1439L35.9917 16.5878C36.8983 15.0177 36.8983 13.143 35.9917 11.5729C35.0853 10.0028 33.4617 9.06549 31.6487 9.06549C29.8628 9.06549 28.1988 10.0264 27.3057 11.5729L20.5018 23.3577C11.2757 24.3418 4.06512 32.1715 4.06512 41.6545V47.6009C1.69616 48.4652 0 50.7408 0 53.4052C0 56.8106 2.77038 59.581 6.17578 59.581H15.2578C15.313 59.581 15.3675 59.5776 15.4217 59.5727C17.3376 62.2161 20.4478 63.9404 23.9549 63.9404C27.4584 63.9404 30.5659 62.2199 32.4824 59.581H41.3681C41.4095 59.6012 41.4508 59.6213 41.4942 59.6384L56.3593 65.5265C56.5789 65.6135 56.805 65.6547 57.0277 65.6547C57.7508 65.6547 58.4345 65.2197 58.717 64.5068C59.0864 63.574 58.6298 62.5185 57.6971 62.1492L51.2134 59.581H64.107C66.0235 62.2199 69.131 63.9404 72.6345 63.9404C76.1379 63.9404 79.2454 62.2199 81.1619 59.581H86.8242C90.2296 59.581 93 56.8106 93 53.4052C93 50.8358 91.4225 48.6288 89.1855 47.6995ZM83.5634 32.3347C84.5506 33.832 85.2122 35.5607 85.4507 37.4207H80.5242C79.1219 37.4207 77.9812 36.28 77.9812 34.8777C77.9812 33.4754 79.1219 32.3347 80.5242 32.3347H83.5634ZM63.1737 19.9599H65.7089C67.8866 19.9599 69.7505 21.3297 70.4846 23.2527H58.3978C59.1318 21.3297 60.996 19.9599 63.1737 19.9599ZM30.452 13.3894C30.6982 12.9631 31.1568 12.6983 31.6489 12.6983C32.3691 12.6983 32.7258 13.1816 32.8459 13.3894C32.966 13.5972 33.2059 14.1478 32.8459 14.7715L27.9492 23.2527H24.7574L30.452 13.3894ZM10.9938 32.3687C12.2082 32.5598 13.141 33.6104 13.141 34.8777C13.141 36.28 12.0003 37.4207 10.598 37.4207H8.31969C8.87878 35.5558 9.79661 33.8451 10.9938 32.3687ZM13.7318 55.9482H6.17578C4.77352 55.9482 3.63281 54.8075 3.63281 53.4052C3.63281 52.003 4.77352 50.8623 6.17578 50.8623H13.7318C13.5291 51.6771 13.4196 52.5285 13.4196 53.4052C13.4196 54.282 13.529 55.1334 13.7318 55.9482ZM23.9549 60.3076C20.149 60.3076 17.0526 57.2112 17.0526 53.4052C17.0526 49.5993 20.149 46.5029 23.9549 46.5029C27.7609 46.5029 30.8573 49.5993 30.8573 53.4052C30.8573 57.2112 27.7609 60.3076 23.9549 60.3076ZM62.4115 55.9482H34.1779C34.3806 55.1334 34.4901 54.282 34.4901 53.4052C34.4901 52.5285 34.3808 51.6771 34.1779 50.8623H62.4115C62.2088 51.6771 62.0993 52.5285 62.0993 53.4052C62.0993 54.282 62.2086 55.1334 62.4115 55.9482ZM72.6346 60.3076C68.8287 60.3076 65.7323 57.2112 65.7323 53.4052C65.7323 49.5993 68.8287 46.5029 72.6346 46.5029C76.4406 46.5029 79.537 49.5993 79.537 53.4052C79.537 57.2112 76.4406 60.3076 72.6346 60.3076ZM72.6346 42.8699C69.1273 42.8699 66.0169 44.5944 64.101 47.2382C64.0439 47.2327 63.9864 47.2295 63.9279 47.2295H32.4824C30.5659 44.5906 27.4584 42.8701 23.9549 42.8701C20.4478 42.8701 17.3376 44.5942 15.4217 47.2378C15.3677 47.2329 15.3132 47.2295 15.2578 47.2295H7.69811V41.6547C7.69811 41.4531 7.70538 41.2533 7.71337 41.0535H10.5978C14.0032 41.0535 16.7736 38.2831 16.7736 34.8777C16.7736 32.6779 15.6166 30.7443 13.8799 29.6499C16.3017 27.9125 19.2659 26.8855 22.4671 26.8855H28.992C28.9935 26.8855 28.9947 26.8857 28.9962 26.8857C28.9977 26.8857 43.8201 26.8855 43.8201 26.8855C40.3546 29.77 38.1445 34.1139 38.1445 38.9646V41.0535C38.1445 42.0567 38.9577 42.8699 39.9609 42.8699C40.9641 42.8699 41.7773 42.0567 41.7773 41.0535V38.9646C41.7773 32.3042 47.196 26.8855 53.8564 26.8855H73.4736C75.8282 26.8855 78.0257 27.5652 79.8854 28.735C76.7791 29.0558 74.3484 31.6881 74.3484 34.8777C74.3484 38.2831 77.1188 41.0535 80.5242 41.0535H85.5527V47.2293H81.1621C79.2456 44.5904 76.1381 42.8699 72.6346 42.8699ZM86.8242 55.9482H82.8576C83.0603 55.1334 83.1698 54.282 83.1698 53.4052C83.1698 52.5285 83.0604 51.6771 82.8576 50.8623H86.8242C88.2265 50.8623 89.3672 52.003 89.3672 53.4052C89.3672 54.8075 88.2265 55.9482 86.8242 55.9482Z" fill="#FCB415"/>
<path d="M57.0878 70.6647L37.2908 62.8228C36.3583 62.4528 35.3026 62.91 34.9331 63.8425C34.5637 64.7752 35.0203 65.8307 35.953 66.2L55.7501 74.042C55.9695 74.129 56.1958 74.1702 56.4185 74.1702C57.1416 74.1702 57.8253 73.7352 58.1078 73.0223C58.4772 72.0895 58.0206 71.034 57.0878 70.6647Z" fill="#FCB415"/>
<path d="M15.3592 5.52752L10.3637 0.532041C9.6542 -0.177447 8.50423 -0.177084 7.79493 0.532041C7.08562 1.24135 7.08544 2.3915 7.79493 3.1008L12.7904 8.09628C13.1452 8.45103 13.61 8.62831 14.0748 8.62831C14.5396 8.62831 15.0046 8.45085 15.3592 8.09628C16.0685 7.38698 16.0687 6.23683 15.3592 5.52752Z" fill="#FCB415"/>
<path d="M24.7086 4.26859L23.1414 1.0283C22.7044 0.125181 21.6187 -0.252631 20.7152 0.184033C19.8121 0.620879 19.4341 1.70709 19.8709 2.61021L21.4381 5.85049C21.7518 6.49877 22.3997 6.8764 23.0747 6.8764C23.3399 6.8764 23.6095 6.81791 23.8643 6.69476C24.7674 6.25791 25.1454 5.1717 24.7086 4.26859Z" fill="#FCB415"/>
<path d="M13.1134 14.1754L9.19664 12.2809C8.29335 11.8441 7.20732 12.2221 6.77065 13.125C6.33363 14.0281 6.71162 15.1143 7.61474 15.5512L11.5315 17.4457C11.7863 17.569 12.0558 17.6273 12.321 17.6273C12.9958 17.6273 13.6439 17.2495 13.9574 16.6014C14.3943 15.6983 14.0163 14.6121 13.1134 14.1754Z" fill="#FCB415"/>
<path d="M73.9187 52.12C73.5808 51.7821 73.1122 51.5896 72.6345 51.5896C72.1567 51.5896 71.6881 51.7823 71.3503 52.12C71.0124 52.4597 70.8181 52.9265 70.8181 53.406C70.8181 53.8837 71.0124 54.3505 71.3503 54.6902C71.6881 55.0281 72.1567 55.2224 72.6345 55.2224C73.1122 55.2224 73.5808 55.0282 73.9187 54.6902C74.2565 54.3505 74.4509 53.8837 74.4509 53.406C74.4509 52.9265 74.2565 52.4597 73.9187 52.12Z" fill="#FCB415"/>
<path d="M25.239 52.12C24.9011 51.7821 24.4325 51.5896 23.9548 51.5896C23.4771 51.5896 23.0084 51.7823 22.6706 52.12C22.3327 52.4597 22.1384 52.9265 22.1384 53.406C22.1384 53.8837 22.3327 54.3505 22.6706 54.6902C23.0084 55.0281 23.4771 55.2224 23.9548 55.2224C24.4325 55.2224 24.9011 55.0282 25.239 54.6902C25.5768 54.3505 25.7712 53.8837 25.7712 53.406C25.7712 52.9265 25.5768 52.4597 25.239 52.12Z" fill="#FCB415"/>
<path d="M10.9112 89.8994C10.5733 89.5615 10.1047 89.3672 9.62695 89.3672C9.14924 89.3672 8.68061 89.5614 8.34275 89.8994C8.0049 90.2372 7.81055 90.7059 7.81055 91.1836C7.81055 91.6613 8.0049 92.1299 8.34275 92.4676C8.68061 92.8056 9.14924 93 9.62695 93C10.1047 93 10.5733 92.8056 10.9112 92.4676C11.249 92.1299 11.4434 91.6613 11.4434 91.1836C11.4434 90.7059 11.249 90.2372 10.9112 89.8994Z" fill="#FCB415"/>
<path d="M83.373 89.3672H69.0621V86.502C69.0621 82.6734 65.9474 79.5586 62.1189 79.5586H57.4021L36.743 70.6843C35.821 70.288 34.7529 70.7147 34.3571 71.6363C33.9612 72.5582 34.3875 73.6264 35.3091 74.0224L48.1974 79.5586H30.8379C27.0092 79.5586 23.8946 82.6732 23.8946 86.502V89.3672H17.2559C16.2527 89.3672 15.4395 90.1806 15.4395 91.1836C15.4395 92.1866 16.2527 93 17.2559 93H83.373C84.3763 93 85.1895 92.1866 85.1895 91.1836C85.1895 90.1806 84.3763 89.3672 83.373 89.3672ZM65.4293 89.3672H27.5275V86.502C27.5275 84.6765 29.0125 83.1914 30.8379 83.1914H57.0168C57.0204 83.1914 57.0239 83.1919 57.0275 83.1919C57.0301 83.1919 57.0324 83.1914 57.0348 83.1914H62.1189C63.9442 83.1914 65.4293 84.6765 65.4293 86.502V89.3672Z" fill="#FCB415"/>
<path d="M57.0283 33.6575H50.8607C49.8575 33.6575 49.0443 34.4707 49.0443 35.4739C49.0443 36.4771 49.8575 37.2903 50.8607 37.2903H57.0283C58.0315 37.2903 58.8447 36.4771 58.8447 35.4739C58.8447 34.4707 58.0315 33.6575 57.0283 33.6575Z" fill="#FCB415"/>
<path d="M65.7248 34.1902C65.3888 33.8506 64.9202 33.658 64.4406 33.658C63.9629 33.658 63.4943 33.8506 63.1564 34.1902C62.8186 34.5281 62.6242 34.9949 62.6242 35.4744C62.6242 35.9521 62.8186 36.4208 63.1564 36.7586C63.4943 37.0965 63.9629 37.2908 64.4406 37.2908C64.9202 37.2908 65.387 37.0965 65.7248 36.7586C66.0645 36.4208 66.257 35.9521 66.257 35.4744C66.257 34.9949 66.0645 34.5281 65.7248 34.1902Z" fill="#FCB415"/>
</g>
<defs>
<clipPath id="clip0">
<rect width="93" height="93" fill="white"/>
</clipPath>
</defs>
</svg>
