<svg width="77" height="77" viewBox="0 0 77 77" fill="none" xmlns="http://www.w3.org/2000/svg">
<path d="M47.4833 56.4667C47.4833 57.1751 48.0569 57.75 48.7666 57.75C49.0117 57.75 50.2822 57.6909 52.6166 56.6078C54.9497 57.6909 56.2202 57.75 56.4666 57.75C57.1647 57.75 57.7217 57.1904 57.7357 56.4923C57.7498 55.7942 57.1902 55.2128 56.4935 55.1833C56.4819 55.1833 55.3705 55.1255 53.1901 54.0348C52.8295 53.855 52.4035 53.855 52.0416 54.0348C49.8625 55.1255 48.7499 55.1833 48.7666 55.1833C48.057 55.1833 47.4833 55.7582 47.4833 56.4667Z" fill="#0BA873"/>
<path d="M20.5333 16.6833V67.4854L20.1573 67.1094C19.6555 66.6076 18.8432 66.6076 18.3414 67.1094C17.8409 67.6099 17.8409 68.4223 18.3414 68.924L20.9081 71.4894C21.0262 71.6088 21.1686 71.7025 21.3251 71.7679C21.483 71.8321 21.6485 71.8667 21.8166 71.8667C21.9834 71.8667 22.149 71.8321 22.3069 71.7679C22.4634 71.7025 22.6059 71.6088 22.7239 71.4894L25.2906 68.924C25.7911 68.4222 25.7911 67.6099 25.2906 67.1094C24.7889 66.6076 23.9765 66.6076 23.4747 67.1094L23.0999 67.4854V17.9667H67.4839L67.1091 18.3427C66.6074 18.8432 66.6074 19.6556 67.1091 20.1573C67.3594 20.4076 67.688 20.5333 68.0165 20.5333C68.3437 20.5333 68.6723 20.4076 68.9238 20.1573L71.4891 17.5906C71.6072 17.4725 71.7022 17.3301 71.7663 17.1736C71.8959 16.8591 71.8959 16.5063 71.7663 16.1918C71.7021 16.0353 71.6072 15.894 71.4891 15.7748L68.9241 13.2094C68.4224 12.7076 67.61 12.7076 67.1094 13.2094C66.6077 13.7099 66.6077 14.5223 67.1094 15.024L67.4842 15.4H21.8168C21.1071 15.4 20.5333 15.9749 20.5333 16.6833Z" fill="#0BA873"/>
<path d="M46.2 48.7667C46.2 49.475 46.7736 50.05 47.4833 50.05C48.1917 50.05 48.7666 49.475 48.7666 48.7667C49.4749 48.7667 50.0499 48.1918 50.0499 47.4834C50.0499 46.7751 49.4749 46.2001 48.7666 46.2001H46.2C45.4903 46.2001 44.9167 46.7751 44.9167 47.4834C44.9167 48.1918 45.4903 48.7667 46.2 48.7667Z" fill="#0BA873"/>
<path d="M53.9 59.0333H51.3333C50.6236 59.0333 50.05 59.6082 50.05 60.3166C50.05 61.0249 50.6236 61.5998 51.3333 61.5998H53.9C54.6083 61.5998 55.1833 61.0249 55.1833 60.3166C55.1833 59.6082 54.6083 59.0333 53.9 59.0333Z" fill="#0BA873"/>
<path d="M56.4667 48.7667C56.4667 49.475 57.0403 50.05 57.75 50.05C58.4583 50.05 59.0333 49.475 59.0333 48.7667C59.7416 48.7667 60.3166 48.1918 60.3166 47.4834C60.3166 46.7751 59.7416 46.2001 59.0333 46.2001H56.4666C55.7569 46.2001 55.1833 46.7751 55.1833 47.4834C55.1833 48.1918 55.757 48.7667 56.4667 48.7667Z" fill="#0BA873"/>
<path d="M60.3167 68.0694C59.607 68.0694 59.0334 68.6443 59.0334 69.3526C59.0334 69.5605 58.9604 74.4333 52.6167 74.4333C46.4451 74.4333 46.2065 69.8184 46.2 69.3C46.2 68.5917 45.6251 68.0167 44.9167 68.0167C29.9196 68.0167 28.3181 75.161 28.2578 75.4639C28.1205 76.1492 28.5593 76.8049 29.2421 76.9564C29.9274 77.1129 30.6049 76.6702 30.7693 75.9925C30.7796 75.9501 31.7139 72.5481 38.5002 71.1633V75.7166C38.5002 76.4249 39.0737 76.9998 39.7834 76.9998C40.4918 76.9998 41.0667 76.4249 41.0667 75.7166V70.7821C41.9047 70.6949 42.7851 70.6242 43.7643 70.5973C44.2943 73.3297 46.5504 77 52.6167 77C58.6754 77 60.9327 73.3631 61.4666 70.6514C62.4458 70.6771 63.3274 70.7463 64.1667 70.8337V75.7167C64.1667 76.4251 64.7403 77 65.45 77C66.1583 77 66.7333 76.4251 66.7333 75.7167V71.2109C73.517 72.5815 74.4525 75.9477 74.4577 75.9707C74.5808 76.5791 75.1161 77 75.7154 77C75.7988 77 75.8835 76.991 75.9695 76.9743C76.6651 76.8344 77.1143 76.1581 76.9744 75.4626C76.9128 75.161 75.3111 68.0694 60.3167 68.0694Z" fill="#0BA873"/>
<path d="M70.5833 7.7H19.25C18.5403 7.7 17.9667 8.27494 17.9667 8.98328C17.9667 9.69162 18.5403 10.2666 19.25 10.2666H70.5833C72.67 10.2666 74.4333 12.0299 74.4333 14.1166V68.0166C74.4333 68.7249 75.0069 69.2998 75.7166 69.2998C76.4249 69.2998 76.9999 68.7249 76.9999 68.0166V14.1166C77 10.5785 74.1202 7.7 70.5833 7.7Z" fill="#0BA873"/>
<path d="M38.5359 49.8434C38.6565 51.9275 39.1609 56.5642 41.2822 59.7443L41.5556 60.1614C43.1713 62.6189 45.8727 66.7333 52.6167 66.7333C59.3593 66.7333 62.0608 62.6189 63.6764 60.1614L63.951 59.7443C66.0711 56.5642 66.5755 51.9275 66.6961 49.8434C68.2078 49.3236 69.3 47.8863 69.3 46.2V43.6333H70.5833C71.2916 43.6333 71.8666 43.0583 71.8666 42.35V37.2167C71.8666 37.0396 71.8306 36.8716 71.7652 36.7176C71.7485 36.6777 71.7151 36.6496 71.6947 36.6123C71.6356 36.5045 71.5766 36.3966 71.4919 36.3108C71.4495 36.2683 71.3931 36.2479 71.347 36.212C71.2623 36.1477 71.1827 36.0772 71.0851 36.0361C71.0235 36.0092 70.9517 36.0104 70.8862 35.9951C70.7886 35.9707 70.695 35.9334 70.5909 35.9334C69.0099 31.5778 65.7989 26.7152 56.4666 24.9185V24.3834C56.4666 23.6751 55.8916 23.1001 55.1833 23.1001H50.05C49.3403 23.1001 48.7667 23.6751 48.7667 24.3834V24.8916C41.0308 26.2597 36.4453 31.4352 34.6578 35.9334H34.65C33.9403 35.9334 33.3667 36.5084 33.3667 37.2167C33.3667 37.3309 33.4026 37.4336 33.4309 37.5388V42.35C33.4309 43.0583 34.0059 43.6333 34.7142 43.6333H35.9334V46.2C35.9333 47.8863 37.0242 49.3236 38.5359 49.8434ZM66.7333 46.2C66.7333 46.9071 66.1571 47.4833 65.45 47.4833C64.7416 47.4833 64.1679 48.0582 64.1667 48.7654C64.1667 48.8257 64.1308 54.8472 61.8143 58.321L61.5307 58.7522C60.0292 61.0365 57.9745 64.1666 52.6166 64.1666C47.2574 64.1666 45.2027 61.0365 43.7012 58.7522L43.4176 58.321C41.1011 54.847 41.0666 48.8257 41.0666 48.7654C41.0653 48.0582 40.4904 47.4833 39.7833 47.4833C39.0749 47.4833 38.5 46.9071 38.5 46.2V43.6333H66.7333V46.2ZM35.9975 38.5H41.0667C41.775 38.5 42.35 37.9251 42.35 37.2167C42.35 36.5084 41.775 35.9334 41.0667 35.9334H37.4644C39.1828 32.4286 42.8697 28.698 48.7667 27.5045V30.8C48.7667 31.5083 49.3403 32.0833 50.05 32.0833C50.7583 32.0833 51.3333 31.5083 51.3333 30.8V25.9965V25.6667H53.9V25.9965V30.8C53.9 31.5083 54.4736 32.0833 55.1833 32.0833C55.8916 32.0833 56.4666 31.5083 56.4666 30.8V27.5428C63.5429 29.0302 66.3571 32.4323 67.8331 35.9333H64.1665C63.4569 35.9333 62.8833 36.5082 62.8833 37.2166C62.8833 37.9249 63.4569 38.4998 64.1665 38.4998H69.3V41.0666H35.9975V38.5Z" fill="#0BA873"/>
<path d="M24.3833 74.4333H7.7C4.8689 74.4333 2.56672 72.1297 2.56672 69.3C2.56672 66.469 4.86905 64.1667 7.7 64.1667C10.5297 64.1667 12.8333 66.469 12.8333 69.3C12.8333 70.0083 13.4069 70.5833 14.1166 70.5833C14.8249 70.5833 15.3998 70.0083 15.3998 69.3V7.7C15.4 3.45342 11.9452 0 7.7 0C3.45342 0 0 3.45342 0 7.7V69.3C0 73.5452 3.45342 77 7.7 77H24.3833C25.0916 77 25.6666 76.4251 25.6666 75.7167C25.6667 75.0082 25.0918 74.4333 24.3833 74.4333ZM2.56672 7.7C2.56672 4.8689 4.86905 2.56672 7.7 2.56672C10.5297 2.56672 12.8333 4.86905 12.8333 7.7V63.5763C11.4691 62.3521 9.67252 61.6 7.7 61.6C5.72627 61.6 3.93091 62.3521 2.56672 63.5763V7.7Z" fill="#0BA873"/>
</svg>
