<svg width="123" height="123" viewBox="0 0 123 123" fill="none" xmlns="http://www.w3.org/2000/svg">
<g clip-path="url(#clip0)">
<path d="M6.67146 34.0948C6.72274 34.902 7.39251 35.5305 8.20136 35.5305H34.279C34.9898 35.5305 35.6071 35.0422 35.7707 34.3507C35.9048 33.7846 35.9728 33.2174 35.9728 32.665C35.9728 28.6355 32.6945 25.3572 28.665 25.3572C27.6081 25.3572 26.5838 25.5815 25.6404 26.0144C24.0424 24.1185 21.668 22.9881 19.1437 22.9881C15.9718 22.9881 13.0486 24.7983 11.6031 27.5758C8.76158 28.1851 6.65334 30.712 6.65334 33.7012C6.65334 33.815 6.65975 33.9267 6.66756 34.0385L6.67146 34.0948ZM12.7378 30.5074C13.3385 30.4728 13.8636 30.0901 14.0801 29.5288C14.882 27.4504 16.9167 26.054 19.1437 26.054C21.0927 26.054 22.9025 27.1098 23.8663 28.8094C24.0837 29.1929 24.4561 29.4644 24.8878 29.5542C25.3201 29.6439 25.7691 29.5433 26.1214 29.2782C26.8648 28.7188 27.7441 28.4234 28.6647 28.4234C30.9366 28.4234 32.7971 30.2183 32.9019 32.4648H9.96817C10.4286 31.37 11.4825 30.5796 12.7378 30.5074Z" fill="#0BA873"/>
<path d="M121.911 69.3304C106.502 64.6613 90.6282 61.8052 74.5653 60.8004C73.7169 54.345 68.1834 49.3441 61.5 49.3441C54.8168 49.3441 49.2831 54.345 48.435 60.8004C32.372 61.8052 16.4983 64.6613 1.08895 69.3304C0.278711 69.5759 -0.179227 70.4319 0.0663261 71.2419C0.311879 72.0521 1.16894 72.5103 1.97779 72.2645C21.265 66.4203 41.2911 63.4569 61.5 63.4569C81.7089 63.4569 101.735 66.4203 121.022 72.2645C121.17 72.3094 121.32 72.3308 121.467 72.3308C122.125 72.3308 122.733 71.9041 122.934 71.2419C123.179 70.4319 122.722 69.5759 121.911 69.3304ZM51.5653 60.6279C52.4563 55.9543 56.5708 52.4098 61.5 52.4098C66.4292 52.4098 70.5436 55.9543 71.4347 60.6279C68.1296 60.471 64.8173 60.391 61.5 60.391C58.1826 60.391 54.8703 60.471 51.5653 60.6279Z" fill="#0BA873"/>
<path d="M79.0839 47.3223H97.1007C97.9475 47.3223 98.6337 46.6361 98.6337 45.7894C98.6337 42.4422 95.9106 39.7194 92.5637 39.7194C91.6824 39.7194 90.8117 39.9148 90.017 40.2824C88.6566 39.0337 86.8903 38.338 85.0023 38.338C80.8937 38.338 77.551 41.6807 77.551 45.7896C77.551 46.6361 78.2375 47.3223 79.0839 47.3223ZM85.0026 41.4037C86.3909 41.4037 87.6685 42.0459 88.5086 43.1655C88.7575 43.4972 89.1301 43.714 89.5418 43.7664C89.9529 43.8185 90.3682 43.702 90.6921 43.4431C91.2306 43.0127 91.8778 42.7853 92.564 42.7853C93.6607 42.7853 94.6223 43.3762 95.1466 44.2564H80.8934C81.5163 42.5919 83.1231 41.4037 85.0026 41.4037Z" fill="#0BA873"/>
<path d="M71.2438 66.0094H65.9035C65.0567 66.0094 64.3705 66.6956 64.3705 67.5424C64.3705 68.3891 65.0567 69.0754 65.9035 69.0754H71.2441C72.0908 69.0754 72.777 68.3891 72.777 67.5424C72.777 66.6956 72.0905 66.0094 71.2438 66.0094Z" fill="#0BA873"/>
<path d="M34.0585 68.5179H31.5233C30.6765 68.5179 29.9903 69.2041 29.9903 70.0509C29.9903 70.8976 30.6765 71.5839 31.5233 71.5839H34.0585C34.9053 71.5839 35.5915 70.8976 35.5915 70.0509C35.5915 69.2041 34.9053 68.5179 34.0585 68.5179Z" fill="#0BA873"/>
<path d="M61.0228 66.0094H51.7559C50.9092 66.0094 50.223 66.6956 50.223 67.5424C50.223 68.3891 50.9092 69.0754 51.7559 69.0754H61.0228C61.8696 69.0754 62.5558 68.3891 62.5558 67.5424C62.5558 66.6956 61.8696 66.0094 61.0228 66.0094Z" fill="#0BA873"/>
<path d="M72.9462 72.197H70.4965C69.6498 72.197 68.9636 72.8832 68.9636 73.73C68.9636 74.5768 69.6498 75.263 70.4965 75.263H72.9462C73.7929 75.263 74.4792 74.5768 74.4792 73.73C74.4792 72.8832 73.7929 72.197 72.9462 72.197Z" fill="#0BA873"/>
<path d="M88.4768 72.197H85.2685C84.4217 72.197 83.7355 72.8832 83.7355 73.73C83.7355 74.5768 84.4217 75.263 85.2685 75.263H88.4768C89.3236 75.263 90.0098 74.5768 90.0098 73.73C90.0098 72.8832 89.3236 72.197 88.4768 72.197Z" fill="#0BA873"/>
<path d="M8.13499 74.7055H4.92663C4.07988 74.7055 3.39367 75.3917 3.39367 76.2385C3.39367 77.0852 4.07988 77.7714 4.92663 77.7714H8.13499C8.98174 77.7714 9.66795 77.0852 9.66795 76.2385C9.66795 75.3917 8.98174 74.7055 8.13499 74.7055Z" fill="#0BA873"/>
<path d="M55.2843 73.73C55.2843 74.5768 55.9705 75.263 56.8172 75.263H65.7614C66.6081 75.263 67.2943 74.5768 67.2943 73.73C67.2943 72.8832 66.6081 72.197 65.7614 72.197H56.8172C55.9705 72.197 55.2843 72.8832 55.2843 73.73Z" fill="#0BA873"/>
<path d="M48.5208 73.73C48.5208 74.5768 49.207 75.263 50.0538 75.263H52.5221C53.3689 75.263 54.0551 74.5768 54.0551 73.73C54.0551 72.8832 53.3689 72.197 52.5221 72.197H50.0538C49.207 72.197 48.5208 72.8832 48.5208 73.73Z" fill="#0BA873"/>
<path d="M74.223 78.3841H66.4356C65.5888 78.3841 64.9026 79.0703 64.9026 79.917C64.9026 80.7638 65.5888 81.45 66.4356 81.45H74.223C75.0698 81.45 75.756 80.7638 75.756 79.917C75.756 79.0703 75.0698 78.3841 74.223 78.3841Z" fill="#0BA873"/>
<path d="M112.447 78.3841H110.051C109.204 78.3841 108.518 79.0703 108.518 79.917C108.518 80.7638 109.204 81.45 110.051 81.45H112.447C113.294 81.45 113.98 80.7638 113.98 79.917C113.98 79.0703 113.294 78.3841 112.447 78.3841Z" fill="#0BA873"/>
<path d="M28.5519 80.654H26.1563C25.3095 80.654 24.6233 81.3402 24.6233 82.187C24.6233 83.0337 25.3095 83.7199 26.1563 83.7199H28.5519C29.3986 83.7199 30.0848 83.0337 30.0848 82.187C30.0848 81.3402 29.3986 80.654 28.5519 80.654Z" fill="#0BA873"/>
<path d="M47.244 79.917C47.244 80.7638 47.9302 81.45 48.777 81.45H61.8593C62.706 81.45 63.3922 80.7638 63.3922 79.917C63.3922 79.0703 62.706 78.3841 61.8593 78.3841H48.777C47.9302 78.3841 47.244 79.0706 47.244 79.917Z" fill="#0BA873"/>
<path d="M76.1384 84.5714H59.1727C58.3259 84.5714 57.6397 85.2576 57.6397 86.1044C57.6397 86.9511 58.3259 87.6373 59.1727 87.6373H76.1384C76.9851 87.6373 77.6713 86.9511 77.6713 86.1044C77.6713 85.2576 76.9849 84.5714 76.1384 84.5714Z" fill="#0BA873"/>
<path d="M45.3286 86.1044C45.3286 86.9511 46.0148 87.6373 46.8616 87.6373H54.3335C55.1803 87.6373 55.8665 86.9511 55.8665 86.1044C55.8665 85.2576 55.1803 84.5714 54.3335 84.5714H46.8616C46.0151 84.5714 45.3286 85.2576 45.3286 86.1044Z" fill="#0BA873"/>
<path d="M99.2566 84.5714H95.0056C94.1588 84.5714 93.4726 85.2576 93.4726 86.1044C93.4726 86.9511 94.1588 87.6373 95.0056 87.6373H99.2566C100.103 87.6373 100.79 86.9511 100.79 86.1044C100.79 85.2576 100.103 84.5714 99.2566 84.5714Z" fill="#0BA873"/>
<path d="M14.8433 86.8413H12.1862C11.3395 86.8413 10.6533 87.5275 10.6533 88.3742C10.6533 89.221 11.3395 89.9072 12.1862 89.9072H14.8433C15.69 89.9072 16.3762 89.221 16.3762 88.3742C16.3762 87.5275 15.6897 86.8413 14.8433 86.8413Z" fill="#0BA873"/>
<path d="M71.5423 92.2917C71.5423 93.1384 72.2285 93.8247 73.0753 93.8247H78.2904C79.1371 93.8247 79.8233 93.1384 79.8233 92.2917C79.8233 91.4449 79.1371 90.7587 78.2904 90.7587H73.0753C72.2285 90.7587 71.5423 91.4452 71.5423 92.2917Z" fill="#0BA873"/>
<path d="M43.1766 92.2917C43.1766 93.1384 43.8628 93.8247 44.7096 93.8247H66.5498C67.3966 93.8247 68.0828 93.1384 68.0828 92.2917C68.0828 91.4449 67.3966 90.7587 66.5498 90.7587H44.7096C43.8631 90.7587 43.1766 91.4452 43.1766 92.2917Z" fill="#0BA873"/>
<path d="M80.3942 96.946H59.3304C58.4837 96.946 57.7975 97.6322 57.7975 98.479C57.7975 99.3257 58.4837 100.012 59.3304 100.012H80.3942C81.2409 100.012 81.9271 99.3257 81.9271 98.479C81.9271 97.6322 81.2409 96.946 80.3942 96.946Z" fill="#0BA873"/>
<path d="M50.2695 96.946H42.6058C41.759 96.946 41.0728 97.6322 41.0728 98.479C41.0728 99.3257 41.759 100.012 42.6058 100.012H50.2695C51.1162 100.012 51.8025 99.3257 51.8025 98.479C51.8025 97.6322 51.116 96.946 50.2695 96.946Z" fill="#0BA873"/>
<path d="M46.8755 42.9236C48.8734 42.9236 50.4989 44.5491 50.4989 46.5469C50.4989 47.3165 51.1229 47.9405 51.8925 47.9405C52.662 47.9405 53.2861 47.3165 53.2861 46.5469C53.2861 44.5491 54.9116 42.9236 56.9094 42.9236C57.679 42.9236 58.303 42.2995 58.303 41.53C58.303 40.7604 57.679 40.1364 56.9094 40.1364C54.8801 40.1364 53.0678 41.0843 51.8925 42.5604C50.7171 41.0843 48.9049 40.1364 46.8755 40.1364C46.106 40.1364 45.4819 40.7604 45.4819 41.53C45.4819 42.2995 46.106 42.9236 46.8755 42.9236Z" fill="#0BA873"/>
</g>
<defs>
<clipPath id="clip0">
<rect width="123" height="123" fill="white"/>
</clipPath>
</defs>
</svg>
