<svg width="23" height="23" viewBox="0 0 23 23" fill="none" xmlns="http://www.w3.org/2000/svg">
<rect width="23" height="23" fill="#6DCEF5"/>
<path d="M9.19158 12.3912H10.4936V17.8065C10.4936 17.9134 10.5793 18 10.6851 18H12.8927C12.9986 18 13.0843 17.9134 13.0843 17.8065V12.4167H14.5811C14.6784 12.4167 14.7603 12.3429 14.7714 12.2453L14.9987 10.2516C15.0049 10.1968 14.9877 10.1419 14.9514 10.1007C14.9151 10.0595 14.863 10.0359 14.8084 10.0359H13.0844V8.78625C13.0844 8.40952 13.2852 8.21849 13.6812 8.21849C13.7376 8.21849 14.8084 8.21849 14.8084 8.21849C14.9143 8.21849 15 8.13182 15 8.02494V6.19498C15 6.08806 14.9143 6.00143 14.8084 6.00143H13.2549C13.244 6.00089 13.2196 6 13.1838 6C12.9142 6 11.9773 6.05346 11.2372 6.74133C10.4172 7.5036 10.5312 8.4163 10.5584 8.57454V10.0359H9.19158C9.08575 10.0359 9 10.1225 9 10.2295V12.1976C9 12.3045 9.08575 12.3912 9.19158 12.3912Z" fill="black"/>
</svg>
