<svg width="23" height="23" viewBox="0 0 23 23" fill="none" xmlns="http://www.w3.org/2000/svg">
<rect x="0.5" y="0.5" width="22" height="22" stroke="white"/>
<path d="M7.54024 5H16.4598C17.3068 5 17.9999 5.62714 17.9999 6.54012V15.4599C17.9999 16.3729 17.3068 17 16.4598 17H7.54024C6.69293 17 6 16.3729 6 15.4599V6.54012C6 5.62714 6.69293 5 7.54024 5ZM14.7415 6.33325C14.4443 6.33325 14.2014 6.57622 14.2014 6.87353V8.16661C14.2014 8.46379 14.4443 8.70688 14.7415 8.70688H16.0978C16.3949 8.70688 16.638 8.46379 16.638 8.16661V6.87353C16.638 6.57622 16.3949 6.33325 16.0978 6.33325H14.7415ZM16.6437 10.0748H15.5876C15.6875 10.401 15.7416 10.7466 15.7416 11.1042C15.7416 13.1002 14.0713 14.7182 12.0114 14.7182C9.95158 14.7182 8.2816 13.1002 8.2816 11.1042C8.2816 10.7464 8.33556 10.4009 8.43561 10.0748H7.3335V15.1437C7.3335 15.406 7.54813 15.6208 7.81057 15.6208H16.1669C16.4293 15.6208 16.644 15.4062 16.644 15.1437V10.0748H16.6437ZM12.0113 8.63875C10.6804 8.63875 9.60129 9.68418 9.60129 10.9739C9.60129 12.2637 10.6804 13.3091 12.0113 13.3091C13.3423 13.3091 14.4215 12.2637 14.4215 10.9739C14.4215 9.68418 13.3424 8.63875 12.0113 8.63875Z" fill="white"/>
</svg>
