<svg width="81" height="45" viewBox="0 0 81 45" fill="none" xmlns="http://www.w3.org/2000/svg">
<path d="M19.3708 36.7164C19.1417 35.7159 17.5686 34.947 15.954 35.6356L15.9679 35.6201C15.9679 35.6201 14.2763 36.3474 13.9688 36.5265C12.6391 37.2795 11.2393 37.9 9.78925 38.3793C8.01778 38.9552 5.99413 39.1127 5.28677 38.6016C4.10579 37.7493 4.47793 35.6927 5.61892 34.266C7.0652 32.4167 9.16471 31.1971 11.4823 30.86C12.4049 30.6747 13.1461 31.0144 12.8985 31.8806C12.6817 32.6742 11.3608 33.352 11.3608 33.352C11.1808 33.4769 11.0497 33.6609 10.9902 33.8723C10.9164 34.1997 11.2116 34.9531 11.7745 35.1369C12.7525 34.9439 16.0324 33.1575 14.447 30.3026C13.8796 29.4287 12.3896 29.2604 11.2455 29.4657C5.41902 30.5157 2.86331 34.598 2.45273 35.4627C2.06369 36.281 1.1226 38.7051 2.58652 40.0097C5.20066 42.3489 9.74619 40.1981 11.9052 38.8873C12.6367 38.4525 13.3445 37.9789 14.0257 37.4683C13.5905 38.4179 13.4383 39.7179 14.0934 40.2105C14.6223 40.6088 16.3046 40.862 17.827 39.7179C18.562 39.1713 19.6138 37.8512 19.3708 36.7164ZM17.7778 37.8852C17.5471 38.2712 16.2293 39.4369 15.6864 38.8888C15.2943 38.4951 15.7034 37.7447 15.994 37.4158C17.0643 36.1945 18.2837 37.0144 17.7778 37.8852ZM31.9802 36.0324C30.3118 35.1153 28.6065 36.6037 28.2897 37.0823C28.2666 37.1163 28.2451 37.1518 28.2236 37.1873C27.6857 37.7916 27.0013 38.2458 26.2368 38.5059C24.3731 39.193 23.6765 37.8728 23.6027 37.7231C23.5289 37.4251 25.6863 37.1425 27.1087 36.2053C28.0636 35.4071 27.0334 34.7292 26.4936 35.0025C26.2722 35.0921 25.591 35.4194 24.8344 35.7313C24.1126 36.0504 23.3552 36.2811 22.5786 36.4184C22.5786 36.4184 24.3854 33.7565 24.104 33.5774C23.6388 33.363 23.1106 33.331 22.6231 33.4879C22.1342 33.6809 19.0864 39.7936 19.1725 40.0314C19.2586 40.2691 20.8056 40.4066 21.0178 39.9248C21.23 39.4431 21.7728 38.2882 21.7728 38.2882C21.7728 38.2882 23.126 39.7565 24.3716 39.8893C25.0282 39.9603 26.3122 39.7349 27.7177 38.4117C27.6146 38.9444 27.6854 39.4493 28.1175 39.7148C29.0047 40.2599 30.7132 40.1101 31.6542 39.2763C33.5826 37.5702 32.6169 36.3752 31.9802 36.0278V36.0324ZM31.0468 38.3777C30.5855 38.7035 29.7198 38.8625 29.5091 38.5182C29.3553 38.2681 29.7305 37.7987 30.1949 37.4714C30.7239 37.0962 31.3267 36.9495 31.5958 37.2522C31.8649 37.5548 31.562 38.0149 31.0468 38.3746V38.3777ZM53.9467 30.264C52.5843 30.2192 47.7712 30.1466 47.7712 30.1466C47.7712 30.1466 47.1561 30.0833 46.2904 30.8739C45.3062 31.774 44.5989 34.4575 44.2498 35.1276C43.9007 35.7977 42.3768 39.1235 42.0754 39.6809C41.1697 41.3484 43.7362 41.1384 44.1329 40.3556C44.5943 39.2856 47.2084 33.2069 47.7758 32.4024C48.5139 31.3973 52.632 31.6829 51.9461 32.8811C51.4571 34.0406 49.3105 38.7653 49.2367 39.8291C49.1628 40.8929 50.6206 41.3453 50.9097 40.7956C51.1542 40.3417 54.4357 32.458 54.7018 31.9238C54.894 31.5393 55.3092 30.3057 53.9467 30.2609V30.264ZM78.3382 38.0983C77.9092 37.8759 74.8829 38.7159 72.4195 38.7159C70.4727 38.7159 69.4855 37.6582 69.4978 37.5996C69.5101 37.5409 71.9812 37.1008 73.2622 35.6757C73.6205 35.2774 73.0254 35.0211 72.5071 34.7833C71.9889 34.5455 71.5845 35.2002 70.5081 35.8255C69.4317 36.4508 68.8535 36.1791 68.8535 36.1791C68.8535 36.1791 70.319 33.44 70.4835 32.7483C70.648 32.0566 69.893 31.757 69.4163 31.8574C68.9396 31.9578 65.6965 38.6016 65.7703 39.5064C65.8442 40.4112 66.939 40.3402 67.2942 40.0869C67.6495 39.8337 68.3261 38.1631 68.3399 37.9809C68.3753 38.1662 68.9196 40.0437 72.2996 40.0267C76.3115 40.0067 79.1886 38.9706 79.2024 38.7467C79.2163 38.5229 78.7673 38.3191 78.3382 38.0952V38.0983ZM65.8472 36.2825C65.6304 35.6958 64.4633 34.8821 63.1839 35.7853C63.2854 35.3885 63.3131 35.1353 63.2408 35.0859C62.8948 34.8512 61.9306 34.8775 61.7599 35.1477C61.1307 36.2009 60.5564 37.2863 60.0392 38.3993C59.9147 38.5538 59.0997 39.4802 58.3385 39.2887C57.9756 39.1961 57.8987 38.6448 58.0463 38.3854C58.42 37.7292 59.0505 37.1055 58.3385 35.9907C58.0755 35.58 57.3144 35.194 56.1564 35.2295C55.7064 35.2576 55.2608 35.3358 54.8279 35.4627C54.5295 35.5553 54.4972 35.8533 54.5895 36.1544C54.6818 36.4554 54.8847 36.6423 55.1846 36.5496C55.4845 36.457 56.7008 36 56.993 36.494C57.0443 36.5912 57.0666 36.7012 57.0571 36.8108C57.0475 36.9204 57.0066 37.0249 56.9392 37.1116C56.5733 37.0352 56.1992 37.0056 55.8258 37.0236C54.0974 37.0916 53.0779 37.95 52.7934 38.5676C52.509 39.1852 52.7934 39.9001 53.4623 40.2892C54.2527 40.7524 55.7782 40.9068 57.1206 39.7303C57.4128 40.2923 57.8572 40.439 58.5046 40.3695C58.7982 40.3385 59.0826 40.2487 59.3411 40.1055C58.726 41.8209 58.2524 43.6212 58.2078 44.336C58.1586 45.1374 59.6902 45.1667 59.8655 44.6665C60.0992 44.0041 61.0065 41.7946 61.8261 39.6623C62.6595 40.2012 64.0512 40.036 64.8877 39.2177C65.6212 38.5059 66.1394 37.0916 65.8472 36.2825ZM54.6864 38.6294C54.7786 38.3577 55.0308 38.0936 55.9412 38.055C56.1808 38.0431 56.421 38.0566 56.6578 38.0952C56.3487 39.0694 54.4665 39.2779 54.6848 38.6294H54.6864ZM62.2489 38.3716C62.5565 37.5393 62.7918 37.0792 62.9886 36.4601C63.3407 36.2624 63.6975 36.1513 63.9112 36.2439C64.8354 36.6407 63.636 38.6093 62.2489 38.3716ZM37.4361 34.9747H37.4284C37.0271 34.9948 36.7364 35.1539 36.3182 35.5074C35.9845 35.7884 33.9086 38.2249 33.112 38.7606C33.0797 38.7823 32.8245 38.9521 32.6599 39.054C32.4954 39.1559 32.0218 39.4307 31.9833 39.6484C31.9807 39.7314 31.9955 39.8141 32.0267 39.891C32.058 39.9678 32.105 40.0372 32.1648 40.0947C32.2274 40.1615 32.304 40.2135 32.3891 40.2469C32.4742 40.2803 32.5657 40.2942 32.6568 40.2877C33.9162 40.1858 35.1434 39.1667 36.5688 37.1101C36.5688 37.1101 36.638 37.0097 36.6826 36.9557L36.6995 36.9341C36.7887 36.8245 36.8887 36.8183 36.9148 36.8723C36.921 36.9426 36.9163 37.0134 36.901 37.0823C36.7334 37.9084 36.2567 38.6742 35.8968 39.3072C35.823 39.4385 35.7523 39.562 35.6893 39.6762C35.6605 39.72 35.6429 39.7703 35.6381 39.8225C35.6333 39.8748 35.6413 39.9274 35.6616 39.9758C35.6872 40.021 35.7231 40.0594 35.7664 40.0878C35.8098 40.1163 35.8592 40.134 35.9107 40.1394C36.4119 40.2181 36.9245 40.1795 37.4084 40.0267C37.5546 39.9465 37.6671 39.816 37.7252 39.6593C38.3741 38.1152 38.408 37.4282 38.4233 36.2115C38.4233 35.8286 38.3526 35.458 38.0989 35.2218C38.0114 35.1365 37.9074 35.0701 37.7935 35.0266C37.6795 34.983 37.5579 34.9633 37.4361 34.9686V34.9747Z" fill="#0BA873"/>
<path d="M3.10624 9.02006C3.13699 9.39217 2.62031 10.0051 2.64492 10.3772C2.64492 10.4097 2.72027 11.5476 2.46808 12.1034L34.7097 12L40.4593 11.3314H75.9409C76.1746 10.8929 76.2976 10.4143 76.2761 9.6037C76.2709 9.44238 76.2524 9.28177 76.2208 9.12351C76.0704 9.10228 75.932 9.02978 75.8286 8.91816C75.6749 8.71744 75.7748 8.43334 75.8563 8.19557C75.9378 7.95779 75.9762 7.64127 75.7687 7.50076C75.6933 7.44981 75.5949 7.43128 75.5365 7.36026C75.3827 7.17189 75.6779 6.94029 75.9147 6.88625C76.1516 6.83221 76.4653 6.65928 76.3592 6.44003C76.273 6.26093 75.9809 6.29644 75.864 6.13123C75.824 6.06014 75.8137 5.97605 75.8353 5.89735C75.8569 5.81865 75.9087 5.75174 75.9793 5.71126C76.1212 5.63271 76.2789 5.58732 76.4407 5.57848C76.5699 5.55876 76.6974 5.52882 76.822 5.48893C76.9429 5.0706 77.0091 4.63825 77.0188 4.20277C77.0035 3.13587 75.2228 2.15697 73.9803 1.86206C73.3759 1.71847 72.7347 1.73237 72.1042 1.74935L63.293 1.98713C59.9838 2.0705 56.7869 2.86875 53.4977 2.54606C50.8682 2.28821 48.1587 1.05918 45.5461 0.693251C32.5615 -1.11323 23.0614 1.1827 9.89378 1.27225C9.34328 1.27225 6.53999 1.03139 6.44927 1.03139C6.26781 1.09469 6.11404 1.30468 6.19861 1.48533C6.24628 1.58569 6.35239 1.63973 6.42312 1.71847C6.49386 1.79722 6.54461 1.94081 6.46618 2.01646C6.42193 2.04931 6.36721 2.06469 6.31241 2.0597C6.10738 2.06587 5.90235 2.06587 5.69732 2.0597C4.36872 2.32372 3.79822 3.6037 3.64444 3.6037C3.49083 3.57343 3.33154 3.60564 3.20158 3.69325C3.02012 3.84765 3.06011 4.33865 3.2231 4.52084C3.3861 4.70303 3.47222 5.36386 3.1985 5.51518C3.14007 5.5476 3.07241 5.58466 3.05395 5.65414C3.02935 5.7545 3.12469 5.83942 3.20773 5.89191C3.31998 5.96294 3.43224 5.8811 3.54449 5.95213C3.60199 5.9824 3.65072 6.02707 3.68596 6.08182C3.76285 6.22696 3.63983 6.41224 3.49682 6.474C3.35381 6.53576 3.18928 6.52496 3.0355 6.57591C2.95739 6.59735 2.88996 6.64709 2.84623 6.71553C2.80249 6.78396 2.78556 6.86623 2.79869 6.94647C2.81694 6.99745 2.84823 7.04271 2.88942 7.07771C3.17544 7.34019 3.65828 7.26608 3.89971 7.57333C3.95994 7.65324 3.9983 7.74759 4.01098 7.847C4.02366 7.9464 4.01022 8.04741 3.97198 8.13998C3.89663 8.31754 3.33382 8.52289 3.10624 9.02006Z" fill="#B8E4FA"/>
<path d="M76.1669 11.4055L40.9205 11.3314L35.0479 11.8687H2.57568C2.28966 12.4987 1.75914 12.9079 0.89801 13.7987C0.758077 13.9439 3.11542 16.0761 3.5629 17.7622C4.28717 20.4874 3.96271 24.9217 3.8197 25.2244C3.2938 26.3376 3.76895 26.8456 4.89611 27.7982C6.04172 28.5007 10.6841 26.9753 13.755 27.142C18.1698 27.3798 18.9617 28.2475 23.3843 28.3772C25.7231 28.4452 28.754 28.1255 31.0914 28.2058C34.2883 28.3155 35.4524 27.2254 38.5955 27.7982C43.5577 28.7015 50.5898 26.211 55.5105 26.912C57.6434 27.2208 59.7731 26.0504 61.9536 25.9084C65.8887 25.6505 69.8929 26.7869 73.7542 26.1075C74.1955 26.0303 74.6599 25.913 74.9444 25.6243C75.2289 25.3355 75.2719 24.8801 75.2796 24.4802C75.3104 22.9454 75.6794 19.0036 75.5872 17.1492C75.4718 14.9537 73.6388 15.2455 75.0751 13.0314C75.5395 12.3041 75.9178 11.8826 76.1669 11.4055Z" fill="#6DCEF5"/>
<path d="M57.1452 12.1775C56.67 12.3597 56.464 13.0792 55.652 13.2768C55.4152 13.334 54.2865 13.4791 54.1143 13.4961C53.9421 13.5131 51.0542 13.371 50.8328 13.3494C50.6113 13.3278 35.0803 13.862 35.0803 13.862L21.8081 14.3021L17.2872 14.5213L10.2859 14.1554C10.2859 14.1554 4.38254 14.0705 1.6054 14.3685C1.63637 14.4895 1.64265 14.6155 1.62385 14.739C1.56234 14.9444 1.50083 15.3165 1.39319 15.3906C1.28555 15.4647 1.34706 15.8939 1.57772 16.3402C1.59922 16.4344 1.61108 16.5307 1.61309 16.6273C1.57071 16.5989 1.52105 16.5833 1.47008 16.5826C1.38336 16.5985 1.30495 16.6444 1.2485 16.7124C1.19205 16.7804 1.16113 16.8661 1.16113 16.9547C1.16113 17.0432 1.19205 17.1289 1.2485 17.1969C1.30495 17.2649 1.38336 17.3108 1.47008 17.3268C1.54987 17.3214 1.62499 17.2871 1.68154 17.2303C1.73809 17.1735 1.77223 17.0981 1.77762 17.018C1.93576 17.1972 2.12487 17.3463 2.33582 17.458C2.38964 17.4843 3.25846 17.509 3.35687 17.6387C3.40762 17.7591 3.14928 18.5095 3.12006 18.7426C3.09085 18.9758 2.6895 19.4868 2.50497 20.3252C2.32044 21.1636 3.44299 21.5604 3.5045 22.1873C3.47835 22.6968 3.09392 23.1785 2.8894 23.7498C3.01575 23.8575 3.15922 23.9431 3.31382 24.003C3.62136 24.0818 3.95198 23.9938 4.26106 23.9058C4.86231 23.7344 5.64502 23.6186 6.39697 23.4904C6.83983 23.8672 7.17967 24.108 7.31961 24.1451C8.17151 24.3829 8.33758 24.8507 10.8164 24.5589C13.2952 24.2671 14.8714 24.0416 14.8714 24.0416L13.3521 23.6541C13.3521 23.6541 13.9442 23.5383 15.3958 23.1616C16.8474 22.7848 20.3411 22.1379 21.2884 21.6994C22.2356 21.2609 23.841 20.7467 24.1332 20.3808C24.4253 20.0149 24.4976 19.7956 25.0819 19.5023C25.6663 19.2089 25.94 19.3803 26.0307 19.1363C26.0815 19.0005 24.5114 18.4786 24.0624 18.1837C23.4473 17.7838 23.412 17.5815 23.1213 17.3623C22.8307 17.143 22.7507 17.0133 23.1213 17.0133C23.4919 17.0133 25.554 17.2202 25.8201 17.3793C26.0861 17.5383 27.2794 18.0386 27.7883 18.2578C28.2973 18.4771 29.2477 18.9171 30.1949 19.1363C31.1421 19.3556 34.5005 19.283 35.3002 19.0638C36.0998 18.8445 36.9778 18.9171 37.4145 18.3319C37.8513 17.7467 37.8528 17.6726 38.654 17.3793C39.4551 17.0859 39.8211 16.9392 40.4039 16.8667C40.9867 16.7941 42.0816 16.5733 41.571 16.354C41.0605 16.1348 39.8211 15.5481 38.8723 15.5481C37.9235 15.5481 35.4447 15.4122 35.2264 15.1821C35.0726 15.0139 36.4658 14.597 37.2685 14.597H41.4988C43.1764 14.597 46.2396 15.037 47.1884 14.8162C48.6563 14.533 50.1434 14.3617 51.637 14.3036C52.6581 14.3036 53.3562 14.1894 53.3147 14.3036C53.2732 14.4179 51.7108 14.597 51.2003 14.7437C50.5124 14.939 49.8008 15.0377 49.0859 15.037C48.211 15.037 46.2457 15.1374 46.1642 15.1837C46.0827 15.23 46.3103 15.5496 46.8931 15.5496C47.4759 15.5496 49.1536 15.4771 49.8825 15.4771C50.6114 15.4771 52.0353 15.4446 52.4659 15.4863C52.6722 15.5002 52.8716 15.5671 53.0447 15.6807C53.2179 15.7942 53.359 15.9506 53.4546 16.1348C53.4546 16.1348 53.53 16.3463 52.8072 16.3463C52.0845 16.3463 50.6667 15.704 49.0152 16.4189C48.7738 16.5239 48.6507 16.7848 49.0152 16.7848C49.3796 16.7848 50.9835 17.37 50.6928 17.5167C50.4022 17.6634 49.0152 18.0293 48.4324 18.1019C47.8496 18.1744 40.5561 19.1996 38.8062 19.6459C37.0563 20.0921 33.9916 20.6279 32.972 21.0355C32.3662 21.2779 30.3471 22.2074 29.4722 22.4251C28.5972 22.6428 25.9723 23.597 24.9512 23.6695C23.9302 23.7421 21.9619 24.4014 20.4303 24.7673C18.8987 25.1333 17.4025 25.7123 18.788 25.7123C20.1735 25.7123 26.775 24.9125 27.5777 24.6206C28.3804 24.3288 36.4027 22.4235 37.9328 22.1317C39.4628 21.8399 45.809 20.228 47.0484 19.9346C48.2878 19.6412 51.9353 18.616 53.6853 18.3906C55.4352 18.1652 59.3749 17.001 60.3944 16.7061C61.4139 16.4112 62.5334 15.9449 63.2407 15.6608C63.6282 15.5064 64.7016 14.4781 63.1423 14.4395C62.049 14.4117 60.6128 14.2171 60.5405 13.9253C60.4682 13.6335 60.6866 13.5594 61.4154 13.5594C62.1443 13.5594 62.4365 13.3401 62.7994 13.1935C63.1623 13.0468 64.9353 12.6315 64.9615 12.5295C65.0737 12.071 57.9802 11.8548 57.1452 12.1775Z" fill="#006140"/>
<path d="M52.1891 18.6779C52.1891 18.6779 31.4743 23.0628 29.4307 23.0628C29.0109 23.0628 28.3635 22.9671 28.1036 22.8405C27.3132 23.1117 26.4952 23.294 25.6648 23.384C24.6437 23.4565 22.3387 24.281 20.8071 24.647C19.2755 25.0129 20.2012 24.6948 18.808 24.9882C17.4148 25.2816 13.3645 26.8117 16.0632 26.3778C18.7619 25.9439 17.9823 25.9192 19.3678 25.9192C20.7533 25.9192 27.4624 24.8214 28.2651 24.5296C29.0678 24.2378 37.0901 22.3325 38.6202 22.0407C40.1502 21.7489 46.4964 20.1369 47.7358 19.8436C48.5662 19.6475 50.4837 19.0716 52.1799 18.6809L52.1891 18.6779Z" fill="#FCB415"/>
<path d="M2.78481 23.739C2.75487 23.8279 2.73073 23.9187 2.71254 24.0108C2.60489 24.5697 3.49678 24.7735 3.66593 25.0916C3.83508 25.4096 3.60442 25.5949 3.60442 25.967C3.60442 25.9917 3.60442 26.0118 3.60442 26.0349C5.5189 25.703 10.2274 24.9047 10.8671 24.8291C13.3459 24.5357 14.776 24.1698 14.9083 24.037C15.0405 23.9042 13.6581 23.8934 13.9088 23.651C14.2778 23.2928 16.2154 23.3052 17.6793 22.8651C19.1432 22.4251 20.378 22.1333 21.3252 21.6932C21.419 21.65 21.519 21.6052 21.6251 21.5604C17.7116 22.4204 8.46673 22.9238 2.84939 23.722C2.82725 23.725 2.80556 23.7307 2.78481 23.739Z" fill="#FCB415"/>
<path d="M75.6732 11.9876C72.5024 11.8332 66.7821 12.4925 66.2423 12.6824C65.9609 12.7812 66.024 13.5439 66.5345 13.6906C67.045 13.8373 69.5238 13.984 70.0344 14.1306C70.5449 14.2773 70.7633 14.7899 71.2738 14.8625C71.9109 14.9236 72.5439 15.0216 73.1698 15.1559C74.6829 15.5295 75.298 16.2614 75.8378 16.4837C76.0755 16.5488 76.323 16.5697 76.5682 16.5455C76.5631 16.5761 76.5601 16.6071 76.559 16.6381C76.559 17.0426 76.908 17.2557 77.2955 17.1368C77.7092 17.0179 77.6877 16.6844 77.6415 16.3988C77.6123 16.3868 77.5819 16.378 77.5508 16.3725C77.4401 16.1579 77.3248 15.9835 77.3248 15.9835C77.3248 15.9835 76.9711 15.6021 76.6789 15.545C76.3867 15.4878 76.3406 15.545 76.3406 15.545C76.3406 15.545 75.8332 15.4878 76.0023 15.545C76.1715 15.6021 75.541 15.4492 75.4334 15.2006C75.4064 15.1461 75.3978 15.0842 75.4089 15.0244C75.42 14.9645 75.4502 14.9098 75.4949 14.8687L75.5717 14.8563L75.5548 14.8193L75.0935 13.8651C75.104 13.5437 75.1717 13.2268 75.2934 12.9294C75.3931 12.6052 75.5202 12.2901 75.6732 11.9876Z" fill="#006140"/>
<path d="M76.0485 12.1606C76.1001 12.1637 76.1517 12.1538 76.1984 12.1317C76.2452 12.1095 76.2856 12.0759 76.316 12.034C76.1423 12.017 75.9578 12.0015 75.7609 11.9907C75.7849 12.0458 75.8257 12.0919 75.8773 12.1224C75.9289 12.1529 75.9888 12.1663 76.0485 12.1606Z" fill="#006140"/>
<path d="M77.1602 9.54197C77.1241 9.50144 77.0821 9.46657 77.0357 9.43853C76.2422 9.42154 70.388 9.90173 70.388 9.90173C70.18 10.0647 69.9847 10.2432 69.8037 10.436C69.5423 10.7231 69.3424 10.7448 69.3424 10.7448L63.9911 10.8992L49.521 11.1477C49.521 11.1477 42.1045 11.2188 41.7093 11.2157H41.6955C41.1896 11.2157 40.8159 11.2064 40.6422 11.1971C39.5658 11.1416 37.4129 11.5693 36.4288 11.5507C35.4446 11.5322 34.6143 11.5507 34.1068 11.3963C33.5993 11.2419 31.8925 11.228 31.5234 11.191C31.1544 11.1539 30.0472 10.7818 29.7089 10.5579C29.429 10.3634 28.7094 9.70872 28.3249 9.48948C27.4207 9.44624 26.5104 9.41537 25.577 9.42C25.0311 9.42 24.4668 9.39992 23.8855 9.35823C20.3872 9.33662 16.0246 9.3289 16.0246 9.3289C16.0246 9.3289 11.8727 9.06797 11.1346 8.80703C10.3965 8.54609 8.76652 8.22957 8.53586 8.18943C8.3052 8.14928 7.64398 8.09679 7.41332 8.18943C7.18266 8.28207 7.16728 8.4133 6.78285 8.7113C6.39842 9.00929 6.16776 8.543 6.09087 8.52447C5.53729 8.45036 4.49163 8.80394 4.3071 9.0834C4.12257 9.36287 4.13795 9.71644 3.92267 9.84614C3.70739 9.97584 3.58437 9.95731 3.32295 10.033C3.06154 10.1086 2.18503 10.3865 2.0005 10.4607C1.88516 10.5084 1.77659 10.5712 1.67758 10.6475C1.67758 10.6475 1.47768 11.1694 1.52381 11.3546C1.54291 11.4683 1.54961 11.5838 1.5438 11.6989C1.50689 11.9213 1.46537 12.244 1.43308 12.5281C1.31019 12.5295 1.19184 12.5749 1.09939 12.6562C1.10638 12.6139 1.10997 12.571 1.11016 12.5281C1.11016 12.1575 0.862582 11.858 0.556574 11.858C0.250565 11.858 0.00299072 12.1575 0.00299072 12.5281C0.00299072 12.8986 0.250565 13.1982 0.556574 13.1982C0.668988 13.1975 0.777676 13.1576 0.86412 13.0855C0.85482 13.1364 0.850187 13.1881 0.850281 13.2399C0.849687 13.3918 0.892372 13.5407 0.9733 13.6691C1.76216 13.5888 3.70124 13.3742 3.87346 13.4452C4.1564 13.561 5.40197 13.1457 5.70644 13.1364C16.3475 12.6732 23.3904 13.104 33.7424 12.2733C36.7517 12.0325 42.6735 11.9753 42.7842 11.895C42.8119 11.875 42.6304 11.7406 42.3091 11.5538C44.6572 11.5801 56.0518 11.5353 60.648 11.5121C60.4604 11.56 60.319 11.5986 60.2713 11.6125C60.076 11.6758 58.3399 11.8904 58.3399 11.8904C58.3399 11.8904 57.3588 12.0448 57.3911 12.1097C57.4234 12.1745 60.9971 12.2641 61.1678 12.2563C61.3385 12.2486 65.5442 12.2563 65.7625 12.2563C65.8763 12.2563 72.3256 12.3382 75.6517 12.369C75.7147 12.2146 75.7824 12.0741 75.8531 11.9321C75.8727 11.938 75.8928 11.9416 75.9131 11.9429C75.9131 12.0587 76.0438 12.1529 76.2053 12.1529C76.3667 12.1529 76.4974 12.0587 76.4974 11.9429C76.4974 11.8271 76.3667 11.7329 76.2053 11.7329H76.1945C76.2094 11.6825 76.2099 11.6288 76.196 11.5781C76.1822 11.5274 76.1545 11.4815 76.1161 11.4457C76.1674 11.3562 76.2186 11.2707 76.2699 11.1894C76.2959 11.2414 76.3353 11.2854 76.3839 11.3169C76.4326 11.3483 76.4888 11.3662 76.5467 11.3685C76.6465 11.3569 76.7379 11.3064 76.8012 11.2279C76.8644 11.1493 76.8945 11.0491 76.885 10.9486C76.8882 10.8712 76.8707 10.7944 76.8342 10.7262C76.7976 10.658 76.7435 10.6009 76.6774 10.561C76.725 10.4915 76.7604 10.439 76.7773 10.4066C76.9003 10.2352 77.008 10.3495 77.1464 10.1395C77.2109 9.94629 77.2158 9.73799 77.1602 9.54197Z" fill="#4C7229"/>
<path d="M79.0932 24.4586C79.1612 24.4586 79.2163 24.3901 79.2163 24.3057C79.2163 24.2213 79.1612 24.1528 79.0932 24.1528C79.0253 24.1528 78.9702 24.2213 78.9702 24.3057C78.9702 24.3901 79.0253 24.4586 79.0932 24.4586Z" fill="#003428"/>
<path d="M74.6138 27.5528C75.152 27.6485 75.5872 27.3799 76.2023 27.4756C76.8174 27.5713 77.171 27.3212 77.5093 27.0371C77.8476 26.753 77.8476 26.5214 77.9245 26.2728C77.9876 26.069 78.3428 25.1272 78.5688 24.5883C78.5844 24.6117 78.6051 24.6313 78.6294 24.6455C78.6536 24.6596 78.6808 24.6681 78.7088 24.6701C78.8533 24.6701 78.9702 24.4385 78.9702 24.1544C78.9703 24.0779 78.961 24.0017 78.9425 23.9275C79.227 23.5724 79.6852 23.1755 80.2157 23.0659C80.9539 22.9115 81 21.9959 81 21.9959C80.9723 21.8891 80.9075 21.7957 80.8173 21.7325C80.7271 21.6694 80.6173 21.6407 80.5079 21.6516C80.0774 21.6516 80.0774 21.6516 79.8006 21.3073C79.5238 20.963 79.6929 20.2373 79.4161 19.9177C79.2303 19.7141 78.9901 19.5683 78.7242 19.4977C78.7242 19.4977 78.2628 19.1164 77.9091 18.8292C77.6917 18.6278 77.5559 18.3529 77.5278 18.0572C77.524 17.9253 77.5282 17.7933 77.5401 17.6619C77.5413 17.5887 77.557 17.5164 77.5863 17.4493C77.6156 17.3823 77.6579 17.3217 77.7108 17.2713C77.812 17.2473 77.9021 17.1898 77.9666 17.1079C78.0312 17.0261 78.0663 16.9248 78.0663 16.8204C78.0663 16.7161 78.0312 16.6147 77.9666 16.5329C77.9021 16.4511 77.812 16.3935 77.7108 16.3696C77.6001 16.155 77.4847 15.9805 77.4847 15.9805C77.4847 15.9805 77.1311 15.5991 76.8389 15.542H76.7943C76.0326 15.8668 75.2952 16.246 74.5877 16.6768C73.7619 16.8173 72.9638 16.9733 72.7931 17.052C72.0565 17.3871 72.2411 17.7221 71.6275 17.8333C71.014 17.9445 70.7695 18 70.2789 18.0572C69.7884 18.1143 69.4178 18.2224 69.1241 18.5667C67.9569 19.9362 66.0209 20.4396 65.495 20.5739C64.8408 20.644 64.1831 20.6759 63.5252 20.6696C62.8501 20.6696 60.3775 21.0093 59.8869 21.1776C59.3964 21.3459 57.7341 22.5981 55.5521 23.015C54.2235 23.2697 52.0476 25.087 48.866 25.6151C47.7542 25.8004 47.0115 26.4936 46.2134 26.7175C45.4153 26.9414 43.3563 27.2147 42.6966 27.2425C41.4141 27.2965 39.0599 27.6285 39.8564 28.4653C40.1732 28.7988 40.6991 28.8544 41.3803 28.805C41.4741 28.805 41.7263 28.7787 41.8709 28.7571C42.8335 28.6429 44.0314 28.419 45.3492 28.4483C47.9249 28.5039 52.7626 26.7268 55.1907 27.0371C56.3609 27.1915 58.0478 27.6269 59.3641 27.5404C62.0367 27.5729 63.679 26.5754 66.7222 26.9553C67.1958 27.0139 68.0877 27.8199 68.6674 27.6007C70.2466 26.8287 72.0888 27.19 73.8803 27.6377C74.1174 27.5639 74.3662 27.5351 74.6138 27.5528Z" fill="#11604E"/>
</svg>
