<svg width="19" height="19" viewBox="0 0 19 19" fill="none" xmlns="http://www.w3.org/2000/svg">
<g clip-path="url(#clip0)">
<path d="M15.0159 11.7698C14.627 11.3648 14.1578 11.1483 13.6605 11.1483C13.1673 11.1483 12.6941 11.3608 12.2891 11.7658L11.0219 13.029C10.9176 12.9728 10.8134 12.9207 10.7131 12.8686C10.5688 12.7964 10.4324 12.7282 10.3161 12.656C9.12914 11.9022 8.05042 10.9197 7.01582 9.64849C6.51456 9.0149 6.17772 8.48156 5.9331 7.9402C6.26193 7.63944 6.5667 7.32665 6.86344 7.0259C6.97572 6.91361 7.08801 6.79732 7.20029 6.68504C8.0424 5.84292 8.0424 4.75218 7.20029 3.91007L6.10554 2.81531C5.98122 2.691 5.8529 2.56268 5.7326 2.43436C5.49199 2.18573 5.23936 1.92909 4.9787 1.68848C4.58973 1.30351 4.12456 1.099 3.63533 1.099C3.1461 1.099 2.67291 1.30351 2.2719 1.68848C2.26789 1.69249 2.26789 1.69249 2.26388 1.6965L0.900452 3.07196C0.387161 3.58525 0.0944256 4.21082 0.0302643 4.93665C-0.0659776 6.10759 0.278889 7.19833 0.543555 7.91213C1.19319 9.66453 2.16363 11.2886 3.61127 13.029C5.36768 15.1263 7.48099 16.7824 9.89506 17.9494C10.8174 18.3865 12.0485 18.9038 13.4239 18.992C13.5081 18.996 13.5964 19 13.6766 19C14.6029 19 15.3809 18.6672 15.9904 18.0055C15.9944 17.9975 16.0024 17.9935 16.0064 17.9854C16.2149 17.7328 16.4556 17.5042 16.7082 17.2596C16.8806 17.0952 17.0571 16.9228 17.2295 16.7423C17.6265 16.3293 17.835 15.8481 17.835 15.3548C17.835 14.8576 17.6225 14.3804 17.2175 13.9794L15.0159 11.7698ZM16.4515 15.9924C16.4475 15.9924 16.4475 15.9964 16.4515 15.9924C16.2952 16.1609 16.1347 16.3132 15.9623 16.4817C15.7017 16.7303 15.437 16.9909 15.1884 17.2837C14.7833 17.7168 14.3062 17.9213 13.6806 17.9213C13.6204 17.9213 13.5563 17.9213 13.4961 17.9173C12.3051 17.8411 11.1983 17.3759 10.3683 16.9789C8.09855 15.8802 6.10554 14.3202 4.44937 12.3433C3.08194 10.6951 2.16764 9.17129 1.56212 7.53518C1.18918 6.53667 1.05283 5.75871 1.11299 5.02487C1.15309 4.55569 1.33354 4.16671 1.66638 3.83387L3.03381 2.46644C3.23031 2.28197 3.43883 2.18172 3.64335 2.18172C3.89598 2.18172 4.1005 2.3341 4.22882 2.46243C4.23283 2.46644 4.23684 2.47045 4.24085 2.47446C4.48546 2.70303 4.71805 2.93963 4.96266 3.19226C5.08698 3.32058 5.2153 3.44891 5.34362 3.58124L6.43837 4.67599C6.86344 5.10106 6.86344 5.49405 6.43837 5.91912C6.32208 6.03541 6.2098 6.1517 6.09351 6.26398C5.75666 6.60885 5.43585 6.92966 5.08698 7.24244C5.07896 7.25046 5.07094 7.25447 5.06693 7.26249C4.72206 7.60736 4.78622 7.94421 4.8584 8.17278C4.86241 8.18481 4.86642 8.19684 4.87043 8.20887C5.15515 8.8986 5.55615 9.54824 6.16569 10.3222L6.1697 10.3262C7.27648 11.6896 8.44341 12.7523 9.73065 13.5663C9.89506 13.6706 10.0635 13.7548 10.2239 13.835C10.3683 13.9072 10.5046 13.9754 10.6209 14.0475C10.6369 14.0556 10.653 14.0676 10.669 14.0756C10.8053 14.1438 10.9337 14.1759 11.066 14.1759C11.3988 14.1759 11.6074 13.9673 11.6755 13.8992L13.047 12.5277C13.1833 12.3914 13.3999 12.227 13.6525 12.227C13.9011 12.227 14.1056 12.3834 14.23 12.5197C14.234 12.5237 14.234 12.5237 14.238 12.5277L16.4475 14.7373C16.8606 15.1463 16.8606 15.5674 16.4515 15.9924Z" fill="white"/>
<path d="M10.268 4.51961C11.3186 4.69605 12.273 5.1933 13.035 5.95522C13.7969 6.71713 14.2901 7.67153 14.4706 8.72217C14.5147 8.98684 14.7433 9.1713 15.0039 9.1713C15.036 9.1713 15.0641 9.16729 15.0961 9.16328C15.3929 9.11516 15.5894 8.83445 15.5413 8.53771C15.3247 7.26651 14.7232 6.1076 13.8049 5.18929C12.8866 4.27098 11.7277 3.66947 10.4565 3.45293C10.1597 3.40481 9.88303 3.6013 9.8309 3.89404C9.77877 4.18677 9.97125 4.47149 10.268 4.51961Z" fill="white"/>
<path d="M18.9779 8.3813C18.621 6.28804 17.6345 4.38325 16.1187 2.86744C14.6029 1.35163 12.6981 0.36515 10.6049 0.00825334C10.3121 -0.0438777 10.0354 0.156626 9.98332 0.449362C9.9352 0.746108 10.1317 1.0228 10.4284 1.07493C12.2971 1.39173 14.0014 2.27796 15.3568 3.62936C16.7122 4.98476 17.5944 6.68905 17.9112 8.55774C17.9553 8.82241 18.1839 9.00687 18.4446 9.00687C18.4767 9.00687 18.5047 9.00286 18.5368 8.99885C18.8295 8.95474 19.03 8.67404 18.9779 8.3813Z" fill="white"/>
</g>
<defs>
<clipPath id="clip0">
<rect width="19" height="19" fill="white"/>
</clipPath>
</defs>
</svg>
