<svg width="19" height="19" viewBox="0 0 19 19" fill="none" xmlns="http://www.w3.org/2000/svg">
<path d="M9.49601 0C5.29768 0 1.88007 3.41761 1.88007 7.61593C1.88007 8.09392 1.92389 8.57589 2.0155 9.04591C2.01949 9.0738 2.03542 9.15744 2.06729 9.30084C2.1828 9.81468 2.35408 10.3205 2.57714 10.8025C3.39768 12.7344 5.20209 15.7019 9.16142 18.8805C9.261 18.9602 9.38049 19 9.49999 19C9.61949 19 9.73898 18.9602 9.83856 18.8805C13.7939 15.7019 15.6023 12.7344 16.4228 10.8025C16.6459 10.3205 16.8172 9.81866 16.9327 9.30084C16.9646 9.15744 16.9805 9.0738 16.9845 9.04591C17.0721 8.57589 17.1199 8.09392 17.1199 7.61593C17.1119 3.41761 13.6943 0 9.49601 0ZM15.917 8.8587C15.917 8.86667 15.913 8.87463 15.913 8.8826C15.909 8.90252 15.8971 8.96227 15.8771 9.05388C15.8771 9.05786 15.8771 9.05786 15.8771 9.06184C15.7776 9.50797 15.6302 9.94214 15.435 10.3604C15.431 10.3644 15.431 10.3723 15.427 10.3763C14.6822 12.1409 13.049 14.8335 9.49601 17.7692C5.94297 14.8335 4.30984 12.1409 3.56498 10.3763C3.561 10.3723 3.561 10.3644 3.55701 10.3604C3.36582 9.94612 3.21844 9.50797 3.11487 9.06184C3.11487 9.05786 3.11487 9.05786 3.11487 9.05388C3.09097 8.96227 3.08301 8.90252 3.07903 8.8826C3.07903 8.87463 3.07504 8.86667 3.07504 8.85472C2.99538 8.44444 2.95555 8.03019 2.95555 7.61195C2.95555 4.00713 5.89118 1.07149 9.49601 1.07149C13.1008 1.07149 16.0365 4.00713 16.0365 7.61195C16.0365 8.03417 15.9966 8.45241 15.917 8.8587Z" fill="white"/>
<path d="M9.49602 2.86389C6.83124 2.86389 4.66039 5.03475 4.66039 7.69953C4.66039 10.3643 6.83124 12.5352 9.49602 12.5352C12.1608 12.5352 14.3317 10.3643 14.3317 7.69953C14.3317 5.03475 12.1608 2.86389 9.49602 2.86389ZM9.49602 11.4597C7.42076 11.4597 5.73586 9.77081 5.73586 7.69953C5.73586 5.62825 7.42475 3.93936 9.49602 3.93936C11.5673 3.93936 13.2562 5.62825 13.2562 7.69953C13.2562 9.77081 11.5713 11.4597 9.49602 11.4597Z" fill="white"/>
</svg>
