<svg width="23" height="23" viewBox="0 0 23 23" fill="none" xmlns="http://www.w3.org/2000/svg">
<g clip-path="url(#clip0)">
<path d="M18.9205 15.9499C18.9023 15.9108 18.8854 15.8783 18.8697 15.8523C18.6094 15.3836 18.1121 14.8083 17.378 14.1262L17.3625 14.1106L17.3547 14.1029L17.3468 14.095H17.339C17.0058 13.7774 16.7948 13.5639 16.7064 13.4545C16.5448 13.2463 16.5086 13.0354 16.5969 12.8218C16.6593 12.6604 16.8938 12.3196 17.2998 11.7989C17.5134 11.5229 17.6825 11.3017 17.8074 11.1351C18.7082 9.93748 19.0988 9.17221 18.9789 8.83895L18.9324 8.76108C18.9011 8.71419 18.8204 8.6713 18.6904 8.63218C18.5601 8.59315 18.3936 8.58669 18.1904 8.61271L15.9413 8.62824C15.9048 8.61533 15.8528 8.61654 15.785 8.63218C15.7173 8.64783 15.6834 8.65568 15.6834 8.65568L15.6443 8.67524L15.6132 8.69874C15.5872 8.71427 15.5585 8.7416 15.5273 8.78066C15.4962 8.81959 15.4702 8.86527 15.4494 8.91732C15.2045 9.54732 14.9261 10.1331 14.6136 10.6745C14.421 10.9974 14.244 11.2772 14.0824 11.5141C13.9211 11.7509 13.7857 11.9254 13.6765 12.0373C13.567 12.1492 13.4683 12.2389 13.3796 12.3067C13.2911 12.3745 13.2235 12.4031 13.1767 12.3926C13.1297 12.3822 13.0856 12.3718 13.0437 12.3614C12.9709 12.3145 12.9123 12.2507 12.8681 12.17C12.8238 12.0893 12.7939 11.9878 12.7783 11.8654C12.7627 11.743 12.7535 11.6377 12.7509 11.5491C12.7485 11.4607 12.7496 11.3356 12.7549 11.1742C12.7603 11.0127 12.7627 10.9035 12.7627 10.8462C12.7627 10.6483 12.7666 10.4336 12.7743 10.2019C12.7822 9.97017 12.7886 9.78659 12.7939 9.65135C12.7992 9.51598 12.8017 9.37275 12.8017 9.22175C12.8017 9.07076 12.7925 8.95234 12.7743 8.86639C12.7564 8.78055 12.7288 8.69723 12.6925 8.61645C12.656 8.53576 12.6026 8.47334 12.5324 8.42902C12.4622 8.38476 12.3748 8.34964 12.2708 8.32354C11.9948 8.26109 11.6434 8.22731 11.2164 8.22206C10.248 8.21166 9.62579 8.2742 9.34984 8.40957C9.2405 8.46677 9.14156 8.54492 9.0531 8.64378C8.95935 8.75837 8.94628 8.8209 9.01395 8.83119C9.32639 8.87799 9.54758 8.98995 9.67776 9.16696L9.72467 9.26076C9.76116 9.32843 9.7976 9.44825 9.83406 9.62003C9.87047 9.79182 9.89397 9.98185 9.90431 10.19C9.9303 10.5702 9.9303 10.8956 9.90431 11.1663C9.87824 11.4371 9.85362 11.6479 9.83012 11.7989C9.80663 11.9499 9.7715 12.0722 9.72467 12.1659C9.67776 12.2596 9.64655 12.3169 9.6309 12.3377C9.61528 12.3585 9.60226 12.3716 9.59192 12.3768C9.52425 12.4027 9.45386 12.4159 9.38102 12.4159C9.30807 12.4159 9.2196 12.3794 9.11549 12.3065C9.01141 12.2336 8.90338 12.1334 8.79142 12.0058C8.67946 11.8782 8.55319 11.6999 8.41256 11.4708C8.27205 11.2417 8.12625 10.971 7.97525 10.6586L7.85032 10.4321C7.77223 10.2863 7.66554 10.0741 7.53017 9.79562C7.39471 9.51702 7.27498 9.24752 7.17089 8.98719C7.12929 8.87785 7.06678 8.79461 6.98349 8.73733L6.9444 8.71384C6.91841 8.69305 6.8767 8.67097 6.81947 8.64745C6.76216 8.62395 6.70237 8.6071 6.63984 8.59673L4.49993 8.61227C4.28126 8.61227 4.13289 8.66181 4.05476 8.76075L4.0235 8.80755C4.00788 8.83362 4 8.87525 4 8.93256C4 8.98984 4.01562 9.06014 4.04689 9.14338C4.35927 9.87757 4.69899 10.5856 5.06603 11.2677C5.43307 11.9498 5.75202 12.4992 6.02269 12.9154C6.29342 13.332 6.56937 13.7252 6.85055 14.0947C7.13172 14.4644 7.31784 14.7014 7.4089 14.8054C7.50008 14.9097 7.57169 14.9877 7.62375 15.0397L7.81903 15.2271C7.94398 15.3521 8.12748 15.5018 8.36959 15.6762C8.61176 15.8507 8.87986 16.0225 9.17403 16.1918C9.46825 16.3609 9.81054 16.4989 10.2011 16.6056C10.5916 16.7124 10.9716 16.7553 11.3413 16.7346H12.2395C12.4216 16.7189 12.5596 16.6616 12.6534 16.5627L12.6845 16.5236C12.7054 16.4925 12.725 16.4442 12.743 16.3792C12.7613 16.3142 12.7704 16.2425 12.7704 16.1645C12.765 15.9406 12.7821 15.7389 12.821 15.5593C12.86 15.3797 12.9043 15.2444 12.9539 15.1532C13.0035 15.0621 13.0595 14.9852 13.1218 14.9229C13.1842 14.8605 13.2287 14.8226 13.2548 14.8096C13.2807 14.7965 13.3014 14.7876 13.317 14.7823C13.442 14.7407 13.5891 14.781 13.7584 14.9035C13.9277 15.0258 14.0864 15.1769 14.2349 15.3564C14.3833 15.5362 14.5616 15.7378 14.7698 15.9616C14.9782 16.1856 15.1603 16.352 15.3165 16.4615L15.4726 16.5552C15.5769 16.6178 15.7123 16.675 15.8789 16.7271C16.0453 16.7791 16.191 16.7921 16.3162 16.7661L18.3154 16.7349C18.5131 16.7349 18.667 16.7022 18.7762 16.6372C18.8855 16.5722 18.9505 16.5005 18.9714 16.4225C18.9923 16.3444 18.9935 16.2558 18.9754 16.1568C18.9569 16.058 18.9386 15.989 18.9205 15.9499Z" fill="white"/>
</g>
<rect x="0.5" y="0.5" width="22" height="22" stroke="white"/>
<defs>
<clipPath id="clip0">
<rect width="15" height="15" fill="white" transform="translate(4 5)"/>
</clipPath>
</defs>
</svg>
